<mxfile host="Electron" modified="2023-10-03T03:37:06.559Z" agent="Mozilla/5.0 (Windows NT 10.0; Win64; x64) AppleWebKit/537.36 (KHTML, like Gecko) draw.io/21.7.5 Chrome/114.0.5735.289 Electron/25.8.1 Safari/537.36" etag="lVdVXlM40dwR7MLQHM_C" version="21.7.5" type="device">
  <diagram name="Page-1" id="gjU-oJOfmoMX6_9L7QPZ">
    <mxGraphModel dx="819" dy="478" grid="1" gridSize="10" guides="1" tooltips="1" connect="1" arrows="1" fold="1" page="1" pageScale="1" pageWidth="850" pageHeight="1100" math="1" shadow="0">
      <root>
        <mxCell id="0" />
        <mxCell id="1" parent="0" />
        <mxCell id="-rrkDvZncyotK9qBmut7-1" value="" style="shape=image;aspect=fixed;image=data:image/png,iVBORw0KGgoAAAANSUhEUgAABJAAAANvCAYAAACCsyBrAAAAAXNSR0IArs4c6QAAAARnQU1BAACxjwv8YQUAAAAJcEhZcwAAEnQAABJ0Ad5mH3gAAP+lSURBVHhe7N0NvM/1/f/xl8m2pLVKF4ZkYaOkEQ1dqMSoRjRyNVYsTmuOlIpTrTo0Suji0J8aP1exiHVxlk5N5WJRIpXlYiG6WBfWMtVK53+e7/P5HF9f5/p8Lz6f7/dxv930vTgnzvlev5+f1+v1rpZfwAAAAAAAAIASfMc7BQAAAAAAAIpFgAQAAAAAAIBSESABAAAAAACgVARIAAAAAAAAKBUBEgAAAAAAAEpFgAQAAAAAAIBSESABAAAAAACgVARIAAAAAAAAKBUBEgAAAAAAAEpFgAQAAAAAAIBSESABAAAAAACgVARIAAAAAAAAKBUBEgAAAAAAAEpFgAQAAAAAAIBSESABAAAAAACgVARIAAAAAAAAKBUBEgAAAAAAAEpFgAQAAAAAAIBSESABAAAAAACgVARIAAAAAAAAKBUBEgAAAAAAAEpFgAQAAAAAAIBSESABAAAAAACgVARIAAAAAAAAKBUBEgAAAAAAAEpFgAQAAAAAAIBSESABAAAAAACgVARIAAAAAAAAKBUBEgAAAAAAAEpFgAQAAAAAAIBSESABAAAAAACgVARIAAAAAAAAKBUBEgAAAAAAAEpFgAQAABASu3fvtqwxY9wpAMTD3Dlz3B8gaFavXu3eA5E8BEgAAAAhsW/fPnt07jx3CgDxsGnTJvcHCJp/ffihew9E8hAgAQAAAAAAoFQESAAAAAAAACgVARIAAAAAAABKRYAEAAAAAACAUhEgAQAAAAAAoFQESAAAAAAAACgVARIAAAAAAABKRYAEAAAAAACAUhEgAQAAAAAAoFQESAAAAEBo5NvXu162xTPvtzsGX2Q/ObmhNSr608Z+Nep+m7dklW3/Mt/7fgCxwXMPIEACAAAAQqOa1ah3lvUYdK3dOnWyXX96Te/646zj3Y/a/AnXWt/u7ezk71fzrgcQGzz3AAIkAAAAIIyqH2bf9deqdX5lV17c0A7zLgKII557SFMESAAAAEAI5X+4yVa/sc+dr3lha/tpTSofgETguYd0RYAEAAAAhM639vnbr9mq/Tp/rLU78xQ70l0PIL547iF9ESABAAAAofOZbXxxhRXWQJxu57Y43qiBABKB5x7SFwESAAAAEDb/22kbXnq38HyTtvazk75XeB5AfPHcQxojQAIAAABC5tsdr9mzW74uOFfdTrjwdGtQvfB6APHFcw/pjAAJAAAgjWzZssWmTZ1meXl53jUIn2/swzdfs7fc+bp2wVmnmL+hONLbNRkZ7rn9xRdfeNck3qeffmpLlyyxuydM8K5JJTz3KkvvO/qze/du7xqEEQESAABAitNiUovKPr17W5eLOtnCBY9a+/btva8ifD61N1a+Ym6Gb4021u7UH7prgct69LChg4dY86bN3GJdgXGibNiwwYVGbVq2spGZI6z7ZZd5X0klPPcqq1fvXnbP+PF2XvuzXdC5evXqpAadqBwCJAAAgBTlVxtpMalF5dqX17jrx951lx1++OHuPEJo3xb7+1/fKzzf8mfWtPZhheeR9jp27Gidu3Zx57VYV2Cs4FgBsiqDYs2vNtK/0bNbd3soZ6q7/uqMYda4cWN3PqXw3Ku0Y445xiZOnuTOP/N0rg3o09cu7tKFqqSQIUACAABIIQqN/AWdFo9aREa6ol9fa9u2rXcJ4ZNv/9u6wVZ8rvM1rFHHM6w+W0AhQuaIEd65QgqOFSCrMkgVQqr8qEqYpMW+/o6sMWOKqo38cFpOOrmBXTV4sHcplfDcq6pOnTtb67PaeJfMdm7fcVBVkoLORFbNoeKq5RfwzgMAACDA9MFaoVDus8vc0X0tAt9++23757ZttmrVKndUtyxr1r3qjgQjrL60LTMHW5c/rCw439x+t3iuZbY8svBLFZW/z3atWmrzFv/Fnl7yd3u/7s+tW49f25DBnaxxLSYDh5mqOqLD42gKerp07WpNmjSxZqeeavXq1XOViQqGJHvsWNditHnzZtv+zju2du1aW7VypVv0l0ZVJt26d/cupZIYPvei5X9sL999tV39n2vtxewO9gPv6lSkVkdVq5VFBzuaNm1qpzVvbvXr13fvWzo4osBy6/Z3vO9CohEgAQAAhIQfIHUuWPRteuvNMhdyCJaYLHry37HHftPTblq+x6zmr23G32+zDj+oRFNB/mf21v/dZje/dKxdcsGpdpztttWLZtuiVz+1Y35xly24/3JrWKPy5RWNTm7onUOYqP3to48+sm/3f2s1ahx2UGVRmAXquXeI/bbn5Sn26773244+f7IVVQyQUvW5p8qlY4891v76dC4BUhIRIAEAAIREZAWS7Nixw15bt87WvfpquRZ6qjh4KjeX+UdhtudZG9Xmt7b4a7Mav3zQXpzS1Y6rcM6Tb1+8/n82/rXTbXi/M+zowwr/gvzP/273dP+1PbStkf12wTwbdRYDgsNKrUBqWyuP6EqPeydOdNdfN3JkhSscZdHSJdaiRQvvUgqJyXPvUPl7Vtt9mbfa7Be22v/6Vz1ACjpVzqr1sTwUaDZvfrq1OKOFnXTSSfbK2rVUICUZM5AAAABCSC1sGph7w6hRNn/BAtu46S23cFP7iD9EN5oqlhYvWuRdQvjk2763XrZlBQtYs1p2xs9/YrXLu4DN/5e9MPs5e1+HjvM/sJXLa1m/vgfCI6l25Gn2ix7NvUsIK7WdjcvO9i4dTCGyBlxPmzHdBdFaiKtVrV///i70iWxv1XnNS9PXHszJcd+r/0evMfo79HcV54/jxqXg7loxeu5Fy99jr/3fX+3wi7tYfe+qVOcHlMVRmKnHlx5nek/T427osKHucVi3bl3vu5BMBEgAAAApQFVFWgBq9og+dGvW0e3Zdx6yyLst6xZ2vAmtvfaPNWsK/ivN7IKf/cjKt4bNty83PWN/q/ljO1H/Q7UTrUNGd2t8SIvaYfb9Iw43O+7n1qZJjGa7IOFmzZx1SHurFuaz58+z55cvd6GzwufK7JKm/0evMfo7VM2ovzM6sFY15LJnnvEupYoYPfcOst8+X7fA5hxxufX/WXrMpdP8o0fnzvMuFVJrmkIjvWcpzNTjS48zKmWDiQAJAAAgBal6QJUDWjBqkacFpG9cwYd0hNC379nG5dsKz9dta61+/P3C82XI37ve/nT7q3Zam7reoreaHXZYMUOy8/9ju7ftt0vGDLCzj2aIdhipzdUfnq3wWCGyvzCP9e6LWuDr71Rg/cLKFXb9jTcWBdZqM6rKTm+BE7Pn3gH5n6+zR+Z83wb3P83K97eFm6rSVJ3m0+NFVbOqoFVoxOYO4UCABAAAkOK0yNMC0q9K2vTWW24bboRL/u7Xbfkb+wovND3ZfvS9smog8u2bPa/Z/438vU20NnZmve961xdH1RBP2vImoy27W0M7zLsW4XJrVtZB1UYKkROxMFd7kVqNIquSSmtVCpuYP/fUuvbIYrP+3azp98v6u1KD3z6t9km1p+nxkpKzslIcARIAAECaiKxK+slPfuJdi1DI/7dtfGKprdrvXd663l57d1/BMvVQ+V/usd1b1tnyhffa7y7rb3c+86k179LKTip2nVqw0N2709YtussGD55ky5953Baved++8b6KcHlw6tS4VBuVV2RVkoZwp4SYP/cU1j5qD1sPu7Ll0eVshQu/Ll27umojtU/SnhZe7MIGAAAQEpG7sFVmfglC6Otd9vKip+3FV/NswZ/X2r+9qyumvd3y7Awb2Di6USa/4K9fa399Zbt9uuttW5e71J568xOz6j+zQTPut5vOr0slUhrKGjPGnSqISmtxeu7lf77W7rvxFTtn/G+t5ZGFraLfbplpPS+63balwS5sVbF0yRJ2YUsyAiQAAICQIEBCXH3zib0+51Yb/Ien7dM6GTbvueutTc10qY+AjwApnv5jr+eMs2daXW/Xn1W7qPqIAKl8CJCSjxY2AAAAAGaHHWunD7zeRnU42uz9DbZp91feFwDEQv67z9jkRV9YzR0r7C9LlrhARH/+svxN+6zg619vf9n+WnD5iZd32deF/wsQKARIAAAAAApVq2MtOjQzq1HHjv8hDWxALOV/+V/bs+0vNmnUCFdJ4/+5fuxjtrPg61+vmGajCy6PeWKrfVH4vwCBQoAEAAAAwPONffnfL6x6+zZ2Wm0CJCCWvtN4kD2+/R3XghX5Z/Ozt1nzgq/X7P8nW1dw+XXa2BBQBEgAAABAWvnWvvz3R/bx3mL2WvvyHfv7i7Us49qOVo/xRwCACARIAAAAQDrZt9bu69LWfn7Ory17yZu25xvtqZNv3/z7bXvqvsds37Xj7JpW6bO9OACgfAiQAAAAgHRyeDP71Z03Wd9Wn9mSzG520aX9begN4+xPz35kTX6bZcPPZvt+AMChCJAAAACAdFLtSGvYcbDdMeMpe2X7Vnsld65Nu3uMDfnV2db4hzW8bwKQKP5sJGYfIegIkAAAAAAAAFAqAiQAAAAAAACUigAJAAAAAAAApSJAAgAAAAAAQKkIkAAAAEKiZs2adkW/vu4UAOKhadOm7g8QNMefcIJ7D0TyVMsv4J0HAAAAAAAADkEFEgAAAAAAAEpFgAQAAAAAAIBSESABAAAAAACgVARIAAAAAAAAKBVDtAEAAELg008/tU8++cS7VD6NGzf2zgEAAFQNARIAAEBAbNmyxT7++GP714cf2tq1a911j86d507jqfVZbeyURo28S6Vr3bq1d650JzdsaDVr1vQulUzfU7duXe8SgGTbvXu3O+V5iaDxD6RwcCR5CJAAAACS4IsvvrDNmzfbGxs32qpVq+yZp3O9rxysc9cudvTRR7vz9erVs3vGT7DrbxxlderUcdeVZO/evbZp0ybvUulWrVxpO7fv8C4FV+RtUZp69eoX3D4nepdK1+zUU71zpTv22GPtmGOO8S4BqStrzBh3mj12rDsFgmLpkiU2MnOEbd3+jncNEo0ACQAAIEF0ZF+hzuOLFx8SGCkcad78dBd8KNQoLrBQhVKXizpZ7rPLknIEVqHXrl27vEule+vNN71zpXv//Q8K/s53vUulS0Q1VlWddHIDa9e+vXepdE2bNrVatWp5l0p2RMH3NGjQwLtUOo7Mo6oIkBBUBEjJR4AEAAAQRyq5X7dunT08fbqtfXmNd21hYNSuXTs7rXlza9KkiR1++OHeV0qW7AApLBTU7du3z7tUMn3P9nfKtxBRtdhnn33mXSrZtq1bD7qfg4q2RZSEAAlBRYCUfARIAAAAcbBhwwZb9swz9lDOVO+awtDosh49rGXLlpVqhyJASi26P8vDn4tVFtoWaVuMBQIkBBUBUvIRIAEAAMSIWrzWr19v902eXFSFokqPK/r0sXPOPbfKi1ECJCQabYtlS7W2RQIkBBUBUvIRIAEAAFSRFtmqNpoyeXJRVccV/frar3r1shYtWrjLsUCABBSPtsWylbdtcfWqVS7kuvKqq7xrzI4/4QSrXbs27YdIKgKk5CNAAgAAqILVq1cfVHF0/Y03Wq/eveLS+kKABIRbqrQtKoxq2aqVm9+mlkDtEFmeOW5AVRAgJR8BEgAAQCVoITh50qSi3dTiGRz5NJD7pRdfjEk7HAAUR6H4Rx995NrtfDt27LD/7t1bVJVVXGuh5lV16tTJzmzdmiolxIXed9Uq2617d+8aJBoBEgAAQAWoXW3WzFl2z/jx7rJa1YZlZLBgApBW1Da4c+dO++e2bbZq1aqiMF00F6pX7yvs0l9eymsjkEIIkAAAAMpJO6uNGD7ctYGoheOm0aNjOuMIAMJKFZJvv/22rXjppYN2n9Rr5VVDhlj79u1pcwNCjgAJAACgDKo6euD++4sWRbdn32k9evZkMQQAxfB3pHzqyScPandLRKsvgPghQAIAACiF2jSuv+46NyRbR9LvyM5mgDUAlJMqk3KfftoenjGjaIg3QRIQTgRIAAAAJdAw2QF9+rrzV2cMs99dey1VRwBQCapKWrlypT08ffpBu1YOHDSQ11UgJAiQAAAAijFt6rSiQdnTZky3jh07uvMAgKrJy8uzcdnZriJJA7eHZ2aysxYQAgRIAAAAEXSUfGzBwkZzO7SwmT13bmB2EWIbfwDxpspLadu2rTuNF73WLnvmGRuZOcJd7nDhBW7Qdv2TTrIGDRq464pTs2ZNdnZLU2zjn3wESAAAAB4taK4fOdJtR925axe7Mzs7UEGNPjx3uaiT5T67jDlMAOIia8wYd5o9dqw7jTcF4/dOnHjQsO2q0Ky6Uxo18i4dql69+lanzonepUOd3LChC6lKUq9ePVrukmTpkiUucNy6/R3vGiQaARIAAECB6PDonoIFTdAWCQRIAOIt0QGS7/HHH7eJE+62D95/35o1P8169+5ttWrV8r56wPvvf2C7dr3rXTrUqpUri4Z1J8MV/Qrn5hXnqKOOsiZNmniXDnVEwe9bWvXVsccem9bVpwRIyUeABAAA0l5keBTkoa4ESADiLVkBkkRWI6mFeNKUKdaiRQvvq7GhnTX37dvnXTqUWqRKsnfvXtu0aZN36VB79uxx7yPJUlb1VdOmTYsN5XzNTj3VO1e8ZL/vECAlHwESAABIa9Hh0dBhQ72vBA8BEoB4S2aA5PODApk4eVLKzLxRQPbJJ594lw718ccf278+/NC7dKjNmzfbZ5995l06VDKrrxT4tWvf3rt0qLKqr44/4QSrXbu2d+lQqr7SDEACpOQiQAIAAGkrTOGRECABiLcgBEiyYcMGGzF8uAtEwvD6HAZ6DymJqrK2v1NyMFNW9dW2rVtt7ctrvEuJ47cMtm7d2s2vql+/PptMxBEBEgAASFvXZGQUzTx6MCfHuza4CJAAxFtQAiRRu9n1113ngomgzqZD+ZRVfbVjxw7779693qVDrV271rZt22Zr//5yUWhUUmilVr7zOpxvbdu1jXkLZLojQAIAAGlp2tRpds/48aFalBAgAYi3IAVIEoYNDpAYJc1A8sMpza9S0BS5o59a63r1vsIu7Hgh75sx8B3vFAAAIG3k5eW58EgfLFmMAEBw6fVZr9MKj1y78ciRLlQCfGpZUzikWVkKPhUwLVq6xLU+it7vdfBFVcerV69216FyCJAAAEBaURXP0MFDXHg0e+5cwiMACDhCJFSUWtc0N+v55ctt9vx5ru1Nj50Bffpan9693YwtVBwBEgAASBtacFw9ZIg7P/auu6xu3bruPAAg2KJDpAfuv9/7ClC6tm3busoktX8rSNLcpJ7durt2TbW/ofwIkAAAQNoYm53tdvS5PftO94ESABAekSHSQzlT3Sw7oLzU5uYHSXoMaVbS5T16uLZ2lA8BEgAASAv6gKgPi/rQ2K9/f+9aAECY+CGSm2E3fjyLf1SYgiTtvDpx8iR3WW3tqkaiLbJsBEgAACDlqUR9XHa2Oz/a22EIABBOCpE0w04hkhb/mm0HVJSGbutx5FcjXdyli+3evdv7KopDgAQAAFLevRMnutY1HW1k7hEAhJ9eyzXLTjTbjuoRVIYeR6pG0o5t+pwwoF8/dmorBQESAABIafog6Leu6WgjACA1aJadv/DXjDugsrRjm3ZrcyFSn76ESCUgQAIAAClLR6TH3HyzO0/rGgCknoGDBha1IDEPCVWhQFIhkhAiFY8ACQAApKxlzzzjjibqCDWtawCQejQPyT9AoFl3bMuOqogOkTZs2ODOoxABEgAASElaRIzMHOGGrOoINQAgNekAgWbc6YCBZt4BVREZIo0YPpzB2hEIkAAAQEpauGChOx2ememOUAMAUpdm3LU+q41rZaNqBFWlEGnajOmFVczXXceQdg8BEgAASDmqPrpn/HhXfdSpc2fvWgBAKrvDG6T9x3Hj3ClQFR07dnQt8GtfXsOQdg8BEgAASDlUHwFA+mncuLFdnTHMLfiXLlniXQtUHkPaD0aABAAAUorKzKk+AoD0dNXgwe50yuTJtB2hyhjSfjACJAAAkFK085pQfQQA6eeYY45xbUeaXeO/HwBVwZD2AwiQAABAStFRZznn3HPdKQAgvfTq3cudUoWEWIkc0r5lyxbv2vRDgAQAAFKGdt5xO6bceKM7Cg0ASD+RVUjr16/3rgWqxh/SPmvmTHeajgiQAABAyvDbFdq2a+tOAQDpya9Cus+rSgWqSkPar+jXN62rkAiQAABASlCbwkM5U12JeYsWLbxrAQDpSFVIWuxrR7Z0bjlCbA0cNMidpmsVEgESAABICX6bwiWXXupOAQDp7eJLLnGnz+U9506BqlIVkr+t/+7du71r0wcBEgAASAkrXnrJnXY4/3x3CgBIb23btrWTTm5g94wfzzBtxEz/AQPc6RN/ecKdphMCJAAAEHqR7WvabhcAAOnV+wp3yjBtxMoZZ5zhgsmFCx71rkkfBEgAACD0Nm/e7E5pXwMARLr0l4XvC36VKlBVhx9+uAsmtcufdn9NJwRIAAAg9N7YuNGdnta8uTsFAEBUlapqEVWpArHi7/bqf/5IFwRIAAAg9FatWuVOmzRp4k4BAPD5bWzpVi2C+PE/b/ifP9IFARIAAAg1zT965ulctyuKysoBAIjU4owW7jTdqkUQP/q8oc8d+vyRTgPaCZAAAECo7dq1y522a9fOnQIAEElDj2XTpk3uFIgF/3OH/zkkHRAgAQCAUHvrzTfdKfOPAADFUbWIdul8dO487xqg6n58yinu1P8ckg4IkAAAQKj5O7DVrl3bnQIAEO28Due70y1btrhToKr8zx3vv/+BO00HBEgAACDUtm/f7k610w4AAMVp1LiRO92xY4c7BaqqcePG7nTXrnfdaTqoll/AOw8AABA6jU5uaFf062vZY8d616QuHTnvclEny312WdEHVwCIpawxY9xpqr2m+q+ft2ffaf369/euRZgsXbLERmaOsK3b3/GuiS8Nxy5rvpEeU+3Obm+33Habd80B+/bts+3vVO1nXbt2rTu9+JJLrG3btu58MhEgAQCA0Pr000+tTctWdnXGMLth1Cjv2tRFgAQg3lI1QFIY0Lxps7Q54BALVW33U7XXf/fu9S5VnFrUP/vsM++S2batW23ty2vcfegr7b68e8IEeyhnqnfpYKU9Dvz32iDQTm9HH300ARIAAEBV+R/yJk6eZN26d/euTV0ESADiLVUDJFHFqoZpz1+wwLumZDpA8cknn3iXKu7jjz+2f334oXep4vbu3VvirnFNmzYtsYpq9+7dNjUnx/bs2eO2mI9W2vulX+ETFLqvTmlU2HooFQ2Q9PuU5PgTTigxkNF9/9KLL7rzzU491Z2WZMrkyfbXp55278vFSbX3agIkAAAQWqtXr7YBffoSIAFAjChAUviQOaJqQUJVd6byW3cilVaFofeDp5580rtktmrlStu5/cC8I71uzpo50+3EFt0Cpd85iDu0RQYlkcoTIEnr1q3daSQFIiW9f+g9JvJ+O7lhQ6tZs6Z3qeKOPfZYO+aYY7xLVZfoFrby8B87QfqZ4okACQAAhJb/YTJdAhUCJCAxtAjX/JLKqmrrjnZ1ihzMOywjo8SNAubOmXNIpYpfqSGlLWxVkRNUfutOpIoESPXq1bc6dU70Lpmdc+65du/EicUu9vX/RlcLHVGrljVo0MC7VHEKXtjcIbYIkJKPAAlJ5b9ppcsTDgAQWwRIQOxVtXWnqoNjI1t3SmtP8VutShKG+SYlOenkBtaufXvvUsUDpKOOOsqaNGnizpdWnVlci8+j8+e70zuys91pZdWrV88OP/xw71IwTJs6ze4ZP57X0JAiQEo+AiQkFQESAKAq0i1AQmIoYKiKqrbuSEmL/sj2lOKUFjT4z5cw8Ft3KhsgdTj/fOvYsaN36WCR801KovkotWvX9i5VXKxbdxAbvGcg1q4peM3VrCkCJCABCJAAAFXB0eTYq2rrTlUGx6rFpKRFd3R7SrSygoYgzjcpSWm7ClYlQIqeb1KSqrbuCM9HBBEBEmJN69nSdnRLNQRISCoCJABAVcS6dFzbPO/atcu7VHGVbd0prcWkuPYUX2mDVMV/nw2L0hZ1VQmQiptvUpqqDo4NYusOAAIkxB4BEpBABEgAECxVbd2pyODY0rbQldLaU/xBqsUFSGGYbxKttPfBqgRIWixVVFVbdxgcCyCoCJAQS/7njduz7yz1vTiVECAhqQiQAARJVQfHlrd1p7QtdKvSnuK3c4VFWUfsKhsglWe+SWl0/1QFixIACCYCJMSSqlsH9OlrEydPKrWSOJUQICGpCJAAxIIfNKxaudJ2bt/hzgdZaR80SgqQ/rHpH/bTpj8tNUDKy8uzDz/4wGrVquVdU3FVbd1J9OBYP0DauOktWoYAAKUiQEIsqUL4tqxb0urxRICEpCJAAhALfoBUr159q1PnRHe+Mqo6ODaerTva5ePO7Gx29YnCYgAAUF68ZyCW/B3Y0ukgFgESkooACQDKpsHOzZs2s9nz55U6MygdpdtiwJ+3wOIHQLz4B2VScSgwAVK4+fdfENaO/mezzl272IOljB5INd/xTgEAQED5u4L9c9s2dwoAACpu8+bN7lTt1kBVrF+/3p22a9fOnaYLAiQAAALurTffdKcl7cSFwgHmAACU5rPPPnOntIOjqla89JI77XD++e40XRAgAQAQcGvXrnWnGhaNg/k7ppVn9zsAQHrbtnWrdw6oPLWvPZQz1Vqf1SZusy+DigAJAICA0+5yPs3AwaH27t3rnQMAoHhrX15jV/Tr610CKmel97nskksvdafphAAJAIAA+/TTT23n9h3eJbMdOw6ch3beq+dOae8DAJRG76dy1FFHuVOgsh6ePt2dduna1Z2mEwIkAAAC7O233/bOFXpt3TrvHMTfNpe2BABAad5991132qRJE3cKVMbq1auLKtnScZYWARIAAAHmD2n05T79tOu9xwH6EKcPc+mgZs2a7vfVKQDEQ9OmTd2fVLP9ncKt309u2NCdInyOP+GEpLcg3jd5sjsdOGiQO003BEgAAASUyu01pDGS2tn8rWNRqF69+u40HeZDaVhn9tixaTe0E0Di9Ovf3/1JNf6GFPXrF75nIHzatm3r3gOTJbL6qHHjxt616YUACQCAgHrpxRe9cwebM3u2dw7SqHEjd8p8KABASbQhxUknN2ALf1SKqr/TvfpICJAAAAioR+fP984d7Jmnc2337t3eJTRo0MCdbt3CHCQAwKH0nqkK3nQceozYWLxokas+uv7GG9O2+kgIkAAACCC1Y5U21+eJvzzhnYP/Qe6F5X9zpwAARPJ36vxZy5buFKgIfSa7LesWV8E2cNBA79r0RIAEAEAAPZf3nHeueAsXPOqdg/iDtP1tmgEA8Pk7mKbicHDEl1rXbs3KcucnTZlStPtruiJAQuhpscCCAUAq0YeVe8aP9y6Z3Z59pzudPX+eO/olKsXXMEcUat26tTt9++233SkAAKL3VG1I0fqsNmxAgAp74P77i1rXWrRo4V2bvgiQEHpKgR+eMcP69O5td0+YYHl5ecwGARBqK1eudKeqqnlh5Yqi3XC0+8hTublFgdJTTz7pTmF2phcgrXjpJXeaqrQQUim9TgEgHvQ5OpU+S/s7l15y6aXuFOGlooFE7rg6beo0Fz527tol7VvXfARICD0FSDeMGmVX9OnjnuBDBw+x89qfbY1ObmhZY8bY0iVL+LANIFQeX7zYps2YXux27XrNU6CkYGnPnj1UYHp0O6k6K/fpp71rUtOuXbusy0Wd3CkAxMPUnBz3J1X4BxY6nH++O0V4aXdavQcmgqq8VQ2uzxZ3ZmenfeuajwAJKaNb9+6W++yyovYOeXTuPBuZOcK90DRv2syuyciwuXPmuColhUr+HxZgAILkwYIP7h07dvQuFU+Bib6P7YgP6NX7Ctfat2HDBu8aAEA6o30NlaHwaECfvm5dOXvuXD5rRSBAQkrRTjyPLV7sygyLo62vNUFfVUoKlfw/bVq2chVL/h+1w6l6yf+j0IkKJgAItrbt2rrT1auYDQUAiGgJ79PHnQJliQ6PCB4PRoCElKOEWEflNeissjQoTdVL+rOq4I3ntObNKVsEgIDTcEt94FPJOaE/AODh6dPd6TnnnutOgdJo5hHhUekIkJCyhg4betCORZVxdcYwN7CWifsAEA5XDR7sTv2hqQCA9KRKEh0U1ud5WpBQGh10UteJP/OI8KhkBEhIadqxSC8A6nuuCH2/5ilpODeVRwAQHv6Q1DmzZ7tTAEB68ncq7X7ZZe4UKI7m4V45aJDrPNEYFI1DITwqGQESUp5eAB6ZOdMdfSiPevXr2ZhbbnHzlAAA4aLXfH0A1Mw7fSgEAKQfvf77gQCf6VEcVR1pzq3m4apSTeNP7pk4kWq1MhAgIS0UbfXfr693Tcl2vbvLul9yqd09YQIzNAAghPoPGOBOn8t7zp0CANLLrJkz3an/fgBEUnvjxV26uM2V1LK2aOkSN/6EzpOyESAhrYzJyipxh7Zo2vJTLyxsBw0A4aL2ZbUia5bBp59+6l0LAEgH+uyu6iMdONb7AeBTcKTdtjUoe+f2Ha7qiHm3FUOAhLSiVFmlieUNkfTC0rNbd1feCAAIj6uGDHGnCxcsdKcAgPTwx3Hj3OnAQYPcKdKbOkry8vKKgiO1qylcfGHlCqqOKoEACWmntBBp2ozpxV6v8sZrMjJoaQOAkGjfvn3Rlv5UIQFAeli6ZElRQMDso/Sl931VG2kkSfOmzWzo4CFFO/Jpo6TssWMZlF1JBEhISwqR7szOLnaL/wdzcmzi5EnepQM0kPX6kSMJkQAgBPQ6Pzwz051/eMYMdwoASF0KDaZMnuzOX1fwmR3pQWszDU1XldG0qdNcpVGblq1ctZFGkqilXWu7NetedTNxCRarplp+Ae884J6AiSzja3RyQ3e6dfs77jTRdu/ebQP69XOtaqIXl27du7vzeiG6esiQoq/5FDppe0cm9ANIJL1eJuu1Msz0QVJHHXXEMRU+NOq9STvGpMrvAyB4ssaMcaeq0ggT/dyafRT5eR7Bp/XYvn37vEtmH3/8sf3rww+9S2Z79+61TZs2ufPbtm2ztX9/2VWY6b4uib7eunVrO7PgD5VGsUWAhCIKj64cNMhatmplv7v22oQESckOkCQyRLo9+07r17+/95XC20RVR6o+iqQ2N7XBJTJsA5DeCJAqRyXsOgqp121VmIYdARKAeAtjgKTqE7UppcprfVhUJPzxlRb8VIQqi05p1KjwfOvWdkStWtagQQPeG+OMAAlF1DM8MnOEO68qm0lTpsR9In0QAiTRi9957c92aXX0m6VCpFkzZ7k5GpEIkQAkEgFS5flHpTXnrmPHjt614USABCDewhYgRR4M1mBkKk7KR+8nkRIV/mgNdfTRR3uXzOrVq2916pzoXbKiICiS/37nr1f5PJQ8BEhwFJJoy/rIdq3oapx4CEqAJDpK/dSTT5b4Zqme2ugQSVs/anp/fH1tn21ZaUsWP2dv7vqX/dtOtgt+c5Vd3vJ4O8z7DgCpjwCp8vyDBDo4ou16wxz8EyABiLcwBUiR3QLp1LoWHf7s2LHD/rt3r3fJ7P33P7Bdu971Lpnt2bPnkI6KyqhK+BMLBEjJR4AExy/79CXqQ3aQAiTR8L3SZhtpJ7boF99FS5fEr1Ir/zPb9Ni9NuUfrW3ktZ2t8Q9rWP7na+2+IQut7l132OUNqX4C0gUBUtXMnTPH7aipHVg0RDOsCJAAxFuYAiT/AG9xXQRBla7hTywQICUfARIcf8ioL1EJftACpLIUNxMpfmHbXtsyb4xlvHi2/b/7L7eGNap5139l2+ddY1dsHWTP3nq2HeldCyC1ESBVjV6/NedP73VhbmUjQAIQb2EJkPwD4JqF88jMmQmpLk1W+KOALFLTpk2tVq1a3iWz4084wWrXru1dKpSK7xEESMlHgATbsGGD9ex2cFi0cdNbCXkRDluAJH4rRKTYt7Ltt89fzbH+A9603k9Osr4/Pvi++GbdJPt5/3/bPX+/zTr84DvetQBSGQFS1UW2ss2eOzeUczIIkADEWxgCJH+DhPK+nusgwq5du7xLhd56803vXKHNmzfbZ5995l0y27Z160EH2CurouFPzZo1meNUAgKk5CNAgt09YYI9lDPVu5SouT6FwhggSXTLn8Tyw3z+53+3e7oPsWWXzLS/jGhl0VGeC5B6vGhX/mWuZZxe07sWQCojQIoN/8NnWDdCIEACEG9BD5DefPNNGzRggO35dI9rS27SpAnhT5ogQEo+AqQ0pzS+edNm3qVCidy9IKwBkkTPQ4pd7/U+2zLzGrvkD1/Z9bkzbEjT6IAo3756+W5r23updZz+uE246HjvegCpjAApdrQ40k4yiTxgEisESADiLcgBkipJu196qQuPSqPKpHbt23uXCmmr90iEP+FDgJR8BEhpzi//9KmHeP6CBd6l+AtzgOR/iI8Ui/Atf8/f7LZOQ2zBqXdZ3p9+ZfX90UdFvrEPllxnZ2eusAsm/8X+X/d63vUAUhkBUuzo4Im/82jY5iERIAGIt6AGSJHb9d84+mbrcP753lfMjj322FI3wkFqIEBKPoanpLkN6zd45wpdcuml3jmURR/co8tan/jLE965yvqf7cpbaAs+Otxadmpp9Q4Jj+R/9tHuA8P5AAAVo7Y1zczQEWq1I2sWIAAguCLDI1WPDvntb91ncf8P4RGQGARIaW7hgke9c4Uik3yU7Ve9ennnCkXfnhX27Tv2/JwXbb+1sF+0rmvF5kf2me36x+6C0+OsUZ0fFF4FAKgQVYuOvesud37E8OFucQIACB7XMeGFR6oaDVvrMZBKCJDSmD4s64XYpyOx9P1WTIsWLVzbn0+3Z1WOZH+7bbUt2bCvYGVzpjU/6XvetVG+2mkbX/yo4Exdq3d8Cd8DAChT27Zt3WJEr91anBAiAUCwaOMajdvQ6/Ts+fNC1XIMpCICpDS2c+dO71yhLl27eudQEdFtf29s3Oidq6j/2e71L9tbOrt7ivX6yY/dzJND/vzkCvt/2mSi7un20x99V98NAKgkLUbUDkGIBADBoVl106ZOc23Gbqv++fNc6A8guQiQ0tg/t23zzhXSFpiouNOaN/fOFVq1apV3rqL+Y9s2vGX77VjrOPlF27L9HTcg7uA//7C8cWozrG4n/LKt/fR7xTW55dv+b/YX/BcAUB5qhyBEAoBg0Gvw9SNH2j3jx7tKf82sIzwCgoEAKY1t2rTJO1eo2amneudQEWpjixS5tX+F5H9m7235tODMKdbqJ7WLn3+U/569smx9wZnm9quLmlr0Bv9mX9lH6+bb6Gvn29ZvvasAAGUiRAKA5HMtawWvwfo8rc1qHpk5kxEbQIAQIKWxbVu3eucKaftLVE7nrl28c4W0zXKF7f/M/rV5r1nNn1rjusXPNsrf9Yo99dIeq35Wd7u4+ZHetZJv33y03hbd+Rvr0mOMLXrvG+96AEB5RYdIlXotBwBU2KeffmpZY8a4ljW9Bk+cPMmyx451u2YCCA4CpDS29uU13rlCbH9ZeUcffbR3Lgbq1bMTjijuqbnP/vHXx+2l/c1swO+7WqMahTVK+V/utFWzH7TpK/9rjc76mdWt7q4GAFSCQiQtXLSA6XJRJ7f7DwAgfpYuWWKX9+hhj86d5w7KvrByhXXr3t37KoAgIUCCo+F0qLymTZt656qg+rFW7/SjCu6M4+zo4kKgz9fZY//vFavde7hd3e64Ay1u+2vZT36VYcO6t7cWP29tp7MxGwBUiRYuGtgq2v1n7pw57jwAIHa0c3Gf3r1tZOaIoqqjB3NyaFkDAowACU679u29c6iMzz/f652rgmpH2UnNfuRdiLbPtix62OYdP9Sm3HShHRcxIKnaEcfYsd/nqQwAsRQ5sPW2rFvsmowMtysQAKBq1B6sdrWe3bq7jgjNOlqz7lWqjoAQYNWZphgOGlu7dr3rnauKo+y0DufbCZu223tfRe6htt/2vrnAxs1raFNmXGNnFVueBACIF7VUaKDrxV26uCPmAICKU0uwgiO1B6tdTcFR7rPL3KwjRmkA4UCABMTAqpUrvXOFKjeQvJrVbHW5jWq12hY8964VjsH+2va8vsgmPPQfGzjrRutUh/40AEg0tVTcnn2na7HQEXO1tFGNBABl03BszThSq5pagv3gSG3CCo4aN27sfSeAMCBASlPRvcXRAQjKT4sILSoiVfooymEN7ZfjbrM2r9xhfXoNsetH/dH+75+NbNiEa60D4REAJE2//v1t0dIlbmagWtquHDSIaiQAKIY+G6va6O4JE6xNy1ZuxpFa1a7OGFZUcRTZJgwgPAiQ4EQHICi/zZs3e+cK6ahKVVSr1cx63jrD/rxwut0z4RYb3r2l1WHGEQAkXYsWLeyp3Fy3CNJiSNVIWiDpCDsApDONx8jLy3Mtas2bNnPVRg/lTLXWZ7Vxw7E14+iGUaOoOAJCjlVpGoveeY0PwJXzxsaN3rlCMdmRDQAQSIcffrhbBOkouhZGWiDpCLtaNGhrA5AOFBapAlOvewqMLujQwc5rf7YNHTzEtajptVFtv9qOf/6CBW44NjOOgNRQLb+Adx5pRi/4epH36cNwoo8KNDq5oTvduv0ddxpG2plHw1V9anHQUeqk+M9yu+Xnv7H5jW+z3McHWWMiYiBl6PUyzK+VYVSe9ygtoKZMnuwqeXVgZnhmpnXq3NkFTfGg3Ys0gDYZ79kAwkVBz759+7xLJdP3bH/nwOvco/MfdadX9LnCna5du9adbtu61VVfRtNrX5euXe1nLVu6A6lsw4940XuuWiL5PJQ81QiQ0te0qdPsnvHjvUvmyksTvX1m2AMkVW3pyHOkjZveitvCoUwESEDKIkBKvPK+R6nyaNbMWUXvqfEMkgiQgOTTc37Xrl3epdK99eab3rnSvf/+B+Xa1XfPnj0HHbhMNI1qOOqoo6xJkyZ2csOGVr9+faqLkDAESMlHgJTGNNxO/ck+vSFoqF0ihT1AUq+3ynV92upZu/UkDQESkLIIkBKvou9ROqiwcMHCgw7OXH/jjXZhxwtjFvYQICHV6TFeHh9//LH968MPvUsl27t3r23atMm7VDptKhOGuaD6vHn00Ud7l0pWr159q1PnRO9S6Zqdeqp3zmzypMnuNHNEpjvV7sKERAgCAqTkI0BKY0Gongl7gBTdvjZtxnTr2LGjdykJCJCAlEWAlHiVfY/S++tLL75Y1Nommgly1ZAh1rJlyyotxAiQUFmVbWcqjTYS+eyzz7xLJSup9Slo9Dw9pVEj71LpWrdu7Z0rnap0atas6V0qmb4nKK1fGnMhiT6wDJSFACn5qhEgpbfoAGT2/HkJ3VYzzAGS/yE+knaYSOYRmvyPnrYR7a6xJ0++wR5/apg1/2417ysAgIqKxXuUqn2fevLJg2YOqnrgsh49KjUrhAApeJLZziSRj62gUltnu/btvUul0/OiVq1a3qWSHVHwPQ0aHLwhTEl4rlQMARKCigAp+QiQ0pz/JPQlugUrzAFS9AwpbeusnXkSLn+PbXpuhW3e+5n9M3eWTXtmq+234+xn/a+y3meeYN+rc6b94qx6VsP7dgBA+cTyPUpVSevWrbPHFy8+6MCNKh7O63C+NWrcqFyBUroFSLQzlS3e7UylobUpNREgIagIkJKPACnNFdfGlsgPpWENkJJ9uwEA4i9e71F+mPRawZ+HcqZ61x6gmYT+Yt9fyNerV8+1mMcqQKKdqWy0MyFdESAhqAiQko8ACYdU0iRymHZYA6S7J0w46EO/PmTOX7DAuwSkD7XnJLLtFUikRL1HKRTasWOHC5TWvfpqmeHKqaedZk1PbWaHHXaYd80BYWhn8unzRlloZwISTwGzEGIiaHQA5pNPPuF1PIkIkFB0NDNSomYhhTFASubtBQSFnge3ZmW5hS6Pf6SqZL5H6TnmV/9Et12VFhKFoZ0prAePAABIdwRIcKIrajTs8Knc3LjvyBa2D5EalHnloEEHHR1OZMUWkGx6DsyaOauoalGzv64aPJgZGEhJBB3xwe0KAEA4sck3HC0AFRr5NDRybHa2dwk+LZyjWwsGDhrknQNSW15enl3cpYsLj9S2uWjpEjc4nvAIAAAASH0ESHC0AByemeldKqQSeQ0qQyHNeomcFSW3Z99JDy5SnmYhaKDm0MFDXLg8cfIke2TmTGvRooX3HQAAAABSHQESinTr3v2QgZaacq/gJN1pAT2gz8G3jeZM9OjZ07sEpB61q82dM8fOa3+2C5T1+vDCyhXutSLe7a2p70vb9fISm/XAH+y3HU51LT1Ff37Wy258cK4tXflOwXcBAAAAwcAMJBxEC0a1qKjKIFK8huSGYQ6CC4/69TvoNlG73+y5c9mdAilrw4YN9sdx41zLph7vY++6i0HZcZFvX2962C7vMtbe1MUal9ofn5tgl5/0ffdVJBezeuKD2xUAgHCiAgkHUVWBgpHIeUii6pt0rEQqLjwSLaYJj5CKtD2q2tV6duvuwqPrb7zRDdQnPIqXalb9sMO8N+PqdsLgftaV8Ail0HNU7eU6BYB40Gd+OhAQRNqhlBEryUWAhEMoGFFAEk0hktpZ0oXeOIsLj6bNmM5iGilJb8iX9+jh2tXUopn77DIbOmwo7Wpx9Y19+OZr9pY7X9cuOOsUq+nOA8X75JNPXHu5TgEgHp568kn3Bwiat958070HInkIkFAsBSRqW4t2W9YtrjpBrW6pTEGZArPo8EjVGB07dvQuAalBR3P69O5d9IaskPTBnBwGxCfEv+3tV9bbfp2tfoad+ZMfumsBAACAoCFAQon8ECm6nU3VCZqTpBkpqUYtAddkZLigLJp2XFM1BpAqFARPmzrNulzUybWrXZ0xzB5bvJiQNJH2vW0vLd1ZeP7Ms6zFiYcVngcAAAAChgAJpXIhUjEzkVSZoxkpd0+YkDLVSGrfadOylT3zdK53zQEK0vr17+9dAsIvLy/PBcH3jB9vrc9q49rVbhg1yo455hjvOxB/+fa/rRtsxec6X8MadTzD6ldzXwAAAAAChwAJZdJMJA3R1UyUaA/lTHWL0DAPM9Oso8j2nUgKzrSwZuYRUoUGw6sNdejgIS4Injh5kj0ycybtaknxle1Yt8q2ufON7ILTf2TV3XkAAAAgeAiQUC4aoquZKFpsRtMiVOGLQpgw7djgB0eadaT2nWhX9OvrgjMW1kgFqhTUbK/z2p/t2lD1+F6z7lXr1r07Q7KTJf8je2v1PwrP12xtbZr+oPA8AAAAEEAESKgQLTZVkaOWl2gKYRTGBDlI0owjLaIv6NChxOBIVUcaIpw9diwLa6QEzSu7ctAgN9tLj2+1ZOrxTbtakv37H7by+cKdtGp0PMtOPZK3ZAAAAARXtfwC3nmgQtS2NmXy5EN2KvNpoTo8M9POOffcEheqjU5u6E63bn/HncaDWnY2bdpkjy9eXOx8o0jaZW3goIEER0gJCkzvnTjRVRyJBsH36NmTx3cg5Nu+lWOtXb+Hba/Vstbjlti8vqcYI5CCJRHvUemI2xUAgHAiQEKVaIG6cMFCN4i3NNrd6exzzjlkllA8PkQqMNq5c6dtWL/BXlj+t2KrjKIpOOrVuxcVGUgZCnj9uV6aX5Y5YgTtmIGy1zY+ONAuu3tdwfk2dmPuTBvSlGAvaAg64oPbFQCAcCJAQkyUN0hSVVKv3ldY23ZtrX79+m7XM6noh0jNc9m1a5ft27fPtr/zjr3//gcFl98tqrQoD/0sVw0ebF26diU4QsrYsmWL3ZqV5YJTPcZHF5xnW/4A+vZtm3VZD7tzwz6zusNt4fPDreX3KlN/lG/ffPS6Pf3nxbbsueX27Kv/tUYdu9olv+xpl3c93Y47jJqmqiDoiA9uVwAAwokACTHlB0kLFzxaYmtbcbTQbde+vXepeNu2bi1XNVFZ/GqoM844g1YepAyFqg/cf7/bGVH0OFdASjgaTPnv/tmu7DDKXtpvVrP/n2xFdger+AjtfPv6nSU26jf32Nbmne2CH3/XPn3zJcvNe8v+bbWsacZD9n83tLOjyZAqjaAjPrhdAQAIJwIkxIUWsytXrrSHp0+PSehTFQqnVGVEaIRUlZeXZ+Oys11oqwH3dxScp10tyPbbnmezrN2QR+1rO9EuyVlkk7r+qOLzj77caNOH/sm+e90Y63f6sXaYu/Ire/9vk+y3gx+yTdbBbsl90AY2qem+gooj6IgPblcAAMKJAAlxp5lET/zliQpXJVWWFtAtW7WyJk2aWLNTT2UhjZSl59a4sWOLhsNPnDzJOnXuTEgaeHts5R2X28BH/llw/ny7429TrW/D7xV+qQz5e1banJcbWP9f1LUvXp5m4z651O7sWu/g8Cl/py0ddrmN/Gv1yodTcAg64oPbFQCAcCJAQkJpO/E3Nm50u6Lt2bOnzF3RSqKQ6JRGjeyoo45yQdERtWpZgwYNrF69eiyekfJU4bd40SK3Lb9c0a+vXTdyJO1qYfHVqzb5gt72wO79Zk1G2xO5Q6xpde9rpdprb814yDZ1vtZ61q9un216y/Y0PM1O/n50PPSlbZk52Lr84S075+5F9sivGhIgVRJBR3xwuwIAEE4ESEiqyA+R/mDs4hx77LEsjoECCmFHDB/uqvnUnjn2rrsO2d0QwfbtlpnW86LbbaNVtzrDF1jeiFZWdv3Rftv7+gwbMukYm/DIr6x+qYmQHyB9Ydf9ZZZlnF7Lux4VFcSgQ4Pyu1zUyXKfXRbaClsCJCDYssaMcafZY8e6UyAo/F2Gef9Inu94p0DSqXJIH4aL+0N4hHSnAfX6QNezW3cXHt2efac9lZtLeBQ6/7Pd61+2t9z5H1jThieUIzz62va8Pseu/81Us4taWr0yy4n22b92fmTVW3SxDj89wrsOAAAAqBoCJAAIOB1tadOylT06d5517trFVR7069+fds0Qyt/7pj3559W2313aa1tf3Wjvfvmtu3Swb+3Lf++2Leuetz/f+3vredkfLO+T0+wXreuW2Y6W//5qe+yJo2zw6O7W9Ls0rwEAACA2CJAAIKDUqtKnd29Xqqt2tWkzptuDOTmuKg9hkm9f7/q7LZg+wW4ceLVNXPOZd/3XtnN2hp3/01NcS8/Bf06x084427r0uMpuvu+vtlOJU4uO1u6U7xf+ryXJ32OvLZhv2/vdYEPb1Gb2EQAAAGKGAAkAAkbzwO6eMMHNOVn78hq7OmOYPbZ4sXXs2NH7DoRLNatR7+fWe8gom7Bojevbr9SfpYOscanv2vttz5qZdvfb3ezea860I0mPAAAAEEMESAAQIHl5eXZxly72UM5Ut9ug2tVuGDWKOWAoQ7598/4zNn6SWea4HtawBukRAAAAYosACQACYPfu3XZNRoYNHTzEDcmeOHmSzV+wgHY1lEv+3jds3oQNdt6kDDvr6OretQAAAEDsECABQBKpXW3unDl2Xvuz7Zmnc+2Kfn1tzbpXrVv37t53AGX4Zre9MPVJqzYkw35RJ2pPt/x99sknX1i+dxEAAACoLAIkAEiSDRs2uHa127JucUOyFy1dYtljx9KuhvLL32PrHpxiq9peaf2bHRU1NDvfvtz0pC1843PvMgAAAFB5BEgAkGCffvqpZY0ZYz27dXftardn32lP5eZaixYtvO8AymOvbZn/B7t+ZS2r+/Fq+8uSJbY04s9jM/9ovx+9y1q1Po7d2AAAAFBlBEgAkEBa2Ldp2coenTvPOnftYi+sXGH9+ve3ww8/3PsOoDz2256X/59dd8tfbOeaP9mdmSNsZNSfm/4wzz66uJOdUZP4CAAAAFVHgAQACbBlyxbr07u3W9irXW3ajOn2YE6O1a1b1/sOoCKq29FnXWdPbCtmu/+iPxvt8SGn2Xe9/wMAAACoimr5BbzzQMI1OrmhO9ViB0hFald7eMYMty2/XJ0xzH537bVUHAEhEMT3KIXRXS7qZLnPLgvtLo289wMAEE5UIAFAnOTl5dnlPXq48Kj1WW3cgu+GUaMIj1Ap/qIbAAAASAYCJACIMVUIXJORYUMHD3FDsidOnmTzFywIbbUAAAAAABAgAUCMfPHFFzZ3zhzXXvLM07l2Rb++tmbdq9ate3fvOwAAAAAgnAiQACAGVq9ebRd36WK3Zd3ihmQvWrrEsseOtWOOOcb7DgAAAAAILwIkAKgCDcnOGjPGBvTp69rVbs++057KzbUWLVp43wEAAAAA4UeABACVoHa1pUuWWJuWrezRufOsc9cu9sLKFdavf3+GZAMAAABIOQRIAFBBGpJ95aBBNjJzhGtXmzZjuj2Yk2N169b1vgMAAAAAUgsBEgCUk9rV7p4wwQ3JXvvyGrs6Y5hrV+vYsaP3HQAAAACQmgiQAKAc8vLy7PIePeyhnKnW+qw2lvvsMrth1Cja1QAAAACkBQIkACiF2tWuyciwoYOHuCHZEydPsvkLFljjxo297wAAAACA1EeABADF0JDsuXPmuHa1Z57OtSv69bU16161bt27e98BAAAAAOmDAAkAoqxevdou7tLFbsu6xQ3JXrR0iWWPHWvHHHOM9x0AAAAAkF4IkADAoyHZWWPG2IA+fV272u3Zd7oh2S1atPC+AwAAAADSEwESgLSndrWlS5ZYm5at7NG581y72gsrV1i//v0Zkg0AAAAABQiQAKQ1Dcm+ctAgG5k5wrWrTZsx3bWr1a1b1/sOAAAAAAABEoC0pHa1uydMcEOy1768xq6/8UbXrtaxY0fvOwAAAAAAPgIkAGknLy/PLu/Rwx7KmWqtz2pjuc8us6HDhtKuBgAAAAAlIEACkDbUrnZNRoYNHTzEXZ44eZLNX7DAGjdu7C4DAAAAAIpHgAQg5WlI9tw5c1y72jNP57oh2Y8tXmzdunf3vgMAAAAAUBoCJAApbfXq1XZxly52W9Ytrl1t0dIlbkj2Mccc430HAAAAAKAsBEgAUtLu3bsta8wYG9Cnr+3cvsNuz77THpk501q0aOF9BwAAAACgvAiQAKQUtastXbLEzmt/tj06d55rV3th5Qrr178/Q7IBAAAAoJIIkACkjA0bNtiVgwbZyMwRdtLJDWzajOmuXa1u3bredwAAAAAAKoMACUDoffrpp3b3hAnWs1t3W/vyGrv+xhvtqdxc69ixo/cdAAAAAICqIEACEGpqV7u8Rw97KGeqG5Kd++wyGzpsKO1qAAAAABBDBEgAQmnLli12TUaGa1eTiZMn2fwFC6xx48buMgAAAAAgdgiQgDhSyFHaH1SchmRPmzrNulzUyZ55OtcNyX5s8WLr1r279x0AAAAAgFirll/AOw8kXKOTG7rTrdvfcadhpjk869ats9cK/qx79VU3i6c8NOy5Xfv21rp1azu5YUNr0qQJ7VclWL16tY25+Wa3Lb/a1W4aPZpt+ZE29HqZCq+VYRLE9ygdfFCArnbdsFZcptJ7PwAA6YQACUmVCh8i9WF+1syZbst4nx8KNW3a1GrVquVde7C9e/fapk2bbNvWrYeETZ27drHLevSwli1b2jHHHONdm752795tU3Nyim7j27PvtB49exK0Ia0QICUeAVJ8ECABABBOBEhIqjB/iIwONfzQR6FRRbeNV1vW5s2b7Y2NG23VqlWuNcunv7f/gAF2xhlnpF1gottl2TPPFM05UrvasIwMtuVHWiJASjwCpPggQAIAIJwIkJBUYfwQqVa1hQsW2j3jx7vLCngyR4yI6Qd5vx3u8cWLi8IkVTVdNXiwdenaNS2qkjZs2GB/HDfOVWfpdx+dlcW2/EhrBEiJR4AUHwRIAACEEwESkipMHyJVDbN40SK7LesWd1kzeH6fmWlt27Z1l+NFYVLu00/bwzNmuNk/cv2NN1qv3r1SMkjS76vfVdvyi37XgYMG0q6GtEeAlHhBfI/Sa+RLL75o55x7bmjfAwiQAAAIJwIkJFUYPkT6bVRTJk92AY6qYYZnZiZ81y//53h0/vyimUmpFq4sXbKk6HZWQHdHdnZoj7ADsUaAlHgEHfHB7QoAQDgRICGpgv4hcvny5ZbzwAO27pVXi4KjTp07Jz2wycvLs3HZ2UkNtGJJLRmTJ01y7Xqp8PsA8UCAlHgEHfHB7QoAQDh9xzsFEEGBRp/evW3woN+48Ehatmrldk5bv369ayFIJs0Ceio31yZOnuQua8j0NRkZ7ucOE1VVTZs6zc3zUHh0dcYwe2zxYsIjAAAAAAgYKpCQVEE7CqkAJnJL/l9c3NW+//3v2+5duw7Zal8tVud1ON/atmtrLVq08K5NvOiZQWHZ4n716tU25uabi9rVbho9Oqm3IxB0VCAlHpUy8cHtCgBAOBEgIamC8iEyOoRp0PBk+2nTZnb00T+01q1b2xG1atmJJ5xY8Iwx27Z1q61du7YoZPKpeubsc85J2nb72rVsxPDhgQ9kdu/ebVNzcopuP1VRBaEtEAg6AqTEI+iID25XAADCiQAJSZXsD5FqoZo1c1bRlvwKXnpcfrndfMMod7k4fuVRizNaWPXq1W3L5s325BNPHFShpOHWyahMit4pTqGWtv4Pwk49/hBwtdvJFf362rCMDKtbt667DKB0BEiJR9ARH9yuAACEEwESkipZHyL9MCNyZ7Wxd911yJb8qpbZt2+f7dixwz784APbtGnTIZVHnbt2sct69LA6derY+tdeOyhM0t+rAKdL164JDXHUindrVpb7OfQzjC44r7lJyaLqqD+OG1f08xR3WwMoHQFS4gUx6ND7165du6xevXqhrdwkQAIAIJwIkJBUyfgQGTl7x9/xq6ItVApo1rz8sq1atcoNf/ap4kd/V82aNe25vOds4YJH3b8jqri5+JJLEhqcaFv8ZFb8RLcGqjJr4KCBtKsBlUCAlHhBDDr0/qONB3KfXWaNGzf2rg0XAiQAAMKJAAlJlcgPkQqO7ps8uag6KFZhhkKSl1580R6dP7/o71ab2+8zM908JO3aNmf27KKgSV+7ok+fhM390c9378SJCZ85pPDKr/BSlVbmiBGhXewAQUCAlHgESPFBgAQAQDgRICGpEvEhMnpntXjOBdK/pcojf6ZSZLtWcV/r1fuKgj+9EtLelpeXZ+Oys4uGbN9RcD4eiw/9npHtc6rwYlt+oOoIkBIviEGHf9DinHPPDcR8u8ogQAIAIJwIkJBU8fwQGV15oxaugYMGJeSIrf7thQsWHjSc298Vzf/w71fniKqhLux4Ydx/Ns3OeOD+++PSUqa/O3IgeZAGeAOpgAAp8Qg64oPbFQCAcCJAQlLF40NkceFNvKptyhL9syjEum7kSBeqKHBRe1tkW12iQq7oKqGqDrWOrm7ywzIAsUOAlHgEHfHB7QoAQDgRICGpYvkhMnpnNQUZmkMUhN2+ItvoFNhE74oWPZ8pEUGSbq/ILf8jw63y0i51U3NyEj5fCUhHBEiJR9ARH9yuAACEEwESkipWHyIjBzb7c3eCGGREVuoUF9hou/s/L1yY0LY7hUDjxo51Q77LO7OouPAp0Tu8AemGACnxCDrig9sVAIBwIkBCUlX1Q2R05c7t2Xdaj549A10BEzmbSYHNpClTDmn3iqxYkkQESZHhVmm7pink+uO4cTFrfwNwqGsyMqxTp04HhbnRAZL/XHxw6lRmjcUJQUd8cLsCABBO3/FOgVBRwKIF1oA+fV2QoWHQa9a9av369w98+5QWetljx7p2L4U1Pbt1dxVUkRTc6Hu0TbNa8RQkadvmuydMcAFUPKil7rHFi11YpWok/Xtz58xx1UaifzdrzBj38/q3+VO5uYRHQBxc1qOHjcwcYX1693avd5H0XNRrgZ6LpzRqRHgEAACAhKACCUlV0aOQ0TN3wt46pYXh1UOGuCCptB3Roiut9L3x3P5flQ0jhg93P5cCrJ+3a2dLH3+8zOokALGh4LZ502bepcJdDbV7ooLnyB0cZ8+fR4gbR1TKxAe3KwAA4USAhKQq74fI6N3MUinE0O92S1aWq/rR73XPxIklVlFFB0nxHFqtBazCupz7H3CXj6hVy0bddKOr8gIQf9OmTit6zSuOWkifX77cu4R4IOiID25XAADCiRY2BJpCDLVRtWnZyi2kVA2jI+4P5uSkTAWMqogUGvmtY9ePHFnUNhZNlQaPzJzpgiMtHtXicnGXLm5+USzp3581c1ZReHTc8cfbf/futYdnzIj5vwWgeBd2vNA7V7yrBg/2zgEAAADxRwUSkqqko5AKMCK35FdYEr31fSryKw7KqkQS3UaRO6EpXLtp9OhDBnJXVOQw7ci/U3OaFFgJu64BiaEZSH7FYTTNfWP+UXxRKRMf3K4AAIQTFUgIHLVpXTloUFFYoWobDWtO9fBIhg4b6uYblVWJJAqX1E6mRaTmo2iRqaG6GnStWVEVpf9H/+/QwYUzmXS7q9rJD6S0G5T+LYVHmkF1XvuzDxn+DSC2rhoyxDt3MD0PCY8AAACQSFQgIakij0JGbg8v8R4UHWQVqUTyaSD35EmTXPgkpQ3ljhRdyVSe6qLoKqU7Cs4zVBuIPT0/I4dp+xienRhUysQHtysAAOFEgISk8j9E+lUt/vnrRo5M+6PrkSGSZj6Vlyq4xtx8c7la/yJDO33v2LvuKveiVAvbB+6/3+0MJeUNrABUTPQwbYZnJw5BR3xwuwIAEE4ESEga7T6m4dg+BUcDBw2ikiXCNRkZhe1sN97o2tvKS+GOZkj5bYDRu9bptr934sSi0O727DutR8+elQp/okOoSVOmVHkOE4AD9BxTe6qvoq8HqDyCjvjgdgUAIJwIkJBwCje0w1fkEfVFS5cQOhRDt5VmISlE0kwizSGqiOigSLOSfvSjH7nd1FShFB0sVZZ+zug2OKrIgNiIDtunzZieFjPhgoCgIz64XQEACCcCJCSMXxUTubOaToUPkSXTcOsB/fq526qyQZsqGG4dk2VvvvGGu3xM7WNt3B//GPNFqH7WcWPHusBL9+/wzMwKh14ADnVBhw5Fr5e5zy6jUjNBCDrig9sVAIBwYhc2JISGLl/cpcshO6uhbBpm/dD06e78iOHDXTVCRSi4W71qdVF4JJ9+/Ik9vnixG7wdS/pZNa9J96/o/lYbXmV2hQNwQJeuXb1zRngEAACApCBAQlxpoHOf3r2LtobX7A4FR6pKYdhy+WnBqFBGt+EtWVnetWXzgzu1C2q3NFUu+Fvxq0qoy0Wd3IBehUyxpPv3scWLi/4dbfk/d86cmP87QLpo0qSJO9VzCgAAAEgGAiTEhSpbssaMsQF9+rrhygqOFFxo8CvBUeUolPEDmaVLlnjXFk8VP7r9/eBO4dMjM2e6IEpzibLHjnXtcAqVFC4pZFLYF0uR/47a2TQf6cpBg1w7HYCKaXbqqe60adOm7hQAAABINGYgIaaihzYr8ChtZzXmIFSMbt/Le/RwodALK1e4lrFIFR1mXdHvryz9O5GD0zXM+3fXXkuYCFSAXi/ZcCCxeI+KD25XAADCiQokxISCDbVCaacghUd+u5QqUJjXETsKdrRNvmhYdSRV9qiSSGGQKn5mz5/nbv/SwiAFOP3693dhlHZk032n+7CsCqeK0r+j6jM9JvTYeChnqvtZ1WIHoHz0HK1fv753CQAAAEgsKpBQJaos0c5q/nBshQO/z8y0tm3bustl4Shk5dw9YYILYdSads655x5U9XV79p3Wo2fPSlX3KNAZl53tKpxitcV/cRRQ+Y8ZVT0Ny8g4pJoKiBf/dQfpo7LvMTxW4iuW7/3cV+HDZz8ACB8CJFSaQoDILfm1ZXunzp0rFFwQIFVOZCubL1aBT3QbYlUCqdJoTtPUnJyif0dhGFv+AwgSQon44r2/ajRvct++fbS1AgAShgAJFaZhy/dNnuyGY4sW/hUNjnwESJWjD43XDBtm/9y6zQ6vebhNuu8+69ixo/fV2FBL3Ijhw11IpcqyO7Kz41KNFFn1FM9/BwAqiveo+OB2jQ2/3ZyDLwCARGEGEsrNhRYZGYfsrMaW/ImjlkG1r2n7fYVH9RucZF/s+8IaNGjgfUfs6IjmU7m57n7W/R2vLf8VfOnf0WDteP47AACkkrVr17o/AAAkChVIKJOCo1kzZxa1GsVyZg1HIcuvuEodUeCiy/MXLHCX40GPgVuzslzAo3ZFDfKOR8m8qp7+OG5c3P8dACgP3qPig9s1Ni7o0MGdPr98uTsFACDeqEBCifyd1RRQKDzSjB1/ZzUGHieOZgWp8mvo4CEuPFLL4CMzZ7o2L/1RoKfARa2F8aJ/R/+m5iHpZ+jZrburhIp1lZDCouh/J2vMGPdYBAAAhfTZQO+T+qPzAAAkAgESDqFQYO6cOW4793vGj3fVLdoS/sGcHGbTJJB/P5zX/mx75ulcFxQV1zJ43ciR7lRzqeJJ/6a2/I/eil9VQ7Hk/zsvrFzhQkuFlxoYzpb/AAAU2rlzp3fu4PMAAMQTARKKKLDQQEaFArdl3eJaiKbNmO5ao8q7LT9iQ6FM5P2gAE+VX8ccc4z3HQfoOn9OUTyrkHyJqkZSlZtCS1VciSqwVInFkVYAQLrbsP7AwZvI8wAAxBMBEhwFD1cOGmQjM0e4y1q0a7BxrHf2QunUqqWWLYUyCmcU0uh+KCvA69W7lzuNdxWSL1HVSKKKq8cWL3YVWKrEUkWWKrNiHVgBABAWGze+7p07+DwAAPHEEO00Fzm0WFTJojCiuEqXeGCQ5gGq/vIDPLVuZY4YUaGWQc2rUsuhqpUSWTGmIGfxokWuWkoUevXo2TMuO/Pp8Tpi+HAXrvmDxGmrBBAvvEfFB7dr1eh9t3nTZt6lQhs3vRWX910AACJRgZSmtKuWX+mi8MifrzN02NCEhUcopPuiT+/eLjzy2wYrM28q0VVIvuhqJAVJqmbT7xVrGrKtiiy/ZU8D3uPRPgcAQFCtX7/eO3dAcdcBABBrBEhpRi1SWnD7O6spOPJ3ViM4SiyFHv59oTDk6oxhVWob1P2nvyNRs5CiRc5G8sOdeLSaKbBS0BndPseQbQBAOpgze7Z37oDirgMAINZoYUsTWsTPmjnLtTiJFt43jR7tKjqSKV3L2BV2jMvOjnkrlqp+FNwoGFQomCyRrWZqxxs9Zowbih1relwve+aZotY//d7alY4wFEAs0GoVH9yulacDgdoltzjavTQe77UAAPioQEpxWmD7O6spPPJ39NLOaskOj9KRdhDTTmLaUUzhioaV676I1Rwf/T3+1vfJ3K3MbzVTRZQ/+FqPw1hTNZKGbOtDs8Ij/d76YB2PfwsAgGTLffpp79yhnvjLE945AADigwAphanKRcFR9M5qbMmfeAry1M6lIEWBij9zSuFHrPUfMMCdJvuDpMKdG0aNcoGlgks9DjV3S0dPY01HXFVxpflR/r+luVLxmMMEAECyPDxjhnfuUAsXPBrztnEAACIRIKUgzb/R4tmvctHAYQVHCivYoSPx1M6lIE/DpRVuLFq6JK4zp8444wz37wTlg6QCS38bflUIXd6jR1y2+xfNj9K/5c+CitccJgAAEk2f7/S5zqf3+kj6GsO0AQDxRICUQvyd1Qb06esWzwqO/J3VCI4ST5U2/k53+lCn4dIK8uLdOqj7ulfvKwL1QVJhmUIzVcHp59JtMm3qtLgEO/q3VPmkoM7fFU4BXrxCKwAAEuGpJ5/0zpk7UKIDJqLPez6GaQMA4okAKQX4QUX0zmpsyZ8cCkU0g0ezeHR/aCaRZvRoq/tEBXmX/vJSdxr5YTMI/HlFCnY0kyte2/2Lgjp/Vzg/tIpXCx0AAPGk9y59ptD7pz7j6UCJ/xkvcmdStckncwYiACC1sQtbiOnDxMIFCw/aWS1Wu3klSqrtxKIw5NasLFcBptLy0QXnK7stf1WpjVE/h6rQghYkKmSL3BVQIU+Pnj3jFrDpfpk8aZL7YJ3s+wVAeLBbWHxwu1ac5lr+d+/eQ2Yn6raMvB11AOuIWrV4jwMAxAUBUghp8R25dbmCo99nZoZyOHaqfIhUmKfBlg/lTHWXVVr+u2uvTWrroD5sag6WBksH9YOk2sr+OG6cC7oSEYDqg/WUyZNdRZIqw0aPGcOWxwBKRNARH9yusRMdIAEAEE+0sIWMFsD+zmqqpNBMGbXpsLNa8iio0WBohUeRpeXJnjvVsmVLd/q4NyMhiPw2M81v8Idea0hovOjIrT/QW9VI2hWPIdsAAAAAUDYqkEJCi+r7Jk92i2xRcNSpc+ekhxRVFeajkJFtUaL7JB7b8lfFNRkZ7ucLYhtbND3Gx9x8s6sOUqCkmQ7xFPnvhbH9E0D8USkTH9yusUMFEgAgkahACjiFFAoBondWY0v+5FG1iqpWVC2jcEbVLP59EjSX9ejhTtetW+dOg0xVdLPnznWVdZqNpNs4nvTvaVe8yOqnuydMoBoJAAAAAIpBgBRQCo78ndX8kEK7V7GzWnKpakUthNoaXkGHtorX9vRBvU/C0MYWSfOI/BBJt3G8t95XCBu5e43aEHX/qi0RAAAAAHAALWwBE72zmgb9Zo4YkbKtNWEpY9f9cu/EiW4LXYn3rmGx5Lexbdz0Vmiq1rQFseYTKUhSlVAifu7o4fQKba8bOZLAFkhjtFrFB7dr7NDCBgBIJCqQAsJvi2rTspULj1QNMXv+PHswJ4e5LEmk+0WDy3W/KDxSoKdKsH79+4cmjGnXrp07Xb9+vTsNA1UiaaaU5hMp1EkE3Z9qQ9T9q/BI97fud93/AAAAAJDuqEBKMr/qIfuOO2zPp3u8awup+qJd+/bufNOmTa1WrVp2csOGVrt27ZTZejzIRyHVRnhrVpabj6P7YnTB+aBuh18a/R5qhbw6Y5jbHS4s9Nxo3rSZC1PnL1jgXZs4amMbl51dtOV/KlcCAigelTLxwe0aO1QgAQASiQApiSJ3VqtT90dWr159a3ByAzvssMPc17dt3Vq061pxtKht3vx0a9S4kQuYwhgqBfFDpNrVHp4xw83DEQUvv7v22tBUHBXngg4d3Onzy5e707DQHDBVAiXr8RH9WAhT6yKAqiPoiA9u19ghQAIAJFI1AqTE02DgP44bVxQOaReoXr17lTprRVUk+/bts+3vvGObN2+27du3F20fH0mtN61bt7YzC/6EIVAK2ofIyKqTVNraXbuLKQRRe1aYgsZkB0i+yOesqtEmTZliLVq08L4KIFURdMQHt2vsECABABKpGgFS4igEmjVzZtEg5lgM6dXfuWPHDtu6Zau9sPxvB1UsaaHbpWtXO/ucc+yMM84IZNVEUD5E6nacPGlSUSin+TtB3Ja/shSMDR08xKbNmB6qNrw+vXvbhx9+GIjKKbXULV60yO0OJ6pMu2rwYIZsAymMoCM+uF1jhwAJAJBIBEgJEN0Go+Bo4KBBcals0b/19ttv24b1G2zhgkddJY1PLW+X9ejhtnYPyqI32R8io0OBVN15y9/VTL9f9tix3rXBFtTZTZFhY5hnYwEoG0FHfHC7xg4BEgAgkQiQ4kjhxKyZs4q25FdL1E2jRye09UXBwStr19qyZcsOankLSpiUzA+RmkE15uabi9rVEn3fJJrmIOl3DcMHTT13rhw0yFXU5T67LJBthNqdzd/yX8+n0WPGpMxwewCFCDrig9s1dgiQAACJVI0AKfa0+NXOalMmT3YLdlUpjL3rLmvbtq33Hcmh6qR169bZ44sXHxQmqcJDbW7J+PmS8SFSt8O9EycWtRKmy2DksMxB0vPn+pEj3WNU902//v29rwRP9GNJrY+dOndmyDaQIgg64oPbNXYIkAAAiUSAFGORQ5gVHA3PzAzkgtIPkx6ePr1obpJ+3l69r7BLf3lpwgKGRH6I9IM9v2pE7VzDMjLSpmokDHOQ1B529ZAh7vkTpna76Gq2VBm+DqQ7go744HaNHQIkAEAiESDFSOSW/KKd1QYOGhiKSgS1uT3xlycOmpmkxfvFl1wS96qkRH2IVDBxa1ZW0S5a6Ti3xp8ppMfm0GFDvWuDQ8+hAX36uvNBrzwqjgLKB+6/v2jWmSr7fnfttVQjASFG0BEf3K6xQ4AEAEgkAqQq0qI8cme18mzJH1RaAK9fv97mzJ5d1OIW7yqqeH+IVKVV5ADzMAV78aDbWxUy8xcs8K4JhsjwaPb8eUlv96yK6LAyCO2rACqHoCM+uF1jhwAJAJBIBEiVFD37RBU78dpZLRn8qiR/ALjEIxyL54fIyHZC2ooKZY0Z4x6zGze9FZgQzQ+PUilsKa5dMhV39wNSHUFHfHC7xg4BEgAgkb7jnaKcFBxNmzrN2rRs5RbiCia0S5RmtaRSOKG5QGpzUtCgwcBa3CtM0u+tYcyqsggq/WzXZGS4eT+in18VN8ykMWvatKk73bVrlztNtrlz5hSFR7Pnzk2ZSh2Fc926d3cDy7VDm14r9NzRzm0AAAAAEEYESOWkigIt/rQIVJCi4EitNqkeTPgL4eeXL3e/r35vtYNplo6qWYIUJOk+Urinn00teKr6eGzxYvfzo9CPTznFnb715pvuNJl0X92WdUtReJSKw8z1Oz2Yk+MGl+v3VEWSws0gB7AAAAAAUBxa2MpBwVHklvzauatps2a2betW9/W1a9e6U9mzZ0/R/CCFLac0auTOi6o/atWqZc1OPdWOPfbY0LazRA8Mr0r7XqzK2PUzRe6CddPo0daiRQvvq/ApuFDApgHPN4wa5V2bWAr6xmZnF1Xw3XPvvWmxE170PC4NCu/Rs2fazuMCwoBWq/jgdo0dWtgAAIlEgFSK6KDkvAvOt8//8x9b98qr7nJJFKjIqpUri3Y1K47CqHbt21vr1q3tzII/YVtEK4yIHCBemSCpqh8iNatpak5O0c/Aorxsus3VVqXKmERTiHJLVpYLWfUz3DNxYtrdVxs2bLARw4cXBdKTpkwh7AQCiqAjPrhdY4cACQCQSARIxVAwMm7sWHtp+QveNQdEhj7Hn3CC1a5du1zVRKq60NyZffv22fZ33rHNmzfbuldfLQqnRH93r95XWNt2bUO1oNTtNXnSpKLKK1W3XDV4cLkqrCr7IbK4IcWqDEuHSpaqUguV7qtEf+BU2DegXz8XnKT7Fvd6/C5etMi18ElFnjMAEoegIz64XWOHAAkAkEjVCJAOeGPjGzZhwnhb9dIK75pCWtz9rGVL14IW64BCFRlvv/22rXjpJct9+umiiiW19lzRp4+dc+65oVlURldslWfL/Mp8iFQFxx/HjSvaJn10VpZ17NjR+yrKoiHoaqPSgOdEBW7+TmuiKrF+/fu78+kuMnzlsQwED0FHfHC7xg4BEgAgkQiQCvxz2zb7w21/sFUrDgRHl/fu5YYvn3HGGQmtklA4osoaf06KxGP7/HiKDJK0KB6emWmdOncu9nasyIfI6Bky5QmocCjN9FLl1qKlSxJS6aZh2Ro8r8dCqmzTH2v+fSJU0wHBQdARH9yusUOABABIpLQOkN577z277ZZb7W/PPecu16hRw64cMjgQrSR+i9aj8+cfVNETliDJ//n94eOqqPp9ZuYh4UF5P0RGDjLX33VHdjbb8leSQsqe3brbxMmT4rpDXeS8o3Qall1Zur3unTixaJ6X7p+SglcAiUHQER/crrFDgAQASKS03MZfO6VpC/pz27V34ZGCo+Ejr7N1r29wO1MFIaDRolGL+/kLFhRtn68qjjYtW9ncOXNcQBNk/s//VG6uC74UgqmFSbe7ZuGUl1p8NLPHr87Qolq3CeFR5dWsWdOdvv/+B+40HhRSXd6jhwuPVFHzyMyZhEdl0OtO9tix7vmuai095q8cNMg9BwAAAAAg2dIuQNLC9hcXXeSO8n+n+nfc4lbB0bUBHuirqh0/SNLCUoN3L+7Sxf0uQafbdOiwoW7ejm5r3e7ntT+7zBBMX1Prk7ac90OIxxYvjmvFTLrww7ddu951p7Gm+1YVTqoWU+CnUIQqmvLT813Bq2avKXjVc0DPhaCHxgAAAABSW9q0sGnx9cD99xfNz+ly8cV285jR9qMf/chdDgv9HpG7NylYuW7kyFDNRxpz880uXFAY5g8Njyy/jvweVV7dNHo025zH2AUdOrjT55cvd6exENmypvv2oenTqRSrIlUf3Vpwm/rzxJghBSQWrVbxwe0aO7SwAQASKS0CJFXqjBg+3AUSnbt2scwRI0K/sFUb2LixY91iXeI9zyaWokMwWbPuVXf91Jycohkw2q2rR8+eVK/EgVoJdTvH6kNnZOinUHNMVhb3W4yEPTQGwoygIz64XQEACKeUD5DUTuMvvFJx+/C8vDwbl51dVK0TpuHSCsHUzhZNC2R2oYovf2e03GeXVenxEl3ZF6YgM2wiQ2NVI2l3Q25rIL4IOuKD2xUAgHBK2RlIWtiqykLhkRZbWiinWngkHTt2dLOBwjgvpbiA6PSfnWEDBw0iPIqzOnVO9M5VntqrNItL4ZHCS825ItCIHz0nHszJsWkzprvLGrKtAfMM2QYAAACQCCkZIOlI/fUjR7oWHbWsaSBtKs9iUSuLdo9btHRJ0W5tWtirrSioNC/n7gkTvEtmGdf+zq4aMsRef229C8HCsNNcmB1Rq5Y73bGjcAZVReh+0f2j+0mVb6rsY5e1xPFDY1XqqRqJ5wsAAACAREi5FjaFRwP69XMLW20fP3DQwLSaxaJF5LJnnina9j6I7WBLlyyxKZMnu/vI55exR86rCltLXpioakXBQ0VbziKHOnP/JF/084WB80Bs0WoVH9yuAACEU0pVIEWHR9o+Pt0G+er3VSAQvW2+QptkVygofFDLjR9uKbyIpsVv9Bbmqq5AfLz//gfeudJFVh3pfvGrjgiPkst/vuj+0P3Ss1t3V9mnCj8AAAAAiKWUqUCKDI9mz5/HVteeIAzZVvgwa+Ys11onCoeuGjzYtd6VdhQyeve80WPG0CYVQ7rtFTJmjx3rXVM8qsLCIbI6THPfRhecV7sbgMqjUiY+uF0BAAinlKhAIjwqmRaQqlBQRZZf0ZPICgXNYdI8JoVHCh80p0nzmsqzBXlkNZJmvfiVVEgMf06Vqlr03KLqKNh0v8xfsMBV9un+Gjp4iNtIQK+PAAAAAFBVoa9A0iL38h493IJJuxNxxL1kiaxQ0KJ1ak6Oa6ETLWo7de58SEtheY9CKogac/PN7n5W1cx1I0eWK4RCyfr07u0eC8Xd9pFzqlT9lTliBMFRiOh18d6JE8t8/gEoHZUy8cHtWoKvd9mav+TZ2jdW2qL/y7Od+73rrbr9sFVPu7Ln2dai7QXWvuER3vUAACRWqAMktUZptzVVp/gzj1A2hQP+HKJYt4ZVdIh3RT5ERi6KFYBNmjKFgcFVoOoU3ZaRt71CxsmTJrnnlG7j4ZmZbM0fYkFoYQXCjKAjPrhdy7LPNk0fbJeOLdxNt0bne2zZgz2s/mHV3GUAAJIl1C1sD9x/P+FRJSgQWLPuVRfu+K1hsdgGXLNyrhw0yIVHCh/UTqj5OrEKp1RxpL/Pb9FRa9W0qdOq/HOjMPjTbakWRz0m9NjQVvGER+Hmt7BGDqXnOQMAQfcdO6yG/xG9qf3mygsJjwAAgRDaAElVNA/lTHUVNNqqPx7UhqWKDP9PKi26/DBGIY/CntuybnHhj0KgilJlkKpZFOhokapAT4vWeM2iUqiR++wyV1Gh2UqqQmPOS8XVq1ffnU6bOvWQOVV6bNAimBrUtqa5Y5HPGd3fagsFAARQ/kf21up/FJ6v2draNP1B4XkAAJIslC1sCnN0JF3Bh6okYrHQVTi0fv16W/HSS7bu1VddEFIShVYnn3yy/axlS2vatGnodwbT77540SIXIklFZgxVdVZOVcrY9XOrCk1Boh4LY++6iwHqFTBlyhS7f9Jkd95vV2NOTmqrynMdSEe0WsUHt2sZ/rPcbvn5b2z+PrPqnSfZ8mndrQ4FSACAAAhdgKQFkI6eK7BQpURVZ+AojHou77miLeYrQ4vvXr2vsLbt2oZ6Jo9ui/LOv9H3Rg7kruysnFh8iNScF+04Jap+UkUaIUjJogec//o3g+x3115LiJBG9BgYN3Yss66AMhB0xAe3a2nybd/Ksdau38O212pZ63FLbF7fU4z8CAAQBKELkLStuCpOtKV4v/79vWsrTkHUrJmzqhQcFUctIlf06WPnnHtuaBfkpVUVRd9umq1y1eDBlf5dY/UhUgvi66+7zgVasR4Mniqi77vKVIwhtUQO2eZ5AxyKoCM+uF1Ls9c2PjjQLrt7XcH5NnZj7kwb0pSDYgCAYAhVgKT5PJqzo4XOgzk53rUVp79nxPDhbtFUGv07Rx99tHfJbM+ePe6IfXmpGqZX716hDJKitwFXYKfb4p6773a3m4Kym0aPrnLFVSw/RCogiWxpY5e2QrpdtDOeHwrqvvt9ZibtfnCKe6736NmTKj6gAEFHfHC7luLbt23WZT3szg37zOpk2Lznrrc2Nak/AgAEQ2gCJC2C/da1F1auqPRR8sgt7KNpYX3VkCFlzjVStcvOnTttw/oNtnDBo2UGUWEOkhS2/eHWW23jhte9a8ztgharWTnx+BAZ2dJW1Uq1sNOg5DE33+weo36rEnOOUJzIYD1WATEQdgQd8cHtWrL895fYsLNHWN5+s5r9/2QrsjsYI7QBAEERml3Y1HqjhY3Ci8qGR9q+urjwSJVG2qFo/oIFbtvrsv5+fV3VG0OHDbXnly93gZZCIi3Qi6OWoTYtW8Vkq/xE0s/6xsaNB4VHsnbt2kD/HroPdX/q/tCwYO0QF6bbPRYUHPXp3dsG9Onrnjf+zniac0N4hOIoLNJjRKGrWkFV7amW4XR77gBA8uy3f7/xsr2wX+dPtAvaNbEj3fUAAARDKAIkDWxWCKOj4qqeqAyFN8XNO5o2Y7prh6vKHBgFSgqTtPjStvj6OYujMCMs22erGkHb+utnVhCj30tBmcI2tbooEFM1V1Dp/tQOff7Pq98lHbb613PFD44UAig4WrPuVff4JDhCWfQYUcWev+W/2kH1mqWqPgBAvP3H3lq9xr5255tam6bHMjwbABAooWhhUwWJQoDK7rqmwEYL6kguFJk7t9LVTGXRv3nf5MluEV+coG6fHT0PRQFE9K5mkYN3tci8o+B8ZQO4RJSxq/JM4aHu81Td6l/B0ayZM4vuNz2+Bg4axIBsVElky68eU8MyMuL2mgkEEa1W8cHtWoL/bbCci39l92752qzJaHsid4g1re59rdLybf8339p3DqtOGAUAqLLAVyCpEkaLYi1eKhMeqepEM2AixTs8EoUUaokrqSJJv9PlPXoE6si+Fov6mfSz+W19xVWuqEVM1VbagU0BWZeLOrmQJqitLvoddD8o8FKQGOTKqYpScKSAVfeB/zzR/ZY9dizhEapMLY+qPNTjSo+v89qfnVLPHwAIkm93vGbPKjyy6lanS0v7cZXDo6/so3XzbfS1823rt95VAABUQeADpD+OG+dOVU1RGeMKFtIKDiLFOzyKpCDpkZkz3eymaPq5NOxZAYAqf5LFb3vyKw30s5bV1qdQ6YZRo4paXVThE+RWF90P/lwk/Z5hn+1CcIRE0WulHldq9/WfP3q90GMQABAr/7Pd61+2t9z5utbhZw3se+58ZeTbNx+tt0V3/sa69Bhji977xrseAICqCXSApDYwVbhocVyZRbGOlEdvu69KlES3YChs0ZF8zaLR7xJNAYAqf1RtlUgKUFQ5pBBCt7MqijQ3SD9reel+8QOyyEAsiPOG9LP6c5E02+X6kSOTGtxVBsERkiVslYcAEC7/tn+sed3c/OwabazdqT9011ZU/pc7bdXsB236yv9ao7N+ZnWrXMUEAMABgQ6Q5sye7U4rU32kYGDK5MnepUJa+CRz/o3mHUUeyY+k8EW7HmnYdyKoUkgVQ/5wcs2XUkVRZWYy+QFZca0uQVtc6ve7Z+JE91hQuKjgLgzDtQmOEAR+5aFeLyIrDxMdfgNAytm3xf7+1/cKz7f8mTWtfVjh+TLttz0v/Nn++r5XZbS/lv3kVxk2rHt7a/Hz1nZ65cuYAAA4RGADJC2YtcAvrfpIIVFJi/+FCxYe1LqmwOZ3117rXUouHcn3K2GixXvbed1e+vtVKaTbR5VDqiCqzHypaH6ri6q8/FYX7X4WtMWlvwjWduW6DQb06xfYnfH0c12TkUFwhEDR64VeN/znkMJvva6EraIPAIIh3776x1pb9rnO17BGHc+w+uWdeP3lW7bo+Rp26omFgVO1I46xY78f+AkVAICQCuw7zJLHH3enpVUfffLJJ27xHx0iaRETvWX/6KwsFxwEhSphNGeouNlICgpive28AilVN6kyyA8i1FKnyqFY3y6q8lKri3ZwU6uLFpeaORS0xaW2K48crh2k+U0Kjvzt+P0gleAIQaLXDT2HVHmoMFyvK6roY8g2AFTUV7bz9VfsfXf+p/aLVvWtXJ1n+f+21x+5z1ad1sLqscUaACABAhkgKWjQjBq1SJS2WK5Zs2ZRBUlkOKHqo0j6e1T1E0QKcBQMRLe0KXiJVWWMKoAUSKm6Sf+OQhMFEZVpVysvLS61+5l+N93+uj+DtuucRA7XVlVWMn8+hXxafPvBkT+XiuAIQabKw8gwXJWHqpoLQ2soAARC/vu2YXnh+Gyzk63hj8pxYO+bT+z1WWNs8IT91vHMH7FFPwAgIQIZIOU+/bQ7vWrIEHdaEn8YtkKkW7Ky3AJcf6Krj36fmemdCyYFA6rYiW5p8ytjKhsiKVRTW4kqgBRGqN1E/04i50Dpd5u/YMFBQ7aDtrjUz6id+fwQKdHtbLqfVB2mWTJafOu+UvWWKsTUakdwhDBQGK7WXFXLqWpO1Y56XMerHRcAUsN+27txmf35pT3e5a326mvv2pf53sVI+V/aZ7u32Lq/LbRJ11xhv/rD0/Zpi3OtdQMGHQEAEqNafgHvfGCoAkOL6I2b3iqzvarRyQ29c+YCmMt69HAhgE+hwPPLl3uXCmnBrr831q1bsaBdjaIDMFGgoIqe8lIli4aIK7TR7ZI5YkTSgwjd7vdOnOhaXUSBlqqiZOv2d9xpMik4UmAnqtKKd9CmOV/P5T1XdH/rsTo8M9POOffcuFaHAfGmqscRw4e71x9VIN40enRM5qwBieZ/xgjCe1Qq4XaVL23Xy09Z7gurbNn8pfbaHrf/WgXVtOZ/WGyLBv2k+CPC/1lut/z8Nza/8W2W+/gga8xoJABAFQUuQNLCQxUz5Q1MIgMkOfFHdeyD9wq7yEWVL1qQv/3227Zh/QZ7Yfnf7MMPP3RHyoO6SFcbVWQI5ivPbaJQ4tasLBfAKZDQ7Kegte9FLi59QfkQGRkiKeDq0bNnzING/RtPPflkUZCmBbaq7dq3bx/IUBOoDFUezZo5qyggVTumNjLgMY4wIeiID27XBCFAAgDEWODeSlavKmwfatuufNUfapeIFBkeyez/+z9r07KVCwW0kFGwMmnKlEBXeCjw0TbZCoAi6edXhVJxLSG6Tl/Tbl36HbVYU0gWxNlPqkRQK50CGl9QdnBS1ZGGAivUUXWUZkfFoqVNv1vkfCN/kLkqndTip/uJhTVSiR7P0XPQ1KYZtDloAAAAAMoncBVIF3To4E6j285KouDBr+QoD1UkaVZHGGhOkAZpR1bqiFrS7pk4sShw0IJsXHZ2UbvIHQXnwzI3J7KCzG/hCsL9E109odv1ij59KtRepvtv06ZN9vjixW4mjE+VZBd2vJDZRkgrClA140sUnl43ciStmgg8KmXig9s1QahAAgDEWKACpIq2r0lFAqSKzhEKAoUQ1193nasqiqQQSQswzRTywwmFY506dw5VJYv/IVI/e9BmNokqh7Srnx8kicKkUxo1statW3vXHPD++x/Yrl3vHvKY9OdztWzZkkUz0pZez6bm5BQ9P8IU6CM9EXTEB7drghAgAQBiLFABknbsUduQ2rfKO3DV/3/KEl21Eyaqhrl+5MiDqlgihflofuSHSIU1D8+Y4VpdRIHfwEEDA3Gf6Wdbt26dvVbwR7sERleFRVPI1LJVK/tZy5aERkCUMFdNIr0QdMQHt2uCECABAGIsUAGSv/taRT5QRLZFlEStUUEeml0eJYVIN40ZbYOHHDpwOyyK+xCpSrQ/jhtXNAh87F13xX1HtIpSoPTJJ594lw7GQhgom17THrj//qLAOF5D64GqIOiID27XxMj/6Gkb0e4ae/LkG+zxp4ZZ8+9W874CAEDlBOZYhBbk/vDnWHto+vTQV4BosXXkkUd6lw6YN3eu+1oqUfXZIzNnugWlKhQ0dDooQ7Z9ejwpKCruD4CyKSi6YdQoV3GqKiRVkmrItgJkAEAl5e+xTXlP2NIlc2xy1iTL/brgui0z7Y47/p89tmSJPfHyLtNVAABURmACJG2zL2r5qYjjTzjBO1e8aTOmh35Rryor7ST32IKF1uHCC7xrCylgWfbMM96l1KHFZb/+/d2OaGrR08wU3Qa6LVItMAPSWXRgrDl4QQuMASA0qh1tTTteat2697cRDz1rb29/x7ZuX2N/zr7aLu/e3S49q57V8L4VAICKCkyAtGF94VHnpk2butPyql27tnfuUJqhE8Rt7Mtry5Ytrq1PLXpq5VIYNuPhh93g2Uj6eqouturWrWvZY8e63123gX5Xba2v2wZAavADY235r3l1Cowv79GDLf8BAACAAAlMgPTC8r+5UwUGFbFjR/HDjLUICduOaz5V2Nw9YYJ1uahTUVufZjj5YZh2WlPLRyTtFJbK9Ls/lZvrbgvdJrptdBtRjQSkDlWLPpiTUxSSDx08xK7JyHC7twEADuXPkwIAIBECESApBFAooFalivrv3r3euQNUqaId18JIR9w1B0SDZRUS6Yi85oREznDS0frfZ2Z6lwppm/lUX2T5M1N0m+i20W2k24oqBSC1aGt/heZ6T9DGAee1P9vtuElgDAAAACRPIAKkXbt2udOKtq+VZHhmpgsbwkThj46064i75oDoCLzmgpQ0v0m7kkVXIU3NyfHOpTbdJrptdBvpttJtppkpVCkAqUOhudpXZ8+f5w4KaMg27asAAABA8gQiQPLb0E448UR3WhGbN2/2zhVSqKKj12GhI+o6sq4j7DrSriPua9a96n6HskKwO7KzvXOFNDckXRZXum10G+m28odsU6UApB6F5Wpf1Uw72lcBAACA5AlEgOS3oTVo0MCdVsRnn33mnSt00+jR3rng03bVasHSkXUdYdeRdh1xj2xXK40qcaLb/p7Le847lx5KqlJgK3AgdSgw1kw72lcBAACA5AlEgLR27Vp3Wq9ePXdaWQpTtCV00GnHNLVcabtqtWBp+2odYdeR9ooaOGiQd66QZiGl4/bX0VUKum1VpcBW4EDqKKl9lec5AAAAEH+BCJB8lZlbpNYl37CMDO9ccC1dssTatGzlfm7tFPfCyhVu++rKzmzSgip6FlKq78hWkuKqFNgKHEgtfvuqXjv99lW9puq1FQAAAED8BCJAWrVy5SEhSEWp8qRu3brepeDRbKI+vXvbyMwRrtVq2ozpbrvqWPzM0TuyLVzwaFrPB1GoNn/BgkO2Amf4LpA69Nqp9lW9luo1Va+teo3leQ4AAADERyACJLUinNKokXep4rR4GDhooHcpWBTkqJVKg1/VWnV1xjDXatWxY0fvO6ouekc23Z7r16/3LqWv6K3AdR8wZBtILXot1fNcr63+kG2e5wAAAEDsBaqFraL8I81B3bZfrVMa9KpWKgU8aq26YdSouPysV/Tp450rNGf2bO9cevOHbC9auqRoyLbuE4ZsA6lDz3O9tup5rtdanucAAABA7IU6QBItFoK2bf/u3btdy5Rap1QNpFYqtVSptSpezjn3XO9cIVXcMFj2AA1XV+WXBpbrPtGQbYbvAqlFz3MN2eZ5DgAAAMRetfwC3vmkaXRyQ9dmpEqRilAF0r59+wKz85paJhYvWuSOfot+p+tGjiz3tvxVpVY5VTv5NBsklq1y8aD7XrZuf8edJoICvnEFjzWFbKpKUgVb0EJIAFWj94fJkyYVPc9HZ2UF/vUQseG/rwAlSeRnjnjT4z2Vfh8AQLCFugLp2GOPDUx4tHr1atcyofBIixW1UigQS1R4JGefc453rtDjixd75xBJw3c1wFwBmzB8F0g9qvjU8zx6mL4CZAAAAAAVF+oKpCBQa8S9Eye6raRFrRM9evZMykwmVUA1b9rMu1RozbpXExpiVVQyKpAi6f57eMaMosot7eangexBnKkFoHKiX6cVKnXq3JnneYpK9vsKgisVHxtUIAEAEin0M5CSRWHN0iVLrE3LVm5R0rlrF3th5Qrr179/0hYl+ncVxEV6++23vXMoTvTw3XvGj3eVZKooA5Aa9DzXAYrZ8+e5ClFVHV45aBBVhwAAAEAFECBVghYdWnxoEaLFiFqh1Cqh1qhka926tXeu0Ib17EJUHv7wXVUmaPjugD593fBd2l2A1NG2bVs3TF+Vhv6W/5odx5b/AAAAQNkIkCpAbRBabGjRocXH1RnD3GIkSINZm516qneu0MaNr3vnUBZVcGmYtirJVMmlyrLz2p/tKs1YYAKpQc/zocOGWu6zy1zVodpXqToEAAAAyhaIAEkf4letXOldCqa8vDy7vEcPt9jQz6vFh1qfgjZDQ4NjI2kHIlSMKsnU7qLKMtpdgNSk18riqg7Z8h8AAAAoXiACpFMaNXIf4INIoYF27tEOPvoZtdiYv2DBIUFNkCjgikQbVuWoskwVZqo0o90FSD2RVYeaY6eqQ821U9UhAAAAgIMFIkCqV6++Ow1S0KGQYO6cOS40UBWPWpq0o5kWG0GnQC7Svn37vHOoKC0wVWkW3e6iijQAqUFVh5pjF1l1qAMHVB0CAAAABwQiQKpT50R3GpSgQ7MwFBLclnWLW0xohy61NAV5O/xITZs29c4hVlRxpsozv91FFWlaYFLdBaQOVR0+tnixqzrUgQMdQNCBBKoOAQAAgIAESCc3bOhO33rzTXeaLJp9oRkYmoWhkOD27DtdC5N26AqTWrVqeecKJft2TSWqQFMlmirStMDUkG0WmEDq0IECVR3qwIEOIOhAgg4obNjAjpYAAABIb4EIkGrXru1ON2/e7E4TTYt/zbzQ7AvNwNAsDM3E6Ne/f+CGZCP5tMBURdrs+fOKFpgass0CE0gdOnCgAwg6kKADCj27dXcz0BiyDQAAgHQViABJ8ye0EF/36qveNYmjGRda/GvmhX4GzcDQLAz9TEBp2rZt6xaY1994oxuyzQITSC06gKADCZqBpgMLmoGm3TiZgQYAAIB0FIgASdq1b+8W4YlafOvf0WJfMy7072rmhcIAzcAIu+hKrmannuqdQ6xpgTl02NBDFpjs4gSkDs1A04EFZqABAAAgnQUmQGrdurU7ffvtt91pPOnosRb5WuxrZy0t/jXzIlXa1T777DPvHBIlcoEp7OIEpJ7iZqApLGYGGgAAANJBYAKkM70AacVLL7nTeNBiXot6HT0WLfa1s5YW/6lEc5wi1atXzzuHeNMCU7s4+QtMdnECUkv0DDSFxWqDJiwGAABAqgtMgOTPQcp9+mnvmtjR4l2LeC3mtajX4l6LfC32U030IGdVWDEIPLH8BaZ2cdLt7+/itHr1au87AISdPwNN7c9qg9b7i9qiCYsBAACQqgITIEmv3le4+RKx3M1Ki3Yt3rWI12Jei3ot7rXIT0WrVx0cUpzX4XzvHBJNuzg9MnNm0S5OA/r0tawxYxiyDaQIhfNqf1YbtN5f1BZNWAwAAIBUFagAqW27tu40OgSpDC3StVjXol2Ldy3itZjXoj5V6Xe+Z/x471Ih/zZFcvi7OL2wcoUbsq32wjYtWzFkG0ghaoPW+4s/ZJuwGAAAAKkoUAGSwh21sS1c8Gil2wD0/2lxrkW6FutqV9PiXYv4VG/lWrhgoXeukI6Ip3JgFiZq0dSQ7WkzphfNTenTuzdzU4AUofcXtUVHhsXsyAgAAIBUEqgASa4aPNgdwV2/fr13TflpMa5hplqca5Guxbra1bR4T3X63aOrj36fmemdQ1B07NjRzd+KnJsybeo05qYAKSIyLBZ2ZAQAAECqCFyA1KVrV3d63+TJ7rQ81Cag4aVajGtRfv2NN7rhplqsp4Pdu3fb1UMKd5bzqfpIQ14RPJq/FTk3RcGf5qbk5eV53wEg7CLDYnZkBAAAQCoIXICkxbXazhQEleeIrdoD1Cag4aVajGtRPnTY0LTZeUzh0YB+/VzVVqQ7srO9cwiq6LkpQwcPcXNTdJ8CCD8/LNbmDaqK1WYOqpKN5UYRAAAAQKIELkCSgQUfsGVWweK6JAqX1Bag9gDRInz+ggVuUZ4udBsUFx7ptkin2yHMIuemKDjV3JTz2p/tglEqFYDUoFl0qorVZg46ONKzW3dXNcuQbQAAAIRJIAMkhR+qJtJiOroKSYtqzYxRO4DaArToVpuAFuHpQreBWiF0G0SHR2rfS6fbIlVobormdUUO2ValAnNTgNTg78gYueW/qmdpXQUAAEBYBDJAEn8AdGQV0urVq92sGM2M0QdwtQVo0a02gXSg4EiVKboN1AoRTeGR2vcQXpqbokoF3Zf+kG0qFYDUoQMkqpaldRUAAABhUy2/gHc+cPShWlVIM+fMtr8WLKp1XtQG0KNnz7SZc6TwIPfpp+3hGTMOqTjyaTESxsqjRic3dKdbt7/jTnGAqo9uzcpyQZKqkkYXnE+XwfBAOtBr+70TJxa9t+l1vFPnzmnz3hYvvK+gJKn42NDvxGMdAJAogQ6QtIBWBYZP7WrDMjLSZlv+t95805YtW+Za9UqiSiwNzA7rzCM+6JdNVWf+rK/OXbvY6DFj0uI5AKQLtbGNK3gd1wGCsL+mBwHvKygJARIAAFUT6ABJ1L6jWRGDrvyNZd16q3dtavDn2+zbt8+2v/OOvf/+B7Zx4+ulBkaRUuFoNR/0yye6UiHdqvCAVKcW5Qfuv9+934naWAcOGshzvBJ4X0FJCJAAAKiawAdIWjhr0KhoWHbY5x1pjtOAPn29SxWnVqarBg+2Ll27psTsJz7oV4y2/x4xfHhRpcJNo0e7HZ4ApIbo1tWxd91lbdu29b6K8uB9BSUJ82ND1cgSfeAwMkBSEL3smWfceTZUAQDEQ2CHaPsUkgzPzHQLZlVghN2/PvzQO1cxV2cMs9nz57kBy9rJJ10Gh+NgxW0HrllhDNkGUoNa1x6ZOdM9x/W+pwMOPMcBnHPuuUU7tOpgUjRdp6/pe/S9AADEQ+ADJNFRFM1+UftOumx5rN9XLQwKjTZuestuGDXKHYWmnQF6DPjbgfvPC1Xp+UcnAYSb/xx/YeUKnuMAHB041CzQ4g4e6byu09f0PRxkBADES+Bb2Hza4nhAv37uiKw+VId1iLBa2J568knvUqGjjjrKmjRpYsefcILVrl07rYan0mpQdVpUTpk82T03tNjMHDGCAbxACokcss1zvGy8r6AkYX9slGcMgg480vYKAIiX0ARIog/RQwcPcR+g75k4kWqcFMAH/djQUciHZ8xgAC+QovQcZ5B++fC+gpKkwmPjgg4dXJhcHM1Ne375cu8SAACxF4oWNl/Hjh3dwli7lGm3GgCFVK6uNsdFS5e44dr3jB9vF3fp4o5WAgg/Pcezx451z3EtEm/LuqXEWSgAUpc2UilJaV8DACAWQhUgiaoqVIGkSgvmQQAH05BtBvACqau4Qfp3T5jAcxxIE9qFtySlfQ0AgFgIXYCkcv3RBQtiHYHVThNUWAAHK24Ab5uWrQhcgRThP8c1SF8VhzqgoiHb6bLJBJDO/GHa0fR+z/BsAEC8hS5AEg3Qnj13rjuvCgtK+IFD6XnyYE6OTZsxvShw7dO7t23ZssX7DgBhpkHa8xcssImTJ7mKQ80IVMWhNp0AkLouvuQS79wB/QcM8M4BABA/oQyQxIVI8wuHiY4YPpwPzEAJNDtMLS9XZwxzLS9dLurkWl6++OIL7zsAhFm37t1tzbpXXVWCKg7Pa382FYdACitul7UzzjjDOwcAQPyEahe24vhbmqrCQlVJYd3eP77y7Zt/b7UVBQuK59581z7c8x076cIBdvWvWtpxh1Xzvic52C0nsVR9dGtWlguS9JwZXXBeAROAitFz6eOPP7Z/ffihd80BzU49NWnb7Edu+a/2tjsKzqfblv+8r6AkqfTYuCYjw20qI2pfU8UxAADxFvoASSJDpIemT0+7D8ul2297Ny227Mn/tHNG/tY6NznaDsvfY+um3GQz6t5gU37VyGp435kMfNBPPFUeLXvmGdfSJqpaGFbwQZTwFSiZqlxfWbvWli1bVrRoK43ej3r1vqLgT6+EzyXRc1w7lWo2kmj3Um1AkS5b/vO+gpKk0mNj7pw5bjdG0XN86LCh7jwAAPGUEgGS+CGSqLWtuPLe9JNvX25+1DKHrbGOM8bZ5Q0PLB7y35lnfXu9Y797/mZrf2TyOhn5oJ882rXp3okTXcuLaI5Kp86d02aRCZRFz5GXXnzRHp0/31Xt+XS0v3nz061R40bWoEED79pCqkrasH6DLVzwqKsCSuaBjeiKw0lTprhd3FId7ysoSSo9NvjcCwBIhpQJkCTyzVSLYc2FSGf5n6+1+/pdZ+uveMT+X9/GB1cafbPOJrceYZ9MWmR3dqjtXZl4fNBPPj1vxtx8c1HLy02jR6fFIhMoiZ4TTz35ZFG4GkmzhspTURRd6adh9sloF9XPsXjRoqJKBVUcXjdyZErv1sT7CkqSSo8NBdzaYVW06ypVxACARAjtEO3i6OiL3kR1pFUf2rUbTdruOJX/qa2dmm33//dyu/ayktrUdtuLb75n+71LSE963mjItkrgVanQs1t3N2RbH06BdKHHu1pCLujQwR2IUHikSiMFPwqNfOUNXlTJp4MYi5Yuce9J2iFt2tRp3lcTx9/yX++N+n30e2nLf4ZsA+Gm1yK9tugP4REAIFFSKkASvYk+tnhx0W40/o5T6bUYzrevtzxhkx7aaqde0dGaH17MoOz9X9v/vt1v/9r+of3HuwrpS4tMzU/IfXaZq0LS7BQtMjWQF0hlOsig9wgdyY+cJ6LARUNpVTVUlWodVfNpgwc9r+4ZP94Nvk3GDoh6b9Tvo+pc0UEW/SzsYAqEV5euXa1d+/beJQAA4i/lAiTRh/3ssWPdkV9/MazFgY4uJ+ODe8Llf2QrZ8+xtXauDfhFVOuab8/7tvUzs6/3/Ne+8q4CNKdl/oIFRYtMVU1okZm2lXxIWWpTU5WqDjLoPULvFao2UjWewtRYHtHX3/XIzJnuwIYGcF/cpUvSghtVRfkHWfSzaMv/tHlvBFJMkyZNrHXr1t4lAADiL6VmIJUkcltjlfoOz8xM6flI+e/+2a7sMMpeOnOs5T3a104urgDp9Qftgl/eY7s7TrIVM7rbid71icasiuBS1V7kkO3bs++0Hj17MmQboabg6L7Jk4uGYitI+VWvXmXO/YrVa5Xa2FSJpPeisXfdldTBtxs2bLARw4en3Pwz/74CSpIqnzn8gzvsPgwASJS0CJAkeqCpPiz/PjMzBXet+NK2zBxsXf7wmjX/w2JbNOgnxZSZ7bePnh5lZ2cstiOGPWqrbzzLvud9JdEIkIIvcpGpRW+67OSE1FJccDRw0KByL7xi+Vqln8Xf8EHBrGYUJYveG2fNnOVCLbk6Y5j97tprQxkUR/8uQEni8ZmD4LJq+BwIAOGQNgGST1UVCxcsLPqAWdFFROB9+7bNuqyH3bnhFPvd4rmW2fJI7wuR/mNrxv/K+k59z1qPW2Lz+p5ixRQpJQQBUjhoYZZuOzkhNUQHR5pv1Kt3rwo/dmP9WqUWtgH9+rlgNgihTfSW/6MLzidj17jK0nv7LQU/s9ryNCx89JgxDBYGAACIsbQLkHz6sDxr5syi9hx9gL9q8ODQL4iL2tfKtbVa81JCpsQgQAoXPW8mT5rkFmnp0A6K8Ir1a3w8XquCGHpodza/Ujcs1UiRVZJhrqACAAAIurQNkHyRR10l3HNevrX/LL/dzh70f/ZV50m2fFp3q1NMaVH+O/Os7/ljbG2dDJv33PXWpqa+6Sv76PVl9tifc+35F16w1z4/2S645BK75Fc9revpx9thhf9rzBEghVPkXDG1g95RcJ4ZDAiC6NldsaoyjddrVWTblULZh6ZPT/pzSdVR48aOdcGWnt/33HtvYKt5IgMvDf8n0AYAAIiflNyFrSL0QV27Ts2eP899eFeLjnbI0YfS8PnaPn3vXdtnNazhmU3s+GL70v5nu155ydbpe3pdYM1dePSFvbPkVuv9mxn2jxo/tvYXd7cLTvzQnp89wa67bJhNevljS+uUEYdQa4t2ctLRfoWv2slKw4G1GAaSQY897SamHTcVHin4yH12mduRM8jhpg5WaNc3hR8KZPVcUkCbTAqL7pk40bX76fmtndrUChgkur/vnjDBhUd679auq4RHAAAA8ZX2AZJPw7S1fbO/fbk+lPbp3TtwH5pL97V9+uEHBad1rHXj46164ZUHy99tLz/1su2v3t76X9zUDrd8+/Kt+XbHX5vZ5LzHbMqt11vmjWPt/z2x1GZc9TOrvn+dzbj3Kdv6NRESDqZWoBtGjXILN1elMH68C1/D9ZxBKtBjTo89HQBQmKDt+HVgIExVcQo/9FzSzz908BAXyCaTH2zp4Ipo6LcCuiBQhdT1I0faQzlTXeufwmwG+wMAAMQfAVIEfWDWh3h9GPWPvOpDc9aYMa7VLTxOtJNOOMI7Hynfvv7HczZ7+V47adCV9svGNQuu+8xeX/aJ9bqtr51+dI3Cb5PD6tp5g39tFxRctX/dG7b13+UaqoQ0pIXbIzNnuvZPVVD4zxm1EgHxpCBBjzU95vTY02NQBwLCNPw5kp5Ls+fOLQpkr8nISHpVnw6uvLByRVGFbrIrDRUWavi42uv0Pq1KKYb5AwAAJAYBUjH0YVRHXvWhWfMz1A6htoLgL4q/Z8fXO6ng9AQ7PjIMKrLH1vz5z/bmcb3t5qFt7Wh1r+Xn2w/O7WXn1zn0+6ud0NR+3qym2bd77b9ffutdCxxK4au2Io98zqiVSK2gtLUhHvTYUmuVHmt6zOmxp8dgOOfXHaD2MQWy+p0UkqiySkFZMuln0oEVVfso2FL1TzKe16qA8sNCVZnpfTrs9zcAAECYpP0Q7fKIHrSto54DBw0M4AfXfNv38j12Ue93bdTf77VuJ0aOvs63rzf/n/364r9YyzkP2fVn1S576/5v37ZZl/WwO/ddY48/Ncyaf7fM/6PCGKKdmhiyjXiJ3gkwUdvNV/W1SoHLrl277K0337S9e/fapk2bbM+ePe73KI4CpI2vv25vbnzDah9/nN1+553WuXNn76vJod9B4ZF+ZhcmTZyYkPdB/btjC15DFBbqPg/CoHEAAIB0RIBUASqdH3PzzW5RrA+x2sK8U8EH+kAFSftetgkXjrPvPjjnoO358/e+bg//bqzt7HuP3dqpfvl2Vft8hd15we9s3W/n2IIhp9l3vatjiQApdWnR98D997s5JcL22qiqZG4xX9HXKj3+N2/ebG9s3GirVq0qNSiKVlKwpBY9VVklk34vf9e4RIRIbt7Rdde5AziJDK0AAABwKAKkCtKH52XPPGNTJk8uqq74fWammxMRDF/au0tutcGrOtjMcV2szmFm3+zZaI/fO8e2XzjcRnSoW84t+b+295/OsssePMGmzBluZx1d7EjuKiNASn2RFXyJrBhB6ojcVl6PoUlTpiR8aHJ5Xqv0/rB+/Xpb8dJLRcGpT0FR06ZN7cennGK1a9cuVwWN/j5VLbm/b9o0+/hfHwUmiNUspHiHSG7eUZ/CgE2Vv2pZAwAAQPIQIFWSZiEtXLDQfYAWfYjOHDEiGGX1+Z/ZpsX32/h5b9p3CxZb9U/6uV3cq5P9rE7NstvWPPmfr7X7+k8xu/V++32ro8v9/1UUAVL6iKwe0WJ6WEaGm60ClEbtkNqVTJIZnpT2WqWQ9Lm854reD0QHFy659FI7rXnzmIRdes+5JSurqH1s9JgxSX/+xDNE8v9u0U5wwTlIAwAAkL4IkKpIR8an5uS42QyihfF1I0eGe1eY/I/t5btvslkNb7Ipv2pkxY3jjhUCpPSiRfC9BQtN//milpwePXvSkoJDqPomcu5NsivXinutUoXMfZMnF83H08951eDB1uH88+MS7kS2j+nfCsIsoFiHSJFBmduN7t57CZoBAAACggApRsIzaLssX9n7T4+zkW90tgdvaFe4U1scESClp8h5Ylok3jR6dMJbkhBcej29esgQ9/hQMHFndnbSQ/nI16ro4EgHDi6+5JKEVclEVvNpN7Jkt4Rqh1J/N7zssWO9aysu8n7X3zWm4D2VcBkAACA4CJBiLBSDtku03/a+Nd9uffRYu+HWX1idw+KcHhUgQEpfkdUUovYkVW+EunoPVRYZjgRhaLTPf61S4Bl5oODSX16alAqZDRs22Ijhw917TbLnA+m57O/OVtmfJbJVMUj3OwAAAA4gQIoDfZgO9qDt4uTbN+//zSZN/dAuHtXLmtU6eGh2/n8/tU+r/9CO/f53vGtigwAJqjqI3JZdoWu37t29ryJdRLesJWNQdknUqnxe+7O9S4XBUa/evZIedgZphzLdf1cOGuR+lopURUUGybrfx951F/OOAAAAAooAKY4CPWg7ihuaPeola3XH7+3s46L3adtrb81+zD66ZICdF+Pd2AiQ4FPliR+6Bvm5gtiLDkKC0LIm/sGAIA9/jw7eZs+dm7SfT/fjgH793HM499llZT5/9f3+7nq634MwGBwAAAAlI0BKAH1IDvSg7S832bzh19vSupdbn9Ojd1z7n+35x/P2l+/8xuaMOstqetfGCgESIjFkO/1Etv0muxUrUuRcuzBUxvjDrJP9s6q1rme37u7neGzx4hLf5yJb8JK5ux4AAADKjwApgQI5aNvtuHa1/Tpnne33rjpE9XZ24xP/z4Y0O8K7InYIkFCcyMWlFqJBamdC7ETOOwrKVu2q6Hng/vvtoZyp7nIgXqfLSWHcgD593flkzhHy71dVFT2Yk+Nde0Dk/T5x8iRaVgEAAEKCACkJwj1oO7YIkFASLeQXL1pkt2Xd4i4HrnIPVRJZMROE7egl8rVZs+vuyM4OXRtlZBtZMit7/J3ZIgOiyHAuSPc7AAAAyocAKUn82RrhGrQdewRIKEvknBShYiHc9Nrn79gVlLk30a2TeoyFOdTX73NLVlZSb2P9DJf36OHe315YucJdF8Q5VwAAACg/AqQkC9Og7XggQEJ5aZvvcQWLzjBXh6S76GAjmbuG+SIfV0EJtGJBQV3k7mbJqPbx5yG1bH2mffzRR+42DlNLIAAAAA5GgBQQgR+0HScESKgIBRAPz5gRyvk06S6ytSoIw7IjK9sUsIzOyir31vNhEjlvqCLb68fKgP79bfWKle58Mv59AAAAxA4BUsAEctB2HBEgoTLCtkNWugtaeBQZqqRDWB85lD5Rt78qoMZmZ7uDIt+p/h074cQTbekTT9C2BgAAEGIESAGVLoO2CZBQWf4cscggYFhGRkq0H6WSyPAo2RUo0VVH6RQ86nePnEEUz/bByPtc/1aHDh3s5lE3BiI8TAV33nGndbyoI6E5AABIOAKkAEuHQdsESKgqLVYj2z/DPgA5lUQG4cnepj+y6iiZu5MlU2RVkAK02XPnxjxw1X0+oE9fdz4yMOrTu7cLr3KfXcbssirQzK6hg4e48xpOTmAOAAASqfofCnjnETA1atSwI4880nbs2GGnnd7c8p5ZZo8vWmRvb95sTZo0sWOPPdb7zvC6b/IUd6pgDKiMH/zgB3bBhRdas9NOs9dff93+/OgCe+WVtdbijDNS4jkSVn6Q8Nm/P0tqeKSA8eabbrKc+x9wockjs2ZZj5493etrutHvrOfKd7/3fct96il7/vnnrMlPfmL169f3vqNqpk2dZjeMuM7dzg9MnWqXXXaZ9xWzuvXqufev/d/udz8DKk6tu31+1cu7ZO7+69W7d1o+lgEAQHJ8xztFQO3bt8+WLFrsFl862qg2HbVfdLmok2WNGeOGCgMw1xr1VG6uq3pQpYOeI3dPmMBzJAkiq1CSGR6p6ui89me710xVHenx0aJFC++r6UtVQbpfVBmm+2nunDneVypHz7FrMjLcjm+qlFVlU/R9rsv6mqqfFISgYnQbXz2ksPJIr3H6LKD77/qRI911AAAAiUCAFCIqVc8eO9a1AGiuhD6It2nZyh31VWsCkO7UkqTFsZ4jWqxqt7bLe/RwbR9IDIUDyQ6PVHWkQEMta6qGWbR0id0wahRtjRH8gxK6fW7LusWFrZV5H9H9reeYQjqFGo/MnFliW5Vfafpc3nPuFOWj++WWrKzCwMhrCxxTcFmfA3S76zMAAABAIhAghZDmRzyYk+MWZ1ok66jvxV26uKPtBElA4XNk/oIFbh6SFl2aGaJAQcEC4ke3r18lkazwiKqj8lPQ89jixS6IUNiqapaKPEcUzKrST8+x27PvdAc4Sgvp/CokvWdRGVh+D9x/v3s8R86U0u2sQehuIHrB7UlIDgAAEoEAKcT0YVxHe7VIFh1tv3LQINc+AsCsW/futmbdq0WtnwoW1K5D0Bp7Ch78nbeSER5RdVQ52lZfQYTCCT1HdB+W1WKm54+qXhTM+rd1v/79va+W7iovYHzpxRfdKUqn21nhngI6Pzzy+SGSglLdF7z3AwCAeCNACjl9gNQiOXL2i9pHtJBizgRQuEBWZYRCDb9dR0Hrhg0bvO9AVSU7PFL1hf59BSAKC1VVQ9VR+el9ROGEX7GnqqKSKlp0X6tSSVUvqn7RvKOK3Nbt27d3p4/On+9OUTJV0+l21nOqpIBO952CUr3/672f930AABBPBEgpwl8ARFZb+IO2K9KSAKQqhRoKWnUkX0Frz27dGUQfA6pGuf6664ramBIZHunf1n3ob2s+bcZ0FxYqNETF6WCEqokUtOo2jZ6to9DVD+pU9aLql4puI6/3Kv2/eg7y3lS6kxs2dHOqyvOc0vu/7ruaNWt61wAAAMQeAVKK8astIgdtq21HCwEWykh3WrzqSH7k80MDgHWkH5UzNjvbhQGqgChvG1MsKMzQ7Dfdh34ljHbiQ9Womki3pT+rSNWsCur0HFHoqqBQlUpVaQ88+5xz3Onyv/3NnaJ4ui8qEtBV9PsBAAAqqlp+Ae88Akjl6Kok0gd2HR2uKM1EuG/yZLfA01Hl4ZmZ1qlz50p/8I+1Ric3dKdbt7/jToFE0qJ4SsHzQ4tihRCZI0a4AdwoH//1SVWPCq4TQWHG4kWLXCuiVPa1EaXT7axwUAHdEbVq2X/37nXvIQ9Nn17l54j+7uZNm7nnnDaEQIH8PbYp7xlbsfo5mz8rz3bu966X6o3sgoE9rcPpp1u7X7S1k79fzftCga932Zq/5Nna1/Js1pyV5h8mqn7yLyzjtpst4/yTrIZ3HQAAQFVRgZTiVPoePWhbR+0ZtgkUtuxoXk5k2ydDtstvVsFriwwcNMidxps/f0fhkSpkVElGeBQfOsgwLCPDTvxRHRcefe9737Mbb745JgGr/m7/OcdzzVPtaGt60RU25NYcW7RwlLWq7l1foNbAP9jkW4da3+7tDg6PpEY9a9NzkF1z5wS7/ZcnFlxR3Y7p/Af78+P32XDCIwAAEGMESGlAH9a1yPIHbavaQsM2+/TuzcBNpD2/7VPzQxRKKJwgZC2bXjtUnaIgIBFVW7o/IufvKBinWix+/Nv7g/fet8t797KvvvrKrrl6qAtYY6F169budPPmze40FcTm/bSGHd2qn934uzO8y+WT//k/7dW1H1n1NjfYjIn97fSjiY4AAEDsESClEQVJkYO21dbGoG2gkOaHKJTQIGg/ZGXIdsmey3vOnf6qVy93Gi+qUNEMN90ful80KJvt+eNLIVHk7f3H8ePdMGd/F8O7J0yocuVQs1NPdafb30md9uUljz8eo4qqH9gZl3Sz5t6lvbmr7I19pUwbyP+3bZwzzWZ/79f2wJRBdnqtiPIlAACAGCJASkMM2gaKp1BCg6C1WPafG21atmLIdhQtkjVgWRVbFdnCvaKit4zX/cKg7PjR/aqh2QqJFBZF3t4azqx2T90PD+VMdfdLVQ481KtXz52uXbvWnaaCda++GrOKqu+c0ta6t/B2VHv/b7Z842eF5w/xlb2/fJqN+dNRNiZnuHWs8z3vegAAgNgjQEpjav/QANPZ8+cV7bjj70gVm6OoQDhpsaznhqovtJDW7DBaPg9Yv369O73k0kvdaTxEt6xVZst4lJ/CILVu6vZWSKSW5+jbWwcfdD+oFVrfp/unss8Jv4Jsz5497jTsdPBFVb0xq6j6TkO7oP+5VlhLtNmWLn/b9rnzkfbb3tdnWuZv19jPJ91qA5odZVETkgAAAGKKAAkM2gZKoOoLLaQVYPgtn6rUS/eAdcVLL7nTDuef705jLbqFipa1+NJrvapQdXsrHFJ4WtLtrevVCq33C32/nhN5eXneVyvGH6SdCt599113GruKqu9avZ9fYO1cgrTfPlzyYlQbW7598+4TlvWb+Vbn7ol249knEB4BAIC4I0CCo0UBg7aBQ+m5oQBDLZ9+pZ4C1soumlNB7tNPu9si1hVBpbVQIfZ0e/vzpXR7qxpV4VB56P1Cg+f1/w0dPMT9PensjY0b3emqlSvdaSxUq3emXXzO0YUX3n/SnljzSeH5AvkfvWjjh060fw+7z7K7NbTDvOsBAADiiQAJB/GPLjNoGziYWj79Sj0FrFo0p+PzQq06+v1btmrlXRMbuh2vHDSo1BYqxI7uR3++lMLA2XPnumrUitD8K/1/frCq8K8i1XlHHXWUO02F2XubNm1yp3puxOw1oVpdO+vis7w2tp22NO8N+0/Bufy9G212Vrb9/ed/sLsGNbdalB4BAIAEIUBCsRi0DRzKr9RTZYwCVv95kU5zwz75pLAKokmTJu40FjZs2ODm6SiwLquFClWnqlLNu1NYp8exgtHKhnX6//T/++1oqs4rb4DiP4b8x1SY6bXAt3PnTu9cVX3X6nW41Lp4O/LvW/w3W/fpTnth0h8sxwba+BEdrM5hpEcAACBxCJBQKgZtA4fSolkBq54X/pBtVc8oCEkX77//gXeuajR/p2e37q5yQ/OOyttChcpR66WqSnV7q5pOj+OqhnX6//X3FLU/9+uXVjP0otu8N6yP3etAtdpnWOcuJxZe2PeU3T/ktzbs7+1tyh/7WDO26wcAAAlGgIRyYdA2cCg9L/y5YaqeURBy94QJKV2lp1BZodnCBY9WOTCLnL+jeTrMO4ofBf56bKr10r+9VU0XSwr/FKq6EKngftUw9NLs3bvXOxduO3bs8M4V2rjxde9cDFQ73s78xdlWWIT0iW3Y2crunXGNnXU04REAAEg8AiSUm9++w6Bt4AA9L7Rw9odsP5Qz1VXppfKQ7bF33eWe/wrMKrsrnf4/VTQqzNAcHc3TQXyopUzzjvTYVEtyPG9vhapq8dT9qmHoCq1Kenz4c4MUSobZ1i1bvXOF1MoXywrdb/73P/vWnatudfr2sAvqfM9dKpf89yz3922t0cmnWoeeQ2zUHffY5El32aiebQqua2iNTulgvx7zx4Lr7rE7R/axDqcUXNf4Bsv96BvvLwAAADiAAAkV5i+YGbQNHKBF8PwFCw4asq2hwqn4nFBIELkrncKJivyefnjkD29mWHb8+POlFGpcnTHM7pk4Me63t/7+xxYvdmGVQquKPj7CREGRHsvRVsZsN7Z/29uvrLf97nwD69Tmx1aB+KjgB3zXNv6jtd3ylxctb9F0m3Dr9ZY5YoQNubRw/lT1c66xsdk3FVx3vd0ycY49sfA6O7VhQ6t3FBVOAADgUARIqDQGbQOHUpWeH65q0a7nhFp5YlmREAT+rnQKJfR7lnfujR8e6TWjKsObUTbNqoucL3XDqFFVnndUXnp/UFilalX/8RFdqbpt61ZXqRRmJQVFD0+f7p2ron3bbM1zXvhWo439vNkPCs+XS779b+sWO2x0lv369GMPbPWf/6ltXbet4MxR1rLDaXZi0Rzu6nZk83PtF+1+bCfWYDg3AAA4FAESqoxB28DB/HBVc2b8Vh7NDEu1IdsKIxRKKJzwW1pLa2mLDI8ULiQqzEg3uv1VEapZdXr8KeRPxnwpv1rVr8pTpWpka6eqV9u1b+9dCqeSgiL9brFo7d6/43V7/v3C+qPq7VvaT39Ykcqg/9l7751gXdodZwfFQapKWvtRwZlT7JyW9b35Sp4ax9ipZzeyH5IfAQCAYhAgIWYYtA0cTHNmNDPs9uw7i2YGaWGfahV6Cic096a0ljYFB/qaAg3Co/jR7a4dAVURqqBOrWTJnjGkqjw/TFVrp4JEP1ypV6++Ow0j/Q4KikryXN5z3rnK+srefW21FU5YqmnNOpxudSsU7HzPTv7FRdb0u5H/k6qSXrXnFEod19JaNKzpXe+pVt/O7djo4FAJxfvmX7Zufrb9+txTC+dJndzGhj/9vvfFeNhnGx+8zPu3GtmZF4+wnGe32d5878sAACQAARJiSotCBm0DB+g50a9//4NaPf0KvVSiVrSSWtr03Pd3/9LMI8Kj+NDtrdtdoYZefxXUqRouCBSm6r73Q8YbR41y1zdq3MidhlFZAZF+zypV4eb/yza84O/o9lO7qGXdGHxo+5/tfmOdbS84V6Ptz6xJLT4GVs4+2zLnRutz80z7R9ORtnDtP2zr9jU2pWsd7+u+z23dpF96oU9l//jBVE1rfs3jBf/OVlv/t/usm+XZvUOG2oQX/mVkSACAROGTA+LCb11g0DZQyG/1VLuXqEJPQ7ZTKVjV8764lrYxN492X580ZQozj+JEc7Z0e+t2VzuxXn+DFtT5IaPeE15/bb277uijj3anYaNgaOGCR71LJavSMO3Pt9krL31SeP7In1mLRkcUnq+K/E/sH39/0/bb0fbzc5pabVrVKmffRnv8oZcKbscWNuiaXtbyuBJGm3/7nm1cvs2qN/2V3ZjzqOWuXGdvvPOObd1e8OedV23WVX6Aeqydc/tTttH/2taNtiJ3hl3XsV7B1+raT+odVfhtTnWr1bCTDb3mF1bDttqCmS/YLhIkAECCECAhriIHbWvRwKBtpDu1e6mtyK/UUbBa2tygMIpuaVv3yivWvWcPtuqPAz1uFERqzpYqvHS7q504qBRq6T1BFVJyw8iRoWxzXr9+vQvrfEeXUOlV+WHaX9q7zyy2x/Z5F7/zXasRg43R8v/9dsHtrflHDa31T6JmI6H8/vO+bXWzqepa3eO/X3hdMfI/3GR/zx9gDz1ypw3pepY1rnu0fd+/0at9Y/v+493B1VvbxRc0ssP9rx1Wy05seqENu+33dk7Nn1rj+tEB1WF29Ik/MkWK+zfsso8Kx2QBABB3BEhICFVfaNEQPWgbSEcKVlWpo7kw/vMh1eaF+dUml/fu5S6vXbMm5YaIJ5uqOfW4URCp9ki1DoelwksVUno/8CvVVEEVJnNmz/bOmZv7d+FFB4aUqwJPz2up6DDt/I9ft78umWfT77jWBt70hH3tXW+fzbKbrsm26fMW29K/vm4fV6riJN++2PyKPae0oc7P7cxYVDShFN/a52+/Z83+kGEd6hRTobRvi/39r+8Vnj/tLGtR97uF5yNUq3u6dTinsdX7QQzSQwAAYoAACQmlI+PzFywoGrTtY9A20pEqchSy+EO2tZBOpSHbqjb54/jx7vm++91dboh42IKCoNJrpqo59bjR40ftkUFrWSuL3g9UMaXKKVVQ3T1hQigq8RTcKbRTVa3atDX377DDijbJtwYNGhS9z+l3q8gw7Wq1T7dfdO9rQ26dbs9v89qZ3J837fkZt9iQvj2s2y9Or2Tr2X9t2yt/tw+tutXueKY1Lip3QXx8Zm+8+2Pr/rMfeJcj5dtX/1hryz7X+epWp0NzO6m4T+TfOcKOOfPHdiL5EQAgIAiQkBT+oG0fg7aRrrTo15BtLaT9Ns82LVu5Idup0tam57vaWP2gQC1XtLBWjh4TannUa6ZuT1Xx6PETVqqYUkunKqgeypla7A5+QbNz505XPaiq2tKGlOtxr9/tyCNredckWf5H9vbadwrOHGc/b/sTtuqPuyOtxWXnW71ib+evbOfrr1jhnm0NrFObH1vxU5ROtAv6tLUfepcAAEg2AiQkTeTRcs2DiRy0TZCEdKOFtBakan9RMKAh29qOPVWeC2pjVWiskEzVG2phpaWtYhS6KWBRy6NapLSrWZDnHZWXQhjtGKe5SP4OfkF+3Os2L+88L/1uQQn48j/eZCtW7jGrfqq1aXos84/i7jA7otb3ir+d89+3DcvfKjxfo439vFlxVUpSyt8BAEASECAhEDQPJnLQtj9YmCoFpBsNoFbQEhmqhqW1pyz+AGW19qj1ipa28lOgotDNb51S62NY5h2Vhx4bmovkPzb0uM/Ly/O+iqr71vZufs3+rqFKP25pzYuZt4ME+vdWW6Mwr0D19i3tpz+kRw0AEA4ESGnsvffeC9SitLhB26nWygOUhxbTfqiq54JaezQsOVUW1LS0VYxeAxWoKFhRwKLXycgKzlSix4baw/TYGDp4iDuQgFjYZ9vXr7OPrbqd0LGVnfJdalqSJ9/2vfWyLXMT0mtasw6nW13uDgBASBAgpSkFMjeNutG1QwRN5KBtv5UnlRbPQHkpVFWliV+VoQW1WjyDPiOmPGhpK5tep1V9ptdAvRYqWFHAkurUHqb2PP9AggJGDiJU0Rdv23OLNxac+YE1+fHxlprxY+Ls3/OR7dSZOvWtToV3SNtr/1izpuC/coqdd/qPKvVhvPpx9ay5/umv/m3/2fdt4ZUAAMQZAVKamjVzlq1ascIt3IJ6hFcLJS0w/R2qtHjWoG0WmUgnqjTRc0G7Pfktntp9S61fYV9U09JWMoWECvhVfaYB0wpUyjt3JxWoPU/hqR8w6iBCKgSniZa/d5dtXPlXm3ffAzZvm0pe/mNvPrPEli5/2dZt+sC+LPw2VET+p/bqE0/aVjvKWl99if2sZgXLh759zzYu31Z4/sg21vqnlRuyXq1eBxs8qJnZvlx79Jnt9o13PQAA8USAlIa0/bOO6vp0Pqjb6GuBqQGkWjz7M2G0yGTQNtKNhvH6LZ5+65eGbKdCoEpL28F0n2qQtIITve5pwHQqzTsqLz9g1HBtBYy6TYL6XhVU1WrVs+btf2F9b/yTrdn+jm3dvtXWzBhh3TucZS2bnmjf974P5ZC/13atW2YzRw2yATkf29mZ99m9/X9qNbwvl1f+jlftrxv2ufM1fnGWNatoAOWrdpy1G3Gv3XtVI3vlhgE2eMJiW/PuXsv3vgwAQDwQIKUZHcHV9s+ihaj+iK4L8tFdLZ4ZtA0UtniqMk+Laj9QVZtT2J8HtLQVUgWW7lMFJtqRT697qTrvqLw0XFvvVS5EKnivokoNifcve3ZUZ+vQ42q7a+2P7ban/2ozM8+1OodVNPzZb//eutHWu/PH2nntf1qlLfqr1fqJ/fKWWfbkn7rYRw+NtL7ntLQu098q+FcAAIgPAqQ0ogWmjuCKPoxrIao/RSFSwdeCvghl0DZQWJmhRXXkkG0FLmGfE5bOLW16/VJlpSqwVIml+1Y78qGQ3qteWLmiqEotVXYmRFgcbxdNeMaWL37Ibm79T7v90stt+PTV9sE3Fa332WMbXlhlbn62/dTannpclbboz9/7lj02qqed95tcO+7qe2zWslX25JBmxp5uAIB4IUBKE/qgfUtWlluU+eGRzw+R9DV9Txg+lOtnZtA20p0CVf95IJoTpvavsLd3Rre0KVhJ5bBA1Z9qR1RlpeYdPbZ4sbtvcTC18em20W2k0FQzopiLhISpVsvqtexkgybMtNlXf9+eGnut3bxwqxcGldNXO2z937zHbON21rLB9wrPV0b+v+yF8cPtpoUf2Pl3z7YZo3pa+ya17TDvywAAxAMBUhrQwksftDe99ZZblEWGRz5dpx1+9D363rAs1hi0DRQ+D7Sw9tu/1N4Z9iHbfkubwgIFKwqIU3HumWb6qPpT7YhqS3wwJ8e17KJ4um00E0q3lR7ruu2Yh4eEqnaMtbr0Emtkn9hL9y+x1/aVvwpp/z/X2V93FzaY1TqnhZ3y3crXH+XvesFmzdtqVuNC69mxAcERACAhCJDSwOJFi+zTTz5xu/iUdlTb3zpZ37ty5Urv2uBj0DZwYMi2gmC/ckehS5jDVD23Faj4AbGCMbWrpgrNcNNMH78yVG2JKJvfwum3OupxQfUpEqn60cfZSTrz/9u7F7ip5/T/41ebsG2WlEOrqJVsSDYKlVXkUA5RCGVrrRwiHR0rx7siOolE8atNUpScyiFkVZZWStJfRVI2lsRqW1Tu//3+3N9Pvvc093lm7u/MvJ6Ph8cc7tvd3DPfmXs+77mu67NhnW34T0knDv1o6957y1a787+zU48/xKq682Wz/av1tkz/dLV9rcYeNK0BAFKDACkLtG3XzrW5lGQXH32PvrdFixbBNemDQdtAfhAcrsrzYWo6PwcUEPtgTO2q6d7SptuuVkPNcNPvpNk+8SpDUTRV3vnjQtWneq0HIit3o634x4r885WPsRZHUGkIAEg/BEiZLHeNPdWtiRsyXb9uvVL916hhIzvujvn2ffCj0gmDtpHtfFWeggnfAqYh2+lcvaNgzM+/SeeWNs3s0W1X+5WCboV92bhFf6L4yln/Wq9gjtd5RNL3K23h3C/yzx/xRztsP5rOAADphwApg+Wu/6e98OYmq1z3dLt62P/Z06+/Y0tWf2KrP12z03+r3ptiVxxeLfg/zSo3u84e7nu87RFcTkcM2ka2UzChFjBtBy96DmhGWLq2dqrKMJ1b2vTac2KLlu6263dQ0K2wD+Wj4/zRiRN3zADT6zzDtREtP9i6l2baU1uCi7vvalXKs/0aAAAVhAApY/1k6//xuq1oc6c9/fz91ueCVtao3j5WbZc471i2rbFnb73JHlq+Of/yPhfbqNHd7MhqmdFTz6BtZDttB6/qHT8jzLd2pmulRrq1tOm26f7Wa49us6oj9TsgcRTEKZDTcG29zmu4tgaUAxXp5y8W2/NPTrQHbu9pXW987pcd294eYT2vzbHxj8+0Z+ausO9KPocbAIAKRYCUqXI/t7cX1rfhd11khxUVBOVussX332jXP/tZ/uXKzaznuP52eq1ybC0bQb6lh0HbyFZ+RpiCF9/uo0qNdF1kp0tLm2ZPaWdL3d+639Vuxbyj5NFwbQV0LkS66GK3GyFQUX61fxM78/xudvWt4+21j8OV3/+058YMtO4Xd7D2bRranlQjAQDSBAFShspd/5F9f04Xa169qCqiH2zdM0PsylHvWP4eIgfamcPvsquPrm6Z+l6GQdvIdgpe1O7jd7DSIltBajq2/ES9pU2BlmZPqa1KwbXud+YdJZ8COs3/UrWXdiO8Z9gw5iIBAAAkAAFShqpU53T7y4n7FhEEbbfv3x1v1/R7yvJjk2p2eO977c729SwbxjoyaBvZTBV5au3UItsHqZrNk67HfxRb2nRfKtBSsKWwTsE1845SR0Gdr1B7aOyDrgqMuUhImN/Wsvq19AHd5/b5v3/Ivy6lttmmL/5l/807V7lxbduHXfwBAClCgJSVcm3buuds0OWjbbkrPapse599p91/zTG2R5aVUTNoG9lMi2wFqRqy7Y//S7t1S8u2zqi0tCm4UsWL7kvdpwq2FNYh9VShdu/w4W4ukqrANBeJlmUkRNVGdu4VJ+S9e1pqf5swy5Z+9WPwhVTYbpvXvGzjHnjRtlp969TtRKtNCxwAIEUIkLJQ7uYlNr7fbfb8xvzGtcpH9rJxg8+yOvEGbGcJBm0jm2nIto7/8JDtdGz7idfSlsowWBUuqnRRxYuCLM07UrCFiqOqL81F8i2bqT4mkKmq2iFd7rapQ7tZgyVDrWPTP1j9us2s1+wNwdeTYYste+DcvH+nvh3V+lp7xtpY3/Hj7Poiq80BAEisSrl5gvOIIH1aqje8evObkE+xt31mc27+i/Wc/kn+5Rrn2fBZd1r7OrvnX06x+nXruVMNlYwKzUJ6ZMIEtwgUtfh07dbNtb0BmU6vObcMHOiCJFXQ3Jx3XgFTulH426dXLxcaKBi7pmfPpLaQhf89Vbx07daVlrWIiX2MFCwlitomVfkmmrHH3wsAAJCJqEDKJrnf2vsP32y9fXikHdfyLp9dQeFRVDFoG9lMC1/f1qmFtqrxru7RI+3mx6jyRxVAfgaOWvOS9Ttopy/t6qj7S+2ACiYIj6LHHxN+7p2Oa2beAQAAlBwBUtb40TbMuccuH7Yga3ZcKy8GbSObqeLxncXvuhBV82M0ZFtBSTod+5rx5GfgqKJKv0Mi25d0X6jyRDt9qVpLoXM6VmtlEx0T2g3PH9ealcVwbQAAgJIhQMoK223z+xOtd8/H7Wt3uZo17DHUbs2SHdfKyw/aDg8aZtA2soGq8XyIqmNfQYkqedJpNpifgeN/B1VUJWK+k0IH3ReqUFSVkwZ407aUHnRM6LhWsKiqMQ3Xfuutt4KvAgAAoDAESBkv17ZteNWGXTvc3vU7rp1+i93X53irXurSo7yf9e0qmzflHrv+il426O7hNmzgDTZo5ER7atYjdtuoN+0/wXdmIj9oONzaw6BtZAOFqH7IvCp51K6lECadWjr1OySqpU1hg0IH3RcKITS4W2Eb0osPFl2IdNHFrsIOAAAAhSNAynC5m5fZxBtvtsc/3eouVz68h40Z2sHqVSlteqQg6jW7q/P5duPSP1jP0SPtzhv62fU5Q+yGk3+0J/uNsKV77WvVgu/OVPrk2rf2+LYYLabVxsL20MhkOvY7d+ni2rR8CHNehw6upTNdJKKlTbPQFDYodFD4kMhBzEg9BYtvLJi/o8IuHXcfBAAASBUCpEy2bb3NvftGu+uNjfmXa7S3wfdfZcdWr5x/uTRyv7L5Y++yicsPtj93aW11dveHTmWr1uhcu+riI+2IujWy5oBStYEWjgzaRrZRm5YqblSJJ2rp1DDidAlQy9rSpq/r99QsNP1/Ch0UPiD9KVhUC6IPRvv368dcJAAAgDgIkDJV7nf24cTb7NrJK/IvV25iV4wdaB3rFbcz0Pf2/xZ8YJtyg4ve/9bYO3O11f6v7Te/jpmcVGlvO/z4ltbggEyvP9qZH7Q945lZBQZtp9uwYaC0VImnRbcfRqwANZ2O+9K0tCkc09wz/Z76fdXOp9ABmUMfCvjqND3OalGkqhQAAKAgAqSM9KNtmDvarsl51fIb12rbKXfdbb2PrVnMjmu5tvWTOTZt3a9tr0K/8QN7ccGa4Od6lW2vxmfayXV3Cy5nH20PHR60rVYILTjTqb0HKC0/ZNsHqP64T5eBxCVpadNlhWNqWdMMKP2+qmJC5vHVaX7OnR53NksAAAD4BQFSxtlumz980m6/8W/2mbusHdfutiHn1bcq7nIRtn1qs0fNt7pHH7Bz0PTretasTb28M9/ZojEP2pMrN+df71SyKgccZL8r9VylzBM7aFvtPRq0zQ4/yGQKULU1ugIWP5BYc8HSoZ3ThwYKf8W3tG3atMm1pOqyQmG1vGkGFDKfqusUivoWRx0HAAAAIEDKMBp0Pc9GXXe3zd2oLddKsePato229P8G241rm1jzg3cPrgyptI+1uPRyO6VGZbONz9ntvYbaUyu+y/sXEUsL0thB235BTUsEMpWOewUsmg2ktjDNBVM7Z7pU4Sn81fNV1NJ20omtXEuqKqvU6sa8o+yiUFSPu29N1vwr2pIBAEC2I0DKILmbP7DHb7vNJi7Prw6qfPjlNuLOc4vYcS3Xtm3+wla9/ZyN7XOxXTD473bgqX+0g+IeFZWsSr1z7Y7Rl1vDymbbVzxuN3a52SZ/SIhUmMIGbafb9udAaagtTEO2fTunr8JLh/BUz9f2Hc5157//z3/c6RVXXcW8oyylx12VdX7Ol9ozGa4NAACyGQFSxthk742/0wa/tD64bLZ9+YPWrekhVr9uvUL++7394YjjrW2na23EcyttuzWy9iccbLsG///OdrF9Wvayhydc4UIk2zjb7ug6zF7c8GP+lxFX7KBtVTcwaBuZThU9GrJ9RY+rXBWe36Uwyse8qqWemfl0cCnfZd3+EvnbjeRRZZ1ev1Wd5tozO3emJRkAAGStSrl5gvOIIH1qr4WXZuqoLSoafrQNr4+0yy97yFZsr2x7XzDWXrj7VNunDCOQFGTJ6k+1w1t20FDWITk5bjGiCo1evXtH6LFFFGiB+tnatdbpwguDa9KbXsduGTjQBUk65m/OO6+AKSoUDt0/ZowLd3X77ho2zEYOH+5ur6e2vJsHDKAaKYvpeal2ZNG8r/BMLLUoq8pUVHWqDw4AAAAyDRVIKFruT/bDjz8HF7zdrFbrHja473FW2bbbN0+/Yv/8elvwtdJRcKSFWTZh0DaKohYZLVIH3HiTLV26NLg2vWkxrVYgf8xrMLEW3FFoB9Jt6N+vnwuP9FqkqqlmzZrZvSNGuDBJdOq3dud5mr00B0szvnQ8aMdBtSNTmQYAALIJARKKlPv1Qpv1j3jzen5rjc7uYM3VyrZ1g/3727IFSFq8aWGWbW/CGbSNePQ86N+3b3DJrE+vXhkzL8sf81qA+5lg2jZfbWMV9fx3FSWdO7vXID0PtaW/ZpeJKo1Gjh7tzsuOFqa85yktbdlLx4VCRoWNCh0VPjIXCQAAZAsCJBQh17ZuWGVvff6txdYgSaU997Hau+WdqVLL9t1rl/wrS2nFihXudP36X2Y3ZRMGbSNscE6OCxO1OO3Vt68LLAYNHJhRYYUW4Jopo23xVcmhCrxLu3VLeXCqGWQKg3Qfa+C3nocKucK0E5evmlq27H33PPW7chEcZC+9bitsVKjoK9O+/fbb4KsAAACZiwAJRci1H75Zb288s8A+3ho7KivXtn6x1lb/WNn2PvcUO6Zm2QKk1atWu9MPly93p9mKQdtQVYsCRIVHWpz2vLanG0CtBeqkiZOC78ocagdSK6evwEtVcKrnkyr91IKkAEuhUFHzmFQ15XfhenXuq64Vzz8utLRlL4WNCh19wPjiC7ODrwAAAGQuAiQU4Sf78tOPbfPbE2z4lCW2aZsPkXJt26Yl9vjwR23V0VfZsD4nlmmAtrwx73V3umjRInea7VTxMHXatB1boGuRq62j1eaDzKUQQlUtPjzylTDX9Ozpwgt9TWFipvGLcF/Zo+D0vA4d3KD5ZFDFkKqdfFCnAKskw44HDBzono96HFauXGnXXX+9e47S0gYFjAr+f121YPUaAABAJmIXtoir2F3YvrY3Hphum4850qp8ssTmL1xtubXr2B7ff2af/LivHX1CWzvz1KOs1u5lyyG14GrU8DB3Xouz1+bNc+eR74MPPrBzzjwruGRugX1t796ucgOZw83huejincKjMAUUCi/U9pXJj7+CUrW0ie6PRO565u9nUdWTgqvS8K/Feq3SDBy1MbkB3H377mg7ZJe27NW7Vy97/pln3fnmLVvaQ+MfjvtcBgAASGeVb8sTnEcEqZ1jyuTJdtrpp9sf/vCH4NpUqWp1mzW1BrUPtIMbNbPW7U63k1o2txYnKTj6kx19aC3bY5cylh7l+fDDD236E0+48999+511PP98++1vf+suI+8++e4799hru+hjmjazp6ZNt6dnzLB/f/WV1TnwQKtRo0bwnUhXCiCu6dHDLrz4Yhs4aFChC85jmh5ju+62u13Xp6+d2Lq17b///sFXMote47r8+c/2/ebN9szMp23io49ajZo1XZVQlSpVgu8qPQVwuu9EIdy5557rzpeGnm+6Lbpdun0nnXyye70648wz7efcn23a41PttddetQaHHmp16tQJ/i9ki/nz59sHy5a58+s++8xeeOF5a3PKKfxNAwAAGYUWNlSYT9esCc7l+yzvTTd2Vq1aNQZtZ6ivv/7aBg8d6lqiiqtW0DGgVpnY502mUWWPnwfm2zjVdrZ06dLgO0pOVY5X9+jhqrdUwacd4MpTwdW5SxdXaaTnoG+z0+NGSxvCul56af6xwIwsAACQYQiQUGFi5x598vHHwTnEw6DtzKOZV6UJNPT9qW9lrRj6XTWjSBV4ahHr2P4cN/y6pKGpWs40P0zDrhW8avh1ItrL1KYmQ3JyCtwWDeJWQKXnpgIrdmnLXhdedKGrdPOBYibOLwMAANmJAAkVZuGCBcG5fAsXLgzOoSgM2k5Pud+usFceH2d3XnaKHVq3ntUP/Xdoq+5258OP2zML1tgPwffny7Wt69+2mRPH2KAuLUL/z+F20hVjbN66gt+daVTdo6ofVd/5yh8N2S7uWFd1kKr0tIBXAKXgNVHzaBRC+Z23HpkwIbg2n74Wu0tbWSqnkP4UDCtQ9K/Rqhgl6AcAAOmOAAkVQp/MawEWpgUXSk4VD6rQ8ItZDR++qFMnWiYiqtJeDe2Ui6+0QeOm2tTrWljl4Hqz31uXwcNs0OUXW/sW9Wz34Np8laxK7WOtQ7eedsfIAXamGwNU29rc9pjNeOAaa1Wn4HdnKlXfPTB2rDvWRce6WtNUZRSmBbrax668rLtbuKsKRAFUop162mk7qgBjb4NvafPPS1VOUYGSnRQoauC6wk8dK1SlAQCAdEeAhApR2Lyj2MUYiqbFqlqa3ln8rttZSq0+aplQqw/3ZUTtUtOaXNrHrjq4NEOht9v3K5faoq172tHX32f3dv2jVS/HAPt0pWNdC3Jf4aMqIz9vSO1kWqCrfUwL9slTpiRtxzo97+7IyXHnbxk40J3G0m1V5ZSvQFHgxcyy7KOZXtpdUa/PviqN12YAAJCuCJBQIV54/vngXEGvzn01OIfS0CKFQdtp5NeH2xmXNAsurLUX56+0LcGleHI3v29TRs+w3S4ZZqMuP8qqZV92tIOOdVX4+FlgCoxObt3a2p1+ulugK1zSgj3Z2+mrKkr/lkLbwlrq9D2qEtRzUrdN7Xe0tGUfBY56ffZVaXpt9kPYAQAA0gkBElJOgYYCjnimT3uCORHlwKDtdLG7HdyijTVy57fbl7P+bh9syXWXdrLtc3tjZI5Nqt7b7r/hZKuVhZVH8WgWmOYNndOxg/37iy/t639/ZU2PO9b+etllCZt3VBz9WzJ61KhCn1+6LXpO0tIGVaX53QXVZqnqOQAAgHRCgBRx3333nTtduXKlO80Ec2bPDs7tTAusJUuWBJeym3/sN2zY4E5Lww/a1gwYBm1H06/qn2idW1XPv7DhdZu3LP/xLiD3W3v/4Rvsqn8ca/fmXGiHVftlclK2U2Bz/5gxNmvGTKt1wO+s2fHH2aJ/vO0C01Qd56qG8sHQzBkzgmvjo6UNotdmtVf66jkdB4T7AAAgXRAgpYn5b74ZnEt/sTsXxXps8uTgXHb79ttv3en69evdaVloBowftC0M2o6QSgfYsWccGwzTXmnPzPsopo3tB1v3zGC77JFadte4a63lPrsE10ODiC/t1s1V2Gne0TPPPWePT526Y2dCP2Q7FQOLNVDbh0LFBUK0tEH8bn3+OFC4z3BtAACQDgiQIm7PPfd0p8uXfZARn1YruNCn9UXRG2reTJu9Hyws9913X3daVn7QtoYPM2g7Sna12sedZM1dgrTdvpw02975z8/uK2bb7Kv591mPmzfZ5X8baGdnyW5rJaHXEA0i1nGs41nzjlQJJH5nQj9k+8QWLZNejaTnV6/evd356dOmu9Oi0NIG8ceBjmEdBzqmCfYBAEDUESClkeIqd9JBYcOzYz337HPBuew17/V57rRWrVrutLz8oO03Fsxn0HZEVKp9jJ1xQtDGtmWevbpYj8N22/zhEzaoz9t27AO3W7fD9zSmHuVT0KLwUwtuVRvpeNZCPEyX/ZBtX42ksDSZbUK+CkktSSV9LtHSBtExrFZjFyLlHduEiQAAIMoIkNJE02OPde0a6fwJpRZHhQ3PjpXtw7S1Q8+HH3zgzu+6667uNFHUPqFPvrV4DQ/a9tuhI4Uq1bETLzjZ8jf0/8yembvMvtkwz0ZdN8nsmtusd6sDjMa1/HlHCoEUtChw0bGraqOiaNaMqu7U4qbXnWS2CYWrkIqa8RaLljaIWo3DYaJCfV6LAQBAFBEgpYkzzzrTvbkccNNNadveVZqFlT6NzdZh2np8h+TkBJeSR4vX8KBtVU/4QdssXlJlF6vZtLWdlp8g2ZaZ99oVVw60t0+83Yb+uVFWb9fv6fmg41IhkMIgBS46dktCVXcPjB1rt+fc6V5T1NKWrBDeVyGpUrQ0zx9a2iA6pn3gqVC/f79+tHIDAIDIIUBKE9WqVbORo0fnl7l37pyWbyxjW/BU/RKmxVdYNg7T1sJzSN5iUo+zZmOkQrxB2xpQzDyO1KhU8yg7re3++Re2fGTrDh1kD/c93qoTHrljUKGPfz4oDIptWSuJzl26uKBU1CakCr9E0+3Stv66rS+/9FJwbcnFa2kjyM0uCjw108vP8NLfeubUAQCAKCFASiNu+18/KyHNBm7qtup2ixZICitU/RKmEEOVAl62DdPWYlGfOuv31mL55DYnB19JPi1+4w3a1iKWBUyybbefftwanD/MLrzwBKu1S2nTo1zb9u0qmzflHrv+il426O7hNmzgDTZo5ER7atYjdtuoN+0/wXemC7VU6hjU64Ve9zQrpjwUlGr+l37elZd1dz8/0dq2a+dOn5g61Z2Wlm9pUxWKXgdUecXzL7votVgzvHxFmubUJSPwBAAAKAsCpDSjRdCOECkYuJkOn1L74dma9aGQQmFFLL1xVqWAH/Is2TJMW0GZqn58eFTexXJZxQ7a1u3RAkbzZxjwmyTff2z/fHNj/vk9mlnTP1TLP19iubZtw2t2V+fz7calf7Ceo0fanTf0s+tzhtgNJ/9oT/YbYUv32tdK+1Mrio4zBZdqqVSV4uQpU9zrXiJo/pd+nkIk/fxEh0h6/qh6RAFsWWcZ6XUw3Han51+yd5JD9OhvpP7WJzPwBAAAKC0CpDTkP0nX4kqtDgoeovwptQKuj1evdrsiadaHFllF8UOe9eb5jXmvB9dmLn26rDYdvy15RYVHYbGDtjV/hkHbyZBrW1Ysste25F+qcvqxdljVUlYf5X5l88feZROXH2x/7tLa6uzuX9YrW7VG59pVFx9pR9StkRYv9nod0yBpBZcKMB+dONEdi4mU7BDpnHPPdadlaWMLU5ieyp3kED3uA6O8Y1WvwTpWaWsEAAAVjQApTWkRpMWV/7Rbn1JrIRTFKhF9oq52NbXglYbePMe2uWUSPVZaFOrTZS0S/bbkUcKg7WT7wda+/0/70p2vbsc1q297ufOl8L819s7cNXlnfm2/+XXMnm2V9rbDj29pDQ6Ifv2RglS9jqnqRtU3CjD12pEMsSFSIodW6zmjBb8GIZf3ORJvJzla2rKL/1sfbmtkuDYAAKgoBEhpzM9K0KfU/hNKfXrP4j7a9NhowaqKHi0KVWmhxWxx25JXJIV5DNpOgtx/2XtzPwwuHGatjqplZZ+d/YG9uGCN+WlK+SrbXo3PtJPr7hZcjh49HxR++yBVr2eqvkm2cIikSs5EHssXXnSRO12wYIE7LY/YneRoacs+vq1RFaqufT3NZiACAIDMQYCUAfQptT6hDC/u9SmlQgrm1kSHHgst/PTYaMGqhasqe1RpocVs1GkRw6DtxMr9Ypn9/Z+b8y8c0tyaHFSGoOfX9axZm3p5Z76zRWMetCdXBj/PqWRVDjjIflclmlu6qZJCg+MVfqvCQoFOaSsVyyMcIulYTtRxfMKf/uROn857riQKLW1QhWrsDEQAAIBUIkDKEH5xH64SUUjh59awwK84WiTrMdBjoYWf6DHSY5Wo4cCpxKDtRPnZvv/oPVu4Pf9StRMa28G7liHoqbSPtbj0cjulRmWzjc/Z7b2G2lMrvrPc4MtRpSHTqqTQ8aNWXG1fXhFBqv7NwUOHuvNXdO+ekGNYzxHfcpTI5wQtbdDfDM2m85Vz9wwbRpAIAABShgApw8QGSXqTqU/3tcC/qFMnVwHDIj/59IZeLQaqztGAbD0GajP0wZEeIz1W6UwLbwZtl8O2T+3lqXMsmJ9tv9ptF6scnC+dSlal3rl2x+jLrWHeD9i+4nG7scvNNvnD6IZIeh3q2P4cV0mh54RacSvy+aBFuW6Hbs+ggQMTcvye26GDO128eLE7TRRa2qA5Wz5I1KwtVfExFwkAAKQCAVKG8kHSa/PmuZJ3VYqo5UgVMFrkK9jQ0FrCpMTxoZE+EW7U8DDXYuB3k9JjoGHUmRAcxWLQdmlss6/fn2uzHh9nd155hQ146avgerP/PDzQet4xzh6f9ay9+P5XpQx/drF9Wvayhydc4UIk2zjb7ug6zF7c8GP+lyNCx4OeH3od0rGi8FHPiSjQ7VAllJ6zM2fMCK4tu4YNG7rT9xIcIHm0tGU3BYmq2vPHrKr5qEYDAADJVik3T3AeEaQ3hPqEWZ+Ol3ehpbBIn4ZrLofecHqqHjnzrLOs2bHHujAglerX1eyWfKs/1U5S6UWf+q5YscLmvf66q8Dx/H3atl0790a/LBL52KeKFrDavnz0qFGuOkL3w7W9e6dlq156+tE2vD7SLr/sIVuxvbLtfcFYe+HuU22fCIxAcvOO+vZ1QbYqJ+7MySnzcyNZdPwq/NSxq3CrvK+HqvrU75vM1za9rqtqSq/pCpMeGj8+5a/jMBfg+b8BiTh2SkNhvW+P1m6eUd6QAQAApDcqkLKIFmt6Y6n2h3cWv+veaGohpwWOZikorFCgozfCekPKp5k70yJYVUZq09LiUO1p2j1KCweFJWor0WwgVeSoQiBqC+Rk85VvDNpOgdyf7Icffw4ueLtZrdY9bHDf46yybbdvnn7F/vn1tuBrFUfPGVVI6HjQcaHKiSg+N3T8KoCRWxLQynZiq9buNJnHvu5HWtqym15zfQWo/h7p7xMAAEAyECBlqXCYtGzFh+7NpxZ2fpaNPs30gZIW/9rtRYvAbJqzoE/2NehXizGFaie1auUCIwUiatP68ssvXfuAgjgFcj40Socd1ZJNxxeDtpMr9+uFNusf8e7L31qjsztYc7Wybd1g//62YgMkvXboOaNwQ88VHRdRbuNU5YjCGIVd5W1lO755fuXdh8uXu9Nkim1pY7hydlGVp3YU1N9w/X3S320efwAAkGi0sEVcRbQxaYH/0Ucf2dIlS23ZsvcLtLt5qlyqW7euNWjQwOrWq2c1a9YsU3AShRY2/b4bN260tWvX2pdffOFa0hYuWOAWvGFamKkl7Y9Nmrj5JskOitKxha0w+l1U0aFFuSis7Nqta8bNg0qdXPvp/Ql23QetbeTF9Xf+JOA/82zQcX+xqVvPszELh1rbfXYJvpA6WrwOzslxgbSeO1rcpku4Gm5lUwha1tutn6N5aApRNXA+FcItbS5MGDGCUDsFKrKFLUzHnIZq+5bGdHreAQCA6CNAiriohAi6HQpYVq9abevXr9vxRjmW3rA2b9HC9txzTxcuyWGHH+5Oq1atutMb2WQHSD4cEt3+/27ebBs2fOF+h02bNsUNx0QLr4Pr17emTZu6gKxOnTopb7nJpADJUxXbgJtucgtzHSu9eve2U087jSCp1H62/8y73f704O/tycf+bIdUCQ85yrWtK/9mf257p33csWJmIKlSUS1repwVNqtlLd0eY9d2d9HF5Q5/UjEHKZZChEkTJ7lKFGEuTvJFJUDy1Mamx1+vs4OHDmUOHQAASAgCpIiLcoigReKWLVtce8bmzZtd5c7Hq1fvqDIpjhZm4SBKl1XZU61ateCaovl/M1Zh4VY8+jd92LXvfvu5SqqoDKDNxABJtLhl0HZ5/WCrJl5mbW9ba21uu8+GdjnKqu+ilCjXtm1aYlNu7G1jNp1t946+xlrV2i3/f0kRH7yIKs3UspaufChQnkBArWTaar08lUxlFQ5s1W57Tc+ehLVJErUAScLPRbVlqs0RAACgPAiQIi5dQwSFBOvXr3fnw/M/Fi1aFJyzUoVNpaGKh+rVq7vz4UooHxBJVEKiomRqgOSpOmz6tOk7qiT0uPXu0yctHpuK97W98cB023zMkVblkyU2f+Fqy61dx/b4/jP75Md97egT2tqZpx5ltXZP7Zi7TKt68M/B8lQh+R2yNJ+ocePGwbWpo6B/SN5tp6UtuaIYIImO4Su6dydEBAAACUGAFHGZHiLEa2HT71xSmRw2ZPpj72mB++DYsTsWX1qs9+3XL5K7dCG+TJ67U94qpCg8j2lpS76oBkgSfn4qqL8577YSIgIAgLJgFzZEjt54l/Q/pD8tZFTdoUWXwgctwpo1OdpVs2jhi2hTQHJehw5ucarw79GJEzNqcdq1Wzd3Oinv9yqLGjVquNOVK1e604qgihO1Eoa3emeXtuyhMF5zyFSBpOep5pOV5oMaAAAAjwAJQCQoEJw6bZpb5LoqlrvvdjthqQWIhW40zZ0711XXqD1GM1YUBGZae4yOSx9sqpKjtHwl3XfffedOK5Lf6l1VKJrLdGm3bq4CEJlPz8vrrr/eVcLp+arnrZ6/AAAApUGABCBStMhVFYsWOqL5MVroaiAsiqagLRVhm/4NVbCokkUVLZrvk8kDejXkXebMnu1OS0uBjW9vqmiqDlM1igacawbdiS1aEiRkEbVRhivRVOkJAABQUgRIACJHn5ZrofPCnDk7FrraTejqHj1ovYhj6dKlLtDRnJtkVwCpYqV/v36ugkXBiCpaKmI4dCodddRRbsH9yIQJwTWl44f6RwUtbdnNV6L5Sk8eewAAUFIESAAiyy9031n8rpuvo/kdar3QwNqytBNlEv3+Ux57zC7q1Mk6tj/HPv30U+varWvw1eRQUKX5KXocNE9FlSzZMIxXx+EFnS50rT+6D0pLu0FK1I5ZWtqyl563qvT0j71CYUIkAABQHAIkAJGnOTJ+0LZvB/KDtrMtSFIrnwI0/f63DhzkqrN0nyjMSWb1kWZRKahSiKL2Qs1TSXa1U5Qc3/x4d/rWwtK3UjZo0MCdbty40Z1GSbyWNtpFs4Oev3rs9fqhUJgQCQAAFIcACUDa0EDjB8aOLTBoWzuAZfqgbVWFKCw7qVUr18oXnqeT7PBI96sCK82iUruTQryK2o6+IqlNT7//9GlPBNdkDh074ZY2HWPsgpgdCJEAAEBpECABSDvxBm1rx7ZMqZxQVZVapRSMae6TqkIUlqn6JyzZ4ZGCK7U1KbDSv/XUzJkuxMtWbdu1c49BprZ5xc7GUZhAS1vmiw2RNEsNAAAgHgIkAGlJi57woG0t7FU5oZlA6TRoW5/26/YqLNIwW1UZqT1N7WIKxrSgiyfZ4ZHCOM07UluT7l/9W35L+mz1xyZN3OmKFSvcaSbys3E040rHno4BWtoyXzhEUnjI7mwAACAeAiQAaU0Ln/CgbQUeftB2FKsnFBZp23Qt0BR2NWp4mLu9Cos0zDa2yiieZIdHGs6tME63RW1Nun+T9W+lk4YNG7rT9xYvdqeZSo+1ZlyNmzB+RzBLS1vm8yGS2hgVIhEcAgCAWARIADJCvEHbav3Swjcqg7bVlnZF9+5u23Qt0BR2lVYywyMFBGqZ03BuLSLfWDDftTUhn99xbvG777rTTNemTRt3DNDSlj30uqI2Rj8Li8cbAACEESAByChRHrStQcxqudPsJi3QSiuZ4ZEWipojpbYl/Tu6ndmwRX9p+Sq3bEFLW/bRYz546FB3vn/fvlSeAQCAHQiQAGSkqA7aVvij2U2vzZu3I+QqCQVONw8YkJTwSPeJqrXUrnR7zp0ugEvGv5MJfBtbOs3ZKi8dC7S0ZRe9fmr2mcLS+8eMCa4FAADZjgAJQMbyYU1UB237kOu8vNtTnJsHDkx4RZACAAUBuk8UUCnQ6tylS/BVxFOtWjV3umXLFneaTWhpyy5du3V1j7Vms6n9FgAAgAAJQMZTkBTFQdsKsbRN/lPTpgXXxKfbrMV7ImkulAIABQFaJGruCfOOinfY4Ye700/XrHGnJbFo0SJ3Wrt2bXeazmhpyx563bwjJ8ed79OrFxVnAACAAAlA9ojKoG0txLTTmUKs8Dydg+rVDc79QpVBAwYODC4lhoIrzYVSAKBwSoEA846SL1PaAmlpyx6aKae2Vj3OM2fMCK4FAADZigAJQNapyEHbvupIO52FaTF+fPPmwaVfjBw9OqHBw9y5c11wpQWh5kMpUMuUYCOqFi5YUKah6VFHS1t26NCxozt+9ZoVlR0tAQBAxSBAApC1Uj1oWwFVbNWRKqG0CI/Xoqa5Tdq5LREUjN0zbJhdeVl3txic8cwsNx8KpePb0HxbWkkorGveokVwKbPEa2ljXk5mUcDsd2V7ZMIEdwoAALITARKArKbFUbIHbasq4+oePVxAFabgSpVQ8drHVNWhIbaJoH9f1SEahqvASvOOEhVMZZvSVmv5ipzateu400yk+yTc0tax/TmuRROZQ2G7H6gdhQ0IAABAxSBAAoA8WgQnY9C2qo40Z0nVGZ6vOoqtAAqHDBpeW9qwIh5Vg6gqRP++qkTuHT6ceUcp9Nlnn7nTWrX2d6eZTFV0mi/m250UmtLylDmu7d3bnb4691V3CgAAsg8BEgCEJGrQtr43XtWRBtIWFuL4kEHfozlN5aXwStUgqgpRdYiqRBIRSmWz0gYi//7yS3fqd2/LdDpuVc2nEFahpWaL0dKWGXwVkuZdEQwCAJCdCJAAII7yDNrWoGq/y5mnn6FQqnOXLkWGOAqt9D3lodunyimFV6oG0b8bb8YSSm/jxo3utGnTpu60OJm0hX9J6fhWCKsWTVraMouvQpoze7Y7BQAA2YUACQCKUJpB2/pUXsGNBlVr4eypokg/o7iqon33289uzvv/y0PtdtrlTZVTCqOemjkzIdVMKBs9DgoPs7HySy2atLRllqOOOso9ngzTBgAgOxEgAUAxtPgvbtC2rzpSYOD56p/iqo48hVXlmU+kUEvzjjS/SbdTrXJqyUPibNmyJThXPH9snNiqtTvNRrS0ZRa9jl3Q6UL3Gpis3SoBAEB0ESABQAlp8RRv0Hbb007bqepIA6u1cE5V9Y9mNCnU0m1Q251uZzZWvSTbp2vWuNOSzDT6cPlyd9r4qOze8U7HIS1tmeOss89yp/PffNOdAgCA7EGABACl5Adtjxxzn+2222626qOVwVfMDqhT22Y8MytlA6s170itQZrRpIon7e6mSiYkx4YNXwTnivfyyy+700MPPdSdZjta2jKDqiT9lv7FzYMDAACZhQAJAEpJi6Z7hg2zPj2vtR9//DG4Nl+lSr9yVSqpWFhp3pHmMak1SPOOVPHEFv3JtX79OndaXGWZHn//uNBG+Ata2jLDmWflVyGtXPlLeA4AADIfARIAlIIWuwpt9Om7p4oKtY2pRedXv6pU5KDtRNHMpRNbtHQtQRrSrR3jaFlLPj+cvDhLlixxp82bN3en+AUtbenviEaN3OlbC5mDBABANiFAAoASUEWJFrla7IZnHamSQjudqW3MD9pWoKPviR20nQi6HZp3pJlLPrgq77b/KBlVfEmjRke606L4+TCtWmfvAO3ixGtpS0XlHsqvceP8uV5vzHvdnQIAgOxAgAQAxVAApK3xtcj1tOgdN2G8q6QItyipukKBjgZta5C2H7St7f19AFFWmhfTv18/N+9IM0gmT5nCvKMUWrFihTutf0h9d1oYhSCqUNNjREth0WJb2lS5l8jAFcnjNxIg9AMAIHsQIAFAIXzVkQIgLZQ8X3XUpk2b4JqdKVTSIG1VWOj71fqkljNVD5VlcLAW1ZoXo0W2gqlHJ04knEix9xYvdqdNmjRxp4Xx7Wt+TgyK5lvafOWenm/PzJoVfBVR1bRpU3fKHCQAALIHARKArKAwSCGM5hJpcRr7n2YK6es+3FG1UGzVkWhuS2zVUVFUYaHvV6uZKlJUPdSsydHu3yzpJ/f6Xi2qtbjWv5+qHd5QkK8qKu6xp32tbFS5px0MVd2nOWKq2qO6Jbrq1qvnTrVpAAAAyA4ESAAylkIgVRBptkqjhoe5EEZzibQ4jf1PM4X0dYU7J7dq7aqFwlVHGpysLfI1t6Us1Go2ddo0FwD5BbLadRRcFUaLZ+32pu/V/6PFdVn/fZSP3ynsxLxjoygKIGlfKzvN1lF1n55vqtqjpS26atas6U6pQAIAIHsQIAHIKApdFMpoeLVCIFUQqe2rNNZ++mlwLt/peYvZO3NyEhIIxA7aVnCl2xq7lbnCL807UhihxbTmHfnBtUg9v9vU8c2Lnjn15t//7k4vvOgid4rSU4WXdhWkpS3a/Ovhd999504BAEDmI0ACkDEUHKliQaFMuHqovF6cPcdVJpV1flGseIO2tbubWnZUbaEw6ZLOnV3w1f+GG+ze4cOpZqlg06c94arAigvxnpg61Z2e8Kc/uVOUHS1t0ecrxQAAQHYgQAKQ9lStozY1BUeqWCiMFjsKZNRG5v9TlcNhjY4IvqNoml+kQdZFtZ2VRrxB26q2UJik30O7vF151ZXMO6pgmpulx+OCThcG18Sn71MYqGOspDOyUDRa2qKtevXqwTkAAJANCJAApDUt2n21TjxazKuKYdmKD11bjAIZtZHpv99Uq2aPTJhgHy77IPhuc7NrJj422QVLOh/Lt50lshpCg7YHDBxoJ8YMXf7v5s1UXESAH4p91tlF76r2wvPPu9OT25zsTpEYtLRFV+3addwpoR4AANmBAAlA2nLh0UUX71R1pJYXVRcpNFJgpCqGcBWP2tAUAMVWLGmBqu3xW7Zs6dpnNPTa754WS9UQ2qVN1U/l5Xd8e+P1112lhW5HSQdtI7lKOhRbC2gdE6okUyCIxKOlLXpq1do/OAcAALIBARKAtOTDo1iaKaSWF1UYxWv90v+nNrTw3A4tSLUw1QI19v/xu6epnUzfF6Z2JVU/lSdE8hVUvvVJlRa6HSUZtI3kmzN7tjv9a/fu7rQwkyZOdKddu3Vzp0gOWtoAAAAqDgESgLRTWHikkEczheLNn1GlgrbEj61YUuCksKa44cht2rTZsXAN088qa4ikodz+9qjSSdVSXnGDtpF8OmbU4qjgsEWLFsG1O6P6KLVoaQMAAKgYBEgA0opaigbcdFNwKZ+vIFLIE48qd1SpoFYkz/8/CpxKOqTaL1xVKRSmRWz/vn1L3E6j79PQbw3l1u14Y8F8V+kUj/7NeIO2E7UjHAr38ksvucf2r5ddVuQxcsvAge6U6qPUoqUNAAAgtQiQAKSVEcOHu0V92MjRo+NWEPmqI7+rmVfSqqPCqFIoNkRShdDgnJzgUuFUqaQwS0O/FQjpdpRki35VtuQMHrxjJpPCp2ZNjnaVFyyaE0/36ehRo9z5tu3audN4NJ9Kjz3VRxUjtqUtUXPJUDpff/11cA4AAGQyAiQAaUOta1okhqltLV4QpLaieFVHvs2tpFVHhYkXIum2FdVKo7DhxBYtXZil9hsFQqW9HX4mk4aE+8oLBm0nnq8+0mMcryVSFDINCULDvv36uVOknh6fe4cPd4+Vwjw9x3g+pFbNmjWDcwAAIJMRIAFIC1qsx7auqeojtm1N3zflscdcm1e46kjfq0qFwtrcykIhUuxMJAU6sa1luk1qOdMwbIU+qiJS+015aEg4g7aTw1cf6bHq2q1rcO3O7h8zxt33CvMKC5mQGgpi9XzUc0uPm54Pqj7UYwkAAIDEIEACkBZ8RUhYbNWHqo7UwnLrwEHBNb9UHanaJxmLfFU+6N8IU5udpzCpf97tVMuZWs8mT5lS6Lyj0tKimUHbiTdp4iR3rPXq3bvQCjEFdX57/1NPOy24FhVNzy09xxTs6vGhpQ0AACBxCJAARJ6vCAkLV32Eq44UonhaRCa66iiWAobBQ4cGl/KplU0Bjv47r0MHN+9IAc+jEyeWaN5Rael+YNB2Yugx82FfYcGQ7tM+vXq583fk5JS6DRHJpecYLW0AAACJR4AEIDIKCzuWLFlSoPpIFT9+ca/qAlX4hKuORAGTdkxLRWuRqh4U3ITdMmjQjjY63ZZEzF0qDoO2y0f3kd9R7cabby708RqU9z3+cWVwdjTpsaOlDQAAILEIkABEhqp14rWb3BdTfeRbixSMqLpAFT6eqo60Lb5mBKVS7Bbui/7xtu1fq5bbZjzVt4VB22Uzc8YMV7GiarHCduhTVZffQS/VjytKj5a25Fq0aJE7rV27tjsFAACZjQAJQKRc0rlzgQWeWorCbWlyRKNGdnWPHi4YCfNVR8loEyuOKlHObH92cCnfWe3bFxpEpAKDtktO94mq2BS4XdOzZ3BtQQrgfHvbgKBSCdFHS1vy0cYJAEB2IEACEBnNW7RwQUc4RHp17qvu1Du9XVs77eQ2BaqOtKCviKqjsLfeesv++U7+p/He+HHjKrxlRgs7Bm0XTcean2n00PjxcRfDenz9Lnr3jhjBgjnN6PGipS3xPl692t2fAAAgOxAgAYiM2rXruNNwiDR92hPuOu/FUHAkrducbKeefnqFVB15GuB9yUUX2xcbNtjv6x8cXJtP85uigEHb8SlAGDJ4cJEzjRQe6fHVQlntUBV5rKF8aGlLLAXSCv4BAEB2IEACEBm1au0fnMsPkc7v0NGdxlOlShV3qk/A27dv786nmsIHVfL41ieFM7GzkOa/+WZwLhoYtP0L/b4awK5qNrU3xatg0/1CeJRZaGlLDB+8+eAfAABkPgIkAJFx2OGHB+fy/fvLL4NzO9u6das71Rb6qdhpLZYWT6peUCWPqhmemjnThTOtWrcOviPfnNmzg3PRwqBts0kTJ7nwSI9f125dg2vzKVxSdZbuF8KjzBOvpU2Pd7aFqOXx9ddfu9Nw8A8AADIbARKAyKhatWpwrmQ000dBSKqppUlVC6peUBWDBnf7EEshgyp7PFVQRblFxg/aVpCk25otg7YVFqj6SuGRqlHCM430eKkyyX+d8Chz+ZY2X42nx52WtpL5dM0adxob/AMAgMxFgAQgMkqzSFfVQGG7ZSWTgge1NImqF1TFEOvEVgWrkFasWBGciyaFJwqSNGjbt/Vk6qBtVZhoB7/CwiO1rCkcVGWSAkp9nfAos+nxfXTiRPd463HX/DWFxCia38K/Ro0a7hQAAGQ+AiQAkaGqFz/bqDgjR48usPBPtnDw4Hd9K6z6qf4h9YNz+VavWh2cizZVUSkQy9RB2/od/Myj2PBIx54qr3zL2rgJ493Q8VQeY6g4epz1eOtxVyWeQmId9yicXh/0WlgRLcQAAKBiECABqHAKZ7Sltqpe/Gyjotyec6c1btw4uJR8qsLRfCAFDwpWVK1QVFXKQQcV3NZ6/fp1wbn04Adtz3hmVsYM2lZAdF6HDgUqixQaqNJEwaCOPVVe6WuaZ9WmTZvg/0Q20eOucFghoo77koZImzZtCs6ZfVnE7LZM4VtcY6stAQBAZiNAAlChfDijLbVLQoFGh44dg0vJp6HSqsJRVYKCKwUrxVWl1K5dOziXT5/UpyOFdBq0raoMLahVnaPB4enU3qPAa8pjj7mASI+hZj2detppboD2Sa1auUoTHwyq8kpVKFRUZDeFw5oL5qrU7r7btXIWFpzqen1dx5DXrcslLmzNZG8tzH8NOL556mfQAQCAikOABKBC+IW9D2e85ie0DM7Fd0dOTkrainT7VH2godIKTzTvqHOXLsFXi5ZpbU+qytCC2s9HUuiidi+Fa4UtrCuaBiHr9l14/gV268BBtudee9lp7dq5EExhkoIB0e+kihMFg6q8AkTPYVWpKURSAKzWx9hj3Yff8QJiHWeqbMvUgdzTpz3hXhdTWQkKAAAqHgESgJTTwkuVLFrYe37uzKBbbgmu2ZmqR1KxyPezchQy+F24SrvbmypawtJ9IakFteYjhQdtK1zTAlpBYJR+v3/961/W7rTT3e1b/sEH7rrvvv3WXpo921Ww6farPe+1efPc78SQbMQTDpFUYaSqNU8VRrHhd9dLL7UmxxwTXDL3/2ggu54fUQ1ay0IViPq9L+h0YXANAADIFgRIAFLKVx0pgPB8SFPU3Bl9j3YKS7Z4s3ISETBs2bIlOJfe/KBtBUlq6RMFgVooq+JCVT8VNXBb/66qxv7UvIX9d/Pm4Nr8Y0ftactWfOha8nT7qZxASYRDJAXKY+67z81rU4WR5ysUB90yyCZN/tuO54Wn54cC80zZ0fCxyZPd6Vlnn+VOAQBA9iBAApASqlBRwBCuOhJVFT0wdmyxIU3vPr8s2JJFVQXhWTnswlU4BUlq6VNrmxbPvkpDVT8auK3HWvdnKhbNCv00h0b/rhb5qjLSbfKzm3S7bhk40NavXx/8H0DJ+RDphFYn2ugRIwvMa3PHWqhCUd+r54UCSz0nPAXmCs7TvRpJz2c9n1RhSeUeAADZhwAJQNIpSFCFihYenhZXmj1TkqoiLVaS2bqmBZ2vKlDgoPamVFQ7ZQItmLV4VgioqiSFNj5M0v2pRbOGVSvg8YFSIiqUFBqp2kg/W6Gf5tD44EhVRrpNqmjTjmqqJPMLeP0/mdROhNRYsGCBvTnvjeBSPh1Xhe3IqNcrPScURIelezXSqJH5v0/XvN8BAABkn0q5eYLziCC9ydSiR29CM3FBW79uveCc2epP1wTnIJnw2KvqaMjgwQWCIynqd/K/d5g+zU9WgBS+jQo+7szJScguXApMwsN1k/k7RJFCoo8++siWLllqb8x7vUDLoiioa96ihe25557WoEEDd13devWsatWq7nzY2rVrXUvahg1f2LJl7xc4nvRzNIvl5DYnF3n/KnC6a8gQdzv0/4wcPZo2NhRLYeP9Y8bstEvk3jVr2NPPPFOiKpzCXgfV6qYdJdOlylGzjzRAX4G+hs4DAIDsQ4AUcQRI2SvdH3vNwlE7U5gqRLSLWlEL/dgAKZmLFS2IBtx0k2tZ02Dlrt26Jmwxl+0BUiwFSuvWrbNP16yxRYsW2cerV+8UKpWUgr7mzZvbEY0alSoEUhgwc8aMHW2UOrb69uvHtv2IK17wo9ewizp3tr7X9nLnVYFU0tcMVeCFZydJuoSZeu5oYL5eK1U5SvsaAADZiQAp4giQsle6PvYKCkYMH77T1tYl/bQ9NkBSO1kyFleaReKDBLVdFTXAuywIkEpGi3Q/YPzD5cvdaazfVKtmBx10kKtOSsTCNRwMaAHfq3fvjHx9RdmFw2VPgeOAgQPda5haITVvS8GzhrKXlI69B8eO3en1Ue1w1/TsGdlqJLX4qgorU9+LAACAkmEGEoCEUdWRdjALL470Kb3CEw2WLe3iSP9vosMjfZKucEfhkcID3bZEh0fxxGvNgrlASMGa/tPCNN5/enz09URVPejnhOfTqCpEQ78VXiK76fVB4ZBatcLhkY4VVUL61zBVK+r1SSGS2iNLSseefo4f8O4pnFGFT2l+VqooTNPtU+XfqaedFlwLAACyEQESgHJT1ZFCGbWshRdd+nReLR5lrby5tnfv4Fxi6NN/DbBVwKXFkHYQS1ZVUGyFQaLCDySOwikN2VZliaqRVPmW7rtkoez0+tC/Xz8XCnk+ZNaxEqYgSe24otlapT1m/IB3HXueXjs1EF7VPlE5BnWfKEyTm/Ne46NaIQUAAFKDAAlAuegT89iqIy261Hqm1o6yLjj06b7fGjsR9Cm6doLT3B0FW6pAYTEEzT9SRYiOVx23fpesKFaCIHn0eF/SuXOBeUcKd4oKmXW9WnP1mqLZWqXlj73CqpFU0VmRFGLpPhHtbkgIDgAACJAAlIkWF/qkXJ+Yh6uONMtDi67ytp4lsvrIt6SIFkKlmVlSFrGtUOEqgzLbtslWzZtswwZeZ70uu8J63TnNFn/1Y/BFlJeOVx23PhDwlSCqrkNmU9VZ7OtYbMtaYTTXzQePZT1WCqtGUkWnKjsr4hjU67uqsXQ7FLgnMswHAADpiwAJQKnp03p9Qh7e2tpXHV13/fXlruzRz0rEgkULL822UUuKKpq0e1AqFkJff/11cC6ftqovj9zNH9pTA26zaf9tZlfcNsxGTxhrOe2+sntvedbWbGUfhETRcatZXWpZUoujjm9V11V0JQiSw78++GH64l/HYlvWCqNjZvDQoe78IxMmuNOyiK2E81TZmepj0IdHqsYq7ZBwAACQ2QiQAJRYYVVHvtUjUQOvtStWeakKSAsvLYJ0+zSLKVUtGJ98/HFwLl+DBg2Cc2Xwwwqb2m+AvXpMT7vhjENtz10q5V1Z2fZo0tbO/GayPfbOpvzvQ8KoNckP2faVIAoaNA8GmcG33oZb1hQaqhKotK9jCqUVUCtwLO8gdl8Jp0pOL5XVSIRHAACgKARIAEpECyPNhomtOtL8jpK0epSUdisr704/+rReA5G18FJLUiJvX0ksXLgwOJfvsMMPD86VUu4mWzzuNrvrxwvsunMOtirB1U6l/ewPx22zJ+e8b/8JrkJiqQrlncXvugBSC2rN0Hpm1iy3yEb6iteyptcJhYaqBCoL33Kr153yHiN6rVIlZ2HVSPr5yaCAVJWlhEcAAKAwBEgAiqSFkBZcWhhpNoynRbU+rU/0FviqEipr2KPbqnlH+rReCy/NO1JLUiqpQiBc1SBl2+ltu33/zqN2w6if7NJrz7DfV1Hl0c62zFtua7cHF5BwvrVIx5KOKW35ryCVLf/Tj14fVMUTr2WtvK8TvgpJ/DFS3kHshVUj6ecnuiJOmwxoYLZ+PuERAAAoDAESgEL5qqPYBZevOirrp/XJEN6CW60ok6dMqZDBr4sXLw7O5QsPxi2VrStt5ojJtubIM+y0RnsEV4b9bNt+2m725Xr74j8kSMmmY0mLeS2uFaQqUI3Sdusoml7LVF2jKh7Pv04kqvX2r927u1O9RvpB7AqsyhM2+mokzeXyAZWEK+LKw4fu2mRA4VEqNhkAAADpiwAJQFzxqo78givRVUflFd6CW5/W3zt8eIVtOf30zJnBuXytWrcOzpXGdtu04El78O1f2QmXnGx/iFt99B/bsOors63/tS0/Mkg7FbSY1+LaL+ajst06iqaQxbe0egoCE/060aJFCxceiY4RhccKrPRvlzdIUhWj5rip1S6sPNVI/gOCVG8yAAAA0hcBEoACtBCJ3ZlINFBYM0IqKpgpjBaHfp6JbmMidoErKy3IYtvXtKgstdzP7NWJs+xrO8pOOeZ3Frd5bfs39vn/Y/pRRfCL+fCQ7Yrabh2F8y1rClk8BTy+yibRrxP6eRd0utAdE1u2bNmxq5rCGR8k6bVV7WJloZ/vdwksrBqpJBVxOk51v/gPCBRKpXKTAQAAkL4IkADsoAWIFiLhEERVR/pkuqTbWqeKFkpqIdLiUItCLaoq+jZOyluEhanKoSyL1J9Xv2FT5m0ya/wna3rQbsG1Mb5Zbx9t2G62Z22rVb1ycCVSRY+rjjc9N3ylSbMmR5e7pQiJoSBc1TXxWtaSWWVzfPP8n/3WwvyQSO1xU6dN21GRpNdWtYud1KqVq/IsS+VQUdVIRc3nUnCkdjUdp7pfFELpdimUSnSYBgAAMhMBEoAdVUfhT+rF70wUtU+m/eJQLURaFGqYd9kGVSeOFm3hxaqc3Obk4Fxp/GAfL5hry6yy1WrVyA6M+yqdaz9+8oG9qdFHf6ht++4af8A2kk/PDVWaaC6Ygkw9hy7q1Klc7UooH7UUKggPt9+mqrVVgZGOg+nTngiuyafXJx0nChwVLIuqPHU7dbyUNkwqrBrJz+fSz/PVSGrxVdiu4Mi3q6kKS8FWRb9uAgCA9FIpN09wHhGkRYjeDKpVImoVIKWhTz43btwYXDL7+uuv7d9fflkgsNDvuGjRouBS2dWuXcdq1do/uPSL2K3Uo/7GOVWPvRZbQ3JyCswH0QLjjrzrongfqf1jwE03udurhVjXbl0j8em5Arhw5ZaqDbRgLLXcNfbUXzrajapAKlZlq9Vrms3tc7QVUqeEFNKC/f4xY1ywKVE6PrNB7P3vKdxL5dw2VfkoqFG4U9hrqG7rkiVLbP6bbxa4vXrtPbFVa2t8VGM79NBDS7xRgSrfYj8AqF2ntv12z73sww8+cJf1s6/t3Zs5RwAAoMwIkCIuygGS3gCvX7/enf9w+XJ3umHDF3nXrXPnFy5YUCCUiDJVsVSvXt2db9q0qTvdd7/9rGbNmla1atUKqcBJ9mOvUG/E8OE7Vc2o6qhDx46RXPTqU3U/mynVi8KixFu8FbV4LNJ/5tmg4/5iU38824bPH27ta+0SfCEk92N7/MJz7Ja369jl0x6364/dK//qHz6zt2ZOs5mznrfn3vnaajVrZ+d2u8z+2vZQq0aRUsqo4uOuIUNcNYiqUQYPHcqiPclUvdO/b98CVUcKTO4dMSLlr99uS/yLLi7xa3dhYZLo+GneooX7u/SbatXsoIPyh3SLXl/0e2vekuj//9ukSbZu7Wfusnd8i+bWs1cva9bsl0olAACAsiBAiriKDpD05lTVQp+uWWObN2+2FStW2KZNm3YaFBxPOJSJrQry4Yx+N6/MC+4YsdVOng+5vHC1U0nDLr8le/jNfI0aNZKynX0yH/t0qzrSAmtw3m1T2KUFleaYRKWtTs8RtaGEqfKkrFth56553C5uPcAWNbjZnpvT3RrGGW+Uu+5Ju7TV9fZm3d42/flrrcmvK1nu5mU2uX+Ozf9da2t15L55N+xte3rCDHtvUy075Z7/s/vOr29Vgv8fyadjduaMGTsCT7129O3XLymvFdkuXJXoqWXtmp49KyQI198gtYuVtQpRr/36e6W/UWX5IKZ63jG2Ke82hOn1/cabb3YtdgAAAGVFgBRxqQqQ9O/4tjK9af149eoCn+SG+U9ExVfr+Paw0oYp9evWC86Zrf50TXCuYum+EH9/lDQ402Jhzz33tAYNGljdevWsTp065VosJuOxDwcxYRW52CqOAhpt0a9FlEJJzTGJyu3U/alZTOHnip4fL8yZU+bbuG3xSDuuw332U5f/s/k5rey3wfW/+MnWPdnL2lz3ljW5bar9rVtDq2L/sfcnPGRLml1qFx9Zw/Jrlrbb92+Psg6d7rc1tXrY46/2t2ZVKUNKNR2/QwYPdq8dOjZ69e5dIR8GZCI9/yZNnOTaxcKiUJ2ouUZ6XUjE3zX9nqr29X+TxP9dCn84ow9mDjzwQBeuh4+7sCi/1gMAgOgjQIq4RIcI/o2oPt1cuXKlffrpp3FDER8S+TenPiBKdHVKFAOk4sS+mS/qfhQFSw0bNrTfH3zwjjf3JZHox15tNX169SrwabYe55GjR0f2U2nfCiLlqepJlti5R6Jtu8tzf+YHSA9azQGz7IXuh9lOBUhbl9v4jhfY3f+5xCY9fZ21qF7Zcr96ze6fe4BdedGhBauMflpqY88430Zs7k6AVMHCVX8KQnv36RPJar90ES8g0evZQ+PHR+J+1dBqtaNpaHZFVUuGXz/Dov66DwAAoosAKeLKGyLoTbY+pVy9arW9Me/1uFVFPuDYb//9XUtW7dq1U/bpZDoGSEXR/e1b/hQsLX733SLv8yMaNSq0UilRAZICr3iDZaP+SbQfRKvFThRnyPjbF5aIkCt3/ZP2l5ZDbddRz9rD59QOrvV+tu8XDLVTOr9mrcY/ZkNPqWUuEsrdbtt+/pXtUjkmIPr5I5t07nn24JH32Zw7Wlt18qMKFTt3LMrzxqIsXsuaXlMHDBwYmfvSz0Urb6BcVn5enF4/b7/zTnvpxRfTqvIUAABEEwFSxJU2RND3+9kJsW8WJRxcaAZRRc+RybQAqTB6XNauXVtokBdv551EBEjpWHWkRfagvIWgKgsqaghuceKFR6oqeWDs2OBSOWx524adfLWtvmHWzgHS1hU2qcul9tTRw+1v1zUvNhDK3fS63XrBHDv60TusfZ3dg2tR0cLPS6pBSifecy9RVZqJpMe4Y/tzUn7bwm19OrbC8+Lizb6LakAPAACiiQAp4ooLEXyF0bzXX98pMPKhRP1D6rvQKGqLcMmWAClWuJUwXtinx+6ww4+wSY8+akOH3W3nX3BB8JWSCS8iwhQgRnmQr473K7p3dwucqFUUSGH3qx6vRydOTNBt/dbeubuz9dv1joLb8+d+Zx8+coP1XXuu/d+tp1qtXYpNj2zxuPG2/MQrrMthe+ZXKiEydCyFh2yrGuSvl10W2edmRQsHy57Cj6i0rMXyf7tVZda5S5fg2uTSMdU/7/Vd95EC7TtzcnY6nmKr4Lyo/20AAADRQIAUcbEBkt4gqjXqrYVv7VTJEq+KJeqyNUCKR491YYGSFgOnnnqqHdO0abFBoH7OLXkLrfCxoYXWzXnXRWXb+3j06fiVl3V351O56Cqp8OIsLPZT/vLLtW3rnrH+l/7TTvvbIGtbazezbRtt2cwH7ZG1LeyGPq2KCY+22eZ179lLE0fa0In/ssP+fJldc8X51mz/HVEUIkTP11EjR7rjKh2epxUhXiVlYQFJlOjvm4KZsuzEVlrhmVC6b4rbbCBeGyDHHwAAKA4BUsT5AEmfTku8OTZ/bNLEmuT9l46fHBIgFc4HKoc1OsI+XPZBcG1+UHjmWWe5NsRw20tsRYMX9U+WdbvDLRdRbOfR4szvBBeW+PDI226bVzxjI+96wj6ocoDVPbC+NT/zXDvtj7+z3YssJfrB1r/9ur372Ze2fsUie/Hpl2zFpu1W+fAr7KEJfayVwihEkp+ZIwoAbh4wIJJVo6nmZ/mERTFgjidVAVL49ak0c9j02htvPh7VSAAAoDAESBGlN3ZLlixxi4qnpk0Pri08PEhXBEiFC1efnfCnP9lHH31k8998s8CbfQUYF3S60LUpPjJ+/E6zlaKwnXVRYj81j+KiObywD4v+Ij/Xtm1aYlNuvNbufGmD7XfVFHvlhmOtavBVRA9Dtn8Rr+IvqgFzYfT3Ta8TCZmNVohwJVFZg7XCZuVRjQQAAGIRIEWM3gzGhgRyTscO1qdv34z7RJoAqXDhACk8/8qHizpO5syevVNVjKRDBUN40RLF3YDC4VYs3b/FtYhERe66J+3SVtfbm0fcanOe7maH/Cr4AiIrHAroQ4M7cnKyast/vfb5WWiennNRb1mLdXWPHu71I1l/23Sc+G36J099vFyDsAurRkqHvyUAACB1WEpEgBaqKtM/qVUr92ZQb+C0aNCniRMfm+y+54QTTuANHByFFlooXNy5szU49NDg2p199tlnblEQRarq0Q5FWiAqILvu+usjE8boPtNOTye2aBk3PFKLiCoK0qUqpNIBR1qrI6palYP2tb2YpJ0W9Px+Yc4cd6ypqlBB8j3DhkX2+ZxIem3Q7xsOj3Q/KLBNt5aq6tWrB+cST69Rer+gSqEZz8wq9y5qej3T67B+lt5/eHoN1GuhHhcAAAACpAqkTw8HDhjg3pz5GQ96ozznlZdt6rRprhR9v/32c9cDYXozr+Nm7ksvB9eYtTntVBtx32j3ibHe9D7JpYIAAELuSURBVGtxcUbbtm6hoZAyCrQA1kJYLWFa+OhYj8r227ptul91n8XusiZ+oVbS+SKRse0H+++W39hxJzS0mgRIaUMLeh1reo5oQa8PFnRsajZaJtLzT38Pw+2ies6pskb3Q7oEtsnmA+7wNv2JbOnTz9KOkvoAK0yPiyqqovK3BAAAVAwCpBTzi1RfbaRZF1rw602yPnHWG+VsalVA6ejNu97Ex87k0Zv9cQ89ZGeffbarjnljwXwXRooWGgqbtDhT21hF0W2/tFs3txDWMf/UzJmRONZ1u7Qga9TwMHe/hisfPLXY6fkZ2dkruT/Yd19utM3bYjuSc+2H1f+0N6teYj1PP5Ct/NOQniP6QEGVejo2NVhfz+VMWsjrd1E4Ft590v1dnDKl3JU1mUTvHzQXSq/p/jU0GZXJCuv0AZYPLz2qkQAAAAFSimg4auwi1VcbacGvN8l8woqiqPJAO+2E26r05l7HUOzgVC0qFEYq9FA4qe/T4kxtYxd16uSq31LJzerIu+1qx4lCO4oWrLo/FcZpQRSv4kh0v6nqKEotdjvLtS3vjLF2xx5rrS4eYs98+I1tc9dvte9WzrYxk36yq8ddbk32qOyuRXpSpZ6CYe2Qpedypizk9TzU7xKvZY227V/oNcsPFVd4lIrXUIWXhVUj6e+IZlUBAIDswhDtJFNwNH3a9B0LVJWc9+rd2+2qVZI3f4UNUs4UDNEunH/s9eZ9xYoVBT6dF11fmh2a9PMm5S0G/M9ROHJt3rGY7E/4w9twV/SucGqfK2zweJh/nqbLcy5388f26tS/2fSZL9hrK8wObXmMHX7oH61Z65PslOPq2567UHuUSRS6DMnJccexnsfpOGRb1TTxhjaXdxh0lChk+fLLL+21efOCa8pG4VFZtulPJP39uGXgwJ12+izt3yEAAJDeCJCSJDY40pv8Cy+6yE497bRSvdEiQMpe/rGvvvfetinvePIUbjw0fnyZF4zxjs1kBEm+3UKfmPtZHRVdUaDWn9ggLkz3xV+7d7cWLVqwIEKkxQYwCha6duuaFsetq6bp27dAGKHn3r0jRmRU1ZH+vqliLGfw4OCa0gvvyFfR7wN0zL380ks7tVCna4gJAABKjxa2BNMbLLUVNGtytFuga+GsqgvNsNAbPxalKAkdR49MmODOh8MjP4unPG/UVfmmT7DfWfyuW3RqEad5XPq0PFEzkvxME99uodschYVhw4YNg3MF6X5Vq5qep6qQ4nmKqNMxqtZKP6dGf2/0nEt1e2pp+Za1cHik559apWhZK8i1Lee9Nis8UmVWRX+IpGNOt0GtlHpd9/RY6sMOVZvqbxcAAMhcBEgJpDfuegOvT+cUHOnTQi2cK7JlB+lHIY6Oo6emTQ+u+WUHsETO4gkHSfqUXIsAzUhSlY6qlMpKzwM/00QBVZS2vP/9wQe7U92fWrRqUbZsxYfufo3sgGygCOE5NXrOKXAo73M4GRQsaA6ghoCH6QOWaM8YK5vyBin+vtJrlULCKLX1KejT67re44SpVVkbJah6FgAAZCZa2BJA1RYP5r2Z8q0xiZwJQAtb9tCCI95MkBNbt7L7UxDC6FgbNXLkjiHdOuZK03Kp2z9p4qQdlXeDhw6N3CwT3UYtrKl0QCbS36IhgwfvaBuNyhyv8O3ydPui0NaaLGX92x3+O5AO91G8x1YU0F/Ts2fGBYMAAGQ7KpDKSe1qqrZQeKQqDpV2a0cs3jShNHzVUTg82r9WLXd6dvv2KTmeVMmgT5VVEaCFiyrpSvppskIZv7202mmiuv227kfCI2QqXxmi57DoOaydBiuyIsTvwBgOGPS3MiptrcmyZcuW4FzJKTzS66j+DkSp9bco/phTUKa/G55+B/1NS1RbNAAAiAYCpDLSp256Y+7b1fSGXYMyWZyiNLRg0NwItY6p/cTTAmvUmPuCS6mllkstXPQJcni2RWG0OD2vQwe3QNTtZpYJULH0HH5q5kz3HNbzsiLm0+jfUhuWn+HjKWjQ38pM/5Dl0zX5FbV16/1SZVsUvadQYO9fR7VNfzrdR6qy0jGn2+7pcdffNu1+mcpjDwAAJA8BUhn4IaD+jR5zjlAWCl60YPBb3Es4jNxzzz2Da1NPCxfNJdHcJd0m3UYFplrkhOm5oMWpFgrZsjAE0oFmnMU+h1NVERKuSPR0GzTLJxNbsePZsOELd1q1alV3WhS9rqpKS4G95sal6+uojjnddl/F6lGNBABA5iBAKgV9gqZP0vxgS7/QZ8GM0vBVRwpewjsRKYzUJ7hRCiM1WFoBqW6bAlMtctSSEvtc0CI1WxaGQDrxz2E/ZDsRg/KLopDAVyR6vh0rm7Z5X79+nTst7ncObzqgEF4bG6Q7XwEXrxopigPeAQBAyREglZD/RNXPJtCMF6qOUFq+TSFcdSS+ekef4EaNAlL/qbIWAWpJ6XhuhwLPBXYwA6JLz2HN5lMFkJ6zmtmnkEcVhIkUrx1XwVWUdmJMFd3HmgdXFL9Nv0Rhm/5EKqwaKVnHHgAASA0CpBLQot9/oqqZEppNwIwXlJYfuB6uOtJiToPX02HhoMBUC9DaB9axlf/v/9nRTZvyXADSiB+Ur8BaVEEYrzW1tPQBi35ObDuuKhMVXGUbf382OfpodxpPlLfpTyT93fAz9TwFjPrdqUYCACD9ECAVw88m0BsefZKqmRK0rKE0dAz5gethWsRpMZdOAYwWoDNnzbJWJ59k7y5a5KryGI4KpJfwwGN9MKJgu6xDtgtrWdPPz9bKxBUrVrjTPzZp4k7DfPuv5kMpPFIFZ6a39uk9U3gel0c1EgAA6YcAqQjh2QQqL8/GT1JRPr7qKHZxlS5VR/GoNWHM/fe730O/FyESkH58i5H+tmlRr+ohtdeWZtCxXt8Ka1mLYjtuqry3eLE7bdiwoTv19DqZbtv0J5Kfx1VYNVJ5K+EAAEDyESAVQm9kBtx0kzuvN9iZWl6O5PAtHbFVR1pcZULblz5R1u9BiASkN/1t06Jeu3+pvbYk267ra1rwh1/fXDUNH7S4+0YBkeYfhV/n9Z7Cb9PvW+GzsZq5qGokfdiiUBIAAEQXAVIc4bY1wiOUlsrxY1s6tJjQnAstrjJl0RAbIk2aOCn4CoB0oueydv/Sa5Req/y26/Fai1atWuW+pgW/p9cAtWLxt9JsyZIl7vTMs85yp6L7LLxNP63wBXcHDFMomYi5XAAAIDkIkGK4EvO+fQmPUGqqOtKn8irHj23peHTixIyccxEOkTTTQ3NUAKQnvUZNnTbNzWeL11qk6pC2p5xa4PVNgUgmVFUmyn2jRrnTtu3auVO1wvv7TDuSZcI2/Ymivx9+d8DwjnX6QIJqJAAAookAKcbgnJwdnxISHqGkfNVR+FN5lednWtVRPD5E8nNUSjNDBUD0aD7bO4vfdUO2fWvRXy+9NG7LmgKRbK+m8VRppPcPut80A0oBSHibfu1Ihp0puNSHLFQjAQAQfQRIIXqzpzfLqqbgU0KUhCrWNC8ktupIMy5Unp/pu+t4WkA+NH68O9+nV68i56cAiD4/ZHvwXUOtSpUq9sZrrwdfyW/JpWVtZ5MmTnSnXbt1c9v0KwBR0KZNE7ivilZcNVJZdwkEAACJRYAUUPuRf7N3Z05OcC1QOFXaaBaI5oV4On40HDQbZ1woLPOtL/ePGRNcCyBdqbJywI032datW4Nr8jVv0SKrd1mLR9VH+gDqvE4XuCBJLb0+aKO9r+QKq0byuwTqfgYAABWHACkwYvhwd3rzwIG8MUaRfNVR7PbVvupIw0GzlVpfVMGnUI1WNiA9hSsrw265/TYXioweMdKF55rvg3y35L13kH99/q8dlcwKQgiPSs9XI6lyS/ejp/ZAzZOiGgkAgIpDgJTHf3KouQXMKEBRCqs60nwLdtbJ17tP/pyUu4YMcacA0ofmzfTv16/Aa5xCIy3m/9y1qwtFfKWh5vtoyLYqeLOZ2t8VbvymWjVbOH9+Vm/Tn0gK3x4YO9Ydb2FUIwEAUHEIkPKE5xYA8ejTTn3qGVt1pNDxqZkzmW8RohYEDaHXgooKBSB96Pmq7eY1d8ZTGBKupFEookpDXx2iD1+aNTk6a3fMUuCm9vdfVf6V/XfzZrbpT4Lw8eb5aiTNmqIaCQCA1Mn6AClcfZQtA49ROjpG9GmnPvX0VHWkLZk1ZJaWx51d0OkCd/rY5MnuFEB0aQGuhbgqisIBuSo/CgtDfHWIXgf1euh3zMqmqhDdb31693bnf97+M9v0J1Fh1UiaNaWqYFqmAQBIjawPkF6d+6o7pfoIsXzVkT7l1Kednj4FVdUR7Y6FU6imygVVMrAFMxBdvmVNC3FPgZB2w1LlR3H0OqjXQ/98z6YZNdf162+LF/3TnWeb/tTQMfnO4nfdh36eQk9VB2tuF9VIAAAkV9YHSNOnPeHmO1B9hDC/qApXHYk+/dSnoFQdFe/U005zp/Ne/2X7bwDREa9lTQtzbQZQmr+Jej1UpZJ2oNTfU71uZnpViFr2Xpw923bbbTd76dW5tDGnkI43Vf/66jdPc7uoRgIAILmyOkBSqb0+uTrzrLOCa4D8hcGJLVoWWFSp6kgzGEryiTzy+d3onn/uOXcKIDpUJRSvZU0L87LO79Fz3m/B7qtCMnHItoI3tezVPrCO/e3xKXbwwQcHX0Eq+eq3wqqRsn24OwAAyZDVAdKHy5e70yMaNXKnyG6qOtIMDy0MwnzVEdsxl57e2Kv9j7YCIBq0qNbrXOxMN1UPJSIgV/ikLdjVAueHbJ/XoUPGDNl2VVsXXezusylTp9rRRx8dfAUVoahqJB13c+fODa4BAACJkNUB0qJFi9xpgwYN3CmyV7yqI791NVVHZde0aVN3un79encKoOKotUeL6tjqSlVx+IrBRFELXHjosR+ync4z0cLh0eQpU/hQIULCs7g8VSNdeVn3jKyCAwCgomR1gPTx6tXujSDb7WYvvanUm8vYqiO1YIS3rkbZ1K1Xz536aj8AFUMta2rtCbes6XUu2TPdFMD7NiMFVwrq07Eaye9SR3gUXeFZXOFqJF8FRzUSAADll90VSG+/Y81btAguIdvozaTeVOrNpaeqI7VeqAWDYLH8qlatGpwDUBHUPqqQPF7Lml7nUsG3GfmFvQL7izp1Sost//39p13qCI/Sg6rpNAieaiQAABIvqwMkZCdfdaQ3k7GfxqvqiB35AGQCBTTalSockqtlTSFIolvWSiK8sNcHONryX5U9UV3Qq+XP33+633TbCY/Sgz4AKqwaqVmTozNmJhcAAKlGgISsohkWsVVH4U/jqToCkAm0QFZAEw7J+99wg907fHiFhiDhhb0qPlXZ4xf0URm2r9uhXbx8y59v9ePvQ/rxoaWO/bBMmMkFAEBFIEBCVvALgthtq/VJuN5cVsSn8QCQaL7lKjzXzbVeTX3crrzqysiEIHrNnTptmhuy7dvaVO2jWU0VWZGkIEu3Q7t4hVuakb50zOvY12Opx9RL55lcAABUlKwOkPRGYuGCBcGlaKpRo4Y7ffnll90pSs+3IWhB4PmqI30SzqfKybNly5bgHIBkUzXFpd26xW1ZO/7444NrokVDthXi+93aNKtJFUlqbUvljCRVp2ouk4Isfcig20NLc2bRY6nHVBVlYVQjAQBQclk/RFtvFKNSNh+Pho/63WsY/Fg6sW0IXrpUHb3z9tvu1O9klo7eWrjQnW7Y8IU7BZAc2hRA1RT6u+ZFoWWtJBTi+yBp3ITxO1rb1IKnUEdVSclY3Otvqn72Sa1auepU3Xe6z95Z/K67PXy4kHn0mKqirKhqpCi/JwQAoKJVys0TnM869evmL8xViRLlMEEVNApBFHyoYiaT+MdAVn+6JjhXfvrk+oruBYdkq+ro5oEDrU2bNsE10aaFkxY0y1Z8mLYLmWuuvtpefGG2DR12t51/wQXBtQASRYvd+8eMKVBhKQpi0uW1Lh793Xv5pZcK/F5a8J951ll2RKNG1qBBgzK9Lio0Wrx4sT09c6YLDTwFRxd0usB9aIPsoOfOzBkzCuxQKDrO7sjJofoMAIA4CJDyqJw56jMONNNCbQmaYxHVVoSySHSAVNgbQlVx9e3XL20WB6om0C5xWtRodkO68o+v2kH0iT6AxFFVTv++fQtUHbnqnREjMma3ML2mL1myxOa/+eZOIZna8+rWrevCJFVqVq1aNfhKQWvXrrXVq1bbG/NeL3Bf6f8/t0MHa9GiBdVGWUwfOI0aObJAoCh6b9ihY0eODQAAQrI+QPp11V+7TzM1zDPK9Kmpdg9TRc0bC+ZnzOIgkQGS3gTeMnBggQVCulUdiRaFl3Tu7B5rtVKk6yfimimithAhQAISK/z88lSlek3Pnhm74FWYtHLlSvtg2TJbsWJFgVlPJaUPE1q1bm1NmjSh2ggFqH0tPHxeqEYCAKCgrA+QDm90hC1f9kHk29jEt7K5HXWmTMmIECkRAVJhVUf6dPnOvDd+6bRI0O/Sv18/90loureg+Ko5IUACEkOvEZMmTnIzgsLS/fWirBS4a1j/h8uXB9fsbN/99rOaNWsSAqBYOp6GDB5cqmok/3f7gbFjg2uiS7dVLa+ZHDQDAJIr6wOk09q1y3ujMNt9KpmT96Yh6sKfOmdCO1t5A6TC3uylY2ARDo/SvXVNFXPaSal5yxa2cP4CAiQgAeK93ukDhYfGjyccARIoXjWSnmsjR4/e6cNGVT9r4Hs6/J3TBzsff/yxq8DLtJmaAIDUyOpd2KR69b1ceKRKiVRuGVxWCowUHOmNjIIk7SCj4CEb6Q2edk0JL6ZUdaQWv3QLK7QwPKNt24wIj2T6tOnu9Kz27d0pgPJxHx507lzg9U5/u7RzGeERkFh6D6H3EnqOeWorVxW4dneN975LgVOU30fqPZOvCtY8MV0GAKC0sj5Akq7durnTSRMnutOocyHSlCmuN19tW5fm3f50CL8SRWHL1T167PTpoD79Uwl5urX2+e239eY0E8IjHYtqr9HxedRRRwXXAiircQ+Ocx8YhHeV1OudqmZpQwGSQ+8l9BxTe6g+tPMUvugDH40ViKU5jFH8UE8BtH/PpFY80eV4vwMAAEUhQMqjT299FZIW8+lAb2wenTjRDU3V0GiVT2uRodahTObDlvCn8Aoq5rzyclpWHamcXLutublWUx9P+/BItJuNaPAogLLT67nC8vC8I71WpOPrHZCuNFvsqZkzC61G+vGHH4Nrzb0f04yyKNF7jQE33eTO633G+eef706lT69e7usAAJQUAVJAW7zrjfmQvEVvuoQw+uRZPewaAO62bs5bZGjujMqSM62tTY+JD1vCNNhSQVo6tXDosVHYpyBMoaXelOrNabrPsxIdewr3FGzSVgOUnSoDtPNmbIuuXit4bgGppc04CqtGuvLyy4NL+fReLCqVPXq/4Xd1Dc/N9OMQXOVz374Z954RAJA8BEgBvTnQdu/6Yzoo7zSdaKCjQhS1NOiNjcqSVV6dKRVJqjrSQsr37ouvOurcpUvatHDosdDMKj02eoPpq470pjQTtpNW65qOPf1e2uEFQNnodULVDeGWNYXlatFl63mg4sSrRvpiw4bg3C9U2VPR778UCmljDgmHR54PkVQ1pe8jRAIAlAQBUojeGOhNgT7xVfiSThSiqKVBA1UVJImvSFKJdTr2uYerjsILKc0JSqeqI5WH63jSY6GZVaLHSI9VJlQdiR6rK7rnV4dplxrmsgClpwWcWtb864QokFWVqcJyABXPVyM9Pn2aVd+7enBtQXrPMmL48OBSxRick2MrPvzQzcws7L2GrtewcH2fvh8AgOIQIMUYMHDgjnawdJmHFBYbJOl3UYm1Ps2+qFMn98l2OlQl+faNcNWRX0hpTlDUAwotBHX8aDGoVjUdT3osfHCkxyhTQhb9rqra0xtm/X6xWxwDKJ4q+PxOjJ5vWeM5BUSH3kPpQ6GLL+hkm77ZFFy7M71/qaj3kfq73LBhQ/f6UdzGIvq6vk/fDwBAcSrl5gnOZ536deu5iiN9khSmipF4PePpSrtvzH/zTRckeVqYnNuhg3vDUJG7lukx8FZ/usa96bl/zJgCt1U0U0dtUVEOXXTblyxZstN9rWPsjDPPzJhqozD9zip916I33g5yWhRrwLuCJYb+AvFpdljsrpKZsCMjkEkUHE2fNt19IFQamfA+EgAAjwApToAkmRYiid78LF682J6eObPAp9yqjDnzrLPsiEaNUv5JdzhAUnWR5gaE29VUdaSWqKh+Aq/jZMWKFXHv0wsvushO+NOfMnZmSTg8UiCp+SyxCJCAwuk5pLaR2ErLwUOHsuAEIkaV0R8sW+b+5oefsyWR/PeR2+zr9+fZ/A9W2FszJtuMd78KrpffWfNLL7Wzj/ydHXhMa2tWe/fg+v/Yqnlv2NJPl9izYybZwo3b3bWV655ql3brYGef08Ya7lXZXQcAgEeAVEiAJJkYInmFhUmi+6Rp06Z22OGHJ33OUDhAiqXboZbCKFUd+cDovbz7bs7s2QXCLoUozZs3t1atW1doVVcqxIZH9w4fHvdxIkAC4tNzQ3PDYl9Dbh4wIONfP4BM4N8PrF612pYte3+n91KxUvY+ctsae6ZvN+v37Gf5l48dbHOfuNjqVsq/uLP19sxlZ1u/uT/agWffbKNuv8COrF4l+BoAAAURIBURIEk4RMrUlgLferV0yVJ7Y97rbkeOMC1qGjU60hof1dhq1qyZ0FApXoCkT+C1I56GmlckhWzr1q2zT9essUWLFtnCBQt2qo5q266dtTzhBDv00EOzZnckPSeG5D1n9Ga5uJCPAAnZSM8RPScKe03QXBRtDhCmvy9du3WNdJsugKLpb97atWtt3uuvx61SSk2IlGs/vf+gnXX2PfaxLh5ynT39wlXWaNd4CVKu/bDyMbvyjGG28c+j7OGbTrJauxSaNAEAkN0B0kmtWlnDww6L23oTFg6R0mEWT3kpOPnoo4/sk48/toULF8b9VE2hUt26da1BgwZWt149q1q1apmCpdgASYFE3379UhrG6PHdsmWLfbh8uW3evLnQ8nS1pTU5+mj7Y5MmFT47qqKEqyZKEqgSICEbaXh+l0su2WmhqLA+3oy3TKtwBZD/XkqVys8/91yBD+ZS8nz/+SObdG4Hu3PplrwLLWzQKxOs6yG+dc3LtW0bXrO7LrvJ3j5uKOERAKBEsjpA0hbxCgo0vLk4eiOgnaYUpihIuHfEiKwKEPynairVXr9+XaH9/6rKad6ihe25554uXBIfMOm/2PssNkBSMHVnTk7CAiQfDokCItmw4Qv3O3y8evVO1VaeD4t8QFanTp2sqTAqTHjQb0kDIV9poflW7CSFbOCP+djniF6L+vftW+A1Jxv/lgDZSPOT3lr41o4B3MkPkX6wVRMvs7a3Lcg7X9Ua3TbTZnQ7NLT1sg+P7rL15w+zoV2OsuqERwCAEsjqAEnbsOqP+RsL5pfoDbw+PZ40cdKONwDjJoyv8DariqRQbePGjQUqdzZt2lTsHABPYZG+d5dddrFt27YF15pV33vvvIVXe2t05JHBNfGprSxWaf792LBr3/32S3iLXiYID/rVfVaaoealfY4B6UzPFW3Frwq923PutM5durjr47WsZUM1K4CC/MiAxyZPjlulmEg/r5poHU+53ZbpQuNbbc7T3ewQlyCFwqMLRti9f25k1ciOAAAllNUBkra3v+Sii0sdBGkxMCRvQa1FQkW0XKUDvUlav369O6/Kpf9u3uzOh0Of0oQ9paHHxKtdu47VqrW/O+8DoniVUIhPn5r6nfHKUh12UadO9uWXX9pr8+YF1wCZywem4ueDhT908LL9wwcA+R/CJfW94/YPbXzbc+zulVvzLvg2tt0IjwAA5ZLVAZL+eDdrcrT7JPi6668Pri0ZtSP4QcJRGfqc7sJhhbd/rVp248032aF/+ENwzS9q1KhBcJckem48MmHCjlktZZlhpOfIiS1alun5BaQbP+/LO7P92bZ169YCIbn+VkyeMoUAG0AKbLZlD3S1c+9ZnHe+up1wzwx7qOUnNozwCABQDpVvyxOczzpqHfho5Uqb9vhU6/LnP5eqleC3v/2tnXHGGXZQ3br25BPT7Plnn7N/f/WVCzr0NZTe/vvvbxd06mQ/5/5s7y76p7tOrXEvzplj1faoZm1OOcX2228/FxzpP1o/kkMVdj2vvtpee2Wum9HyyMT/c61+pfXcs8/avNdet959+7oZUkAmu2XQIPt41ergktnq1ats9cpVwaX8iqRxDz9M6A0gRapY9d032otTF9om+8E+3/iFrX76OfuW8AgAUA6/zNPLUupBlzf//nd3WlqqytB8Fy0ONCNGFRdqY1ALF0pPoZCqVTRgUp/We6qEubRbN/cpP5JD961azjSrRVVgqjqaOm1amWdCqYJJj+FRRx0VXANkJoWuse24P2//OTiXX8GXM3gwoTeAFKpku9Y/2k6uVdld2r54me3SfYLd35XwCABQdlkfIGlxq0Xu6FGjyhz6qB1BiwMfemjehQapatcqgqSy0WDJp2bOLDDPSLsXqUVkymOPcb8mkIIj7Uio+1b3se7zdxa/W+qWtTDNF1MI9dfLLmPRjIym1yLNxCuM2nC186NaOgEgpaoebM1O9i2z39rab3/gjT8AoFyyuoVNqlSpYnvttZdrQ6t/SH37Q5xZOyWlNh21YOnnvP2Pf7if+cILz7uff9BBB7l/CyWn4OGkk0+2w444wrUIemqL+mTNJy78o12w7DTnSAN+r77iSvtg2bId7Wrnn39+uUIfLaj/+pe/2HfffmfD7r2XAAkZbdTIka7dszBqw124YIFNfPRRF6zuVb261apVi78HAJLsR9vw+li7echr9rWbdrrV/r3pYGvX6SirQQUSAKCMsnqItqcFryqGRFUviZhRocX59GnTd+y+o8qkXr1726mnncaCugzCQ8vDyjLcOdup4ujVua/uODYVHF2bd2wmajthVd71692nwDbmQCbyx3pJ6e9A23bt7Jxzzy1zaygAFE/h0Ui7/Pp1dv7YM2zDtdfa+A3b8673u7Htnv9tRcn9l83p1dF6Pvsfq310c2vW+FD73R5b7V/zn7aZ735lVvkga37h6dak5i72/fp37dVZ/7D1vzrPxiwcam332SX4IQCATEOAFNAMC81+UfuO2tESJV6QpLYeLSIYplp68RZsZdlePhspOJo0caKb1SWJDo7E77ym4/yFOXMIS5GxVE10yUW/tNgWRq9PzZvnLb6OPZbQCEAKhMKjSUPsksO22hsDO9plj32W97Wq1ui2mTaj26HFt7JteduGnTPF9rv3Vut8ZA3Lj4R+sFUT897D3rbAKrcaZnP/73yr46qZttv37461LjdVtpznr7JGu1LiBACZigApRHNgtLgeN2F8wrfk90HS9GlP7Nimvv8NN9jJbU5mUVFKCin69+3r5vV4CixuHjgw4Y9bulN13ZIlS+y+UaN23F/JCI5E/1b/fv1cldiMZ2ZZ48aNg68AmcUHpfHoteiCThda46Ma26GHHkqwDSCFYsOjPa2S/Wz/mXe7tez2N9uib2l8q815upsdUmSClGs/vT/F7v/mVOvTat+8nxHYUZX0P2t621T7W7eGtqMZ96el9uCQDXberafbPuRHAJCxCJBCFPKc16GDC3i0s5qGYyeaFtkvv/SSPTF1aoEF/V+7d7cWLVpQsVFCuh9nzphhtw4cFFyTTxVkffv1y/pFmxa4zz37XIHAUvdN1255bxqTFFhq90FV2ikYvfKqK4Nrgcyi59YlnTvveF55Ou7POvuspPzdAIDiBeHR5e/YsQ+PsRtbHxBUDeX5zzwbdNxfbKoSpMqn213zRtt5dXbN/1pcP9qnL/7d/ndSG2sYriZSVdLJne3hDY2t77OTrMeR1YIv5MldZ39/9Uc7vk39X0IlAEDGIUCKsXTpUuvY/hz3KfLkKVOSuhhQC8QLzz+/o6VItAg5vvnxVG+UkNqyruiev+28p8du5OjRWXcfKlRbsGCBPT1z5o5ZUb4a4oJOFyQ1VPOthWrXuXf4cIJQZKRwlZ2k6vkFAEUrIjxy/m2vXHeuXfXkv/LOV7cT7plhj55f75fKohJRVdKDdtbZ99jH+1xmk167yVrswZ5uAJBtCJDiSPViWJVPc2bPtkcmTNgRhKgq6cyzzrJWrVvziXYxtKi7f8wYe2jsg8E1+a7ocZVd07NnRocZ+t3Vojb/zTcL/P46drtcconbqS7Zv7+fBZOK0BWoSL7NWcc6myIAiIYgPLpsjh08fKLde069mPBIttlXs2+yP/V4yrbmXSo4v6ikfrQ1j19tp9/8qv3q7Afs76Pb0aoGAFmIAKkQvh0n1RUVqoBSi1s4DCBMKhndd3169dqpGumh8eMzas5UYaGRP05SOaCd8AjZQn8T3pj3upsflopgFgCKt9U2vf+43fSXwbakzf323F2nFhrq5K5/0v7S8nqbrwslamOLsWP+0Y9lrGACAGQCAqQiVFSIJEWFBCe2ak2bWyFUzTUi77EKtwWKtpTv0LFj2i769HstXrzY3sv7LyrhYngXKoZmI5Np7tFnn32W8MHzAFBmud/bmjmj7dqej9iK7dXtpFHP2sPn1A6+uLPcb16xG1tebjPcJO0qVq/H32zmdcfZHiVMgXI3vW63ntrdHv8qzvwjAEDWIEAqhg+RtFC/d8SICqmwKCxMErVp/bFJE2vYsCHVHyFz5861ITk5BaqRKvIxLAtVVH2wbJk9/9xzBXacq8jQyNP9e+Vl3V3l0eChQ1lYAwCQClvX29szZtnzzz9l0+evte3B1ZXrnmqXdjvZGh7S1E5tUc92d9f+YOvffs3+seJjWzr3CZs6XzOQvBrW8Kxz7Ozjj7B6fzzRTm5YvYiKolzb8va9dkqnsfZlrR72+Kv9rVlV6o8AIBsRIJWAD5Gi0g6lYOGthW+5dorYYEHVSWwfnU9VA0MGD94x8NYbPmqktT/nnOBSdGgg+IfLl9uiRYt2qqDSDmoKjKIQFIafD7StAQCQ6Tbbsge62rn3LLWal4y3OXe0turkRwCQlQiQSsgP1pZxE8ZbmzZt3PmKppBkxYoVrrVJg7hjK26aHH20q1A66KCDMmoOUGmEHztPbYk3DxhQYeGHqspWrlxpn65ZEzcw8lVGRzRqZA0aNIhE651us9+BKt2quQAAQBnlrrGn/tLRbpy3m505doaNbPc75h8BQJYiQCoFzXwZcNNNLqSJ6g5fRQVKokoWVbH8/uCD7cADD8yaAED3S/++fQtUbKmC5uaBA5MeBip4Wb9+vasuUmi0+N13C9wOUaDVqNGRka0eU3XUFd27u+OpImaCAQCAipH71Wzr0/xqe/7nk+2OuQ/YxfV2C74CAMg2BEilFG6LUhXGHTk5ka7s0e3V8NelS5basmXv79TOJQqVateuY7Vq7W+HHX543vnaGRkOKMiZOWOG3TpwUHBNPv3+ffv1S0hoo/v766+/3lFZ9PHq1TuFRaJ/s2nTpla3Xr3IVBjFE3ufaRh55y5d3HkAAJDpfrbvFwy1UzpPsK8Puc6efuEqa7Qr9UcAkK0IkMpAi+pJEye5OTCSbjt8qZpk7dq1tnrV6kJDJQkHSwo6qlatmhFtcOFqGk/VSCNHjy7RTmLaEW3jxo3uPvzv5s0uKNq0aVPc+1E/t3mLFmlZ9aX76ZaBA10AVpr7BwAAZIpf5h/td9UUe+WGY61q8BUAQPYhQCoHDbPu06uXCyJUjXTjzTen7QLbVyr9+8sviwxEPIVLoioa8QGT/kuHgEQh4P1jxuy0q92l3S+zs9u3t912221HQLRhwxe2fv26QquJvNhKrho1aqTlIPPYqqOotmsCAIAk+9+7NurMi+z+j6vZCffMsEfPr8f8IwDIYgRI5RRbjZTIdqgoULC0ZcsWN79n8+bNbr5SceGSp1Dt4Pr1g0u/hE3ym2rV3GDvWOUNoPR4aN5QLP0Oaivz/O/y1Vdf2cL58+1/W/4XfKVwvppozz33dG1n++63n9WsWTOjWv7Cc76oOgIAIDvlbl5vHyz9wJbNn2ajHpxn31hl27vN1XZzl+Z24H4H2WEN97fdg+8FAGQPAqQECbf7SLq1tZWVfm/x1To+mJHiKnai5KB6dW3tmk+DS/kuu+JytxNa9erVM37YuB7HUSNH7ggGs+X4BQAAAACUDAFSgs2dO9eG5OTsqODo1bu3nXraaVm/EI9XGaSqpljhAKosfHVQrNiKp3iVTuHHzsv07eoVHE2aONGemPK4u6wKuqt69Mj4wAwAAAAAUDoESEmgsOTll16yfr37uMsESelDA7IHDRy4U4ve8FEjrf055wSX0l9scJTuM7yAKPrXv/5lv/vd74JLAAAAQHojQEoihRHTp03fMR/JB0kn/OlPGTMjKVM9M2vWjgDQO61dW7t5wIC0rs6JFxxdm3dMHn/88e4ygMTQa8g9dw+zV157lQ8OAAAAkBEIkFLAB0nTpz2xoz2q/w032Flnn0WrUIRpgPiQwYN3qkYaN2G8tWnTJriUHjQc+7HJk3f8LgRHQPJoh86O7fMrFtUWmpP3OgIAAACkOwKkFPKtbaNHjdoRJGlxccaZZ7KQjyg9ZuEt7b102G1PweWc2bPtkQkTChxv519wAa1qQJLoeXdehw7uObd/rVr2xYYNbih95y5dgu8AAAAA0hMBUgWJrQhRe9tfL7vMWrVuTVVSBKn1K7zLnugxGzx0aOTCPx1bLzz//I42NaHiDUg+Bc79+/Vzr+v+OXdJ584uTJo89XE+KAAAAEBaI0CqYAomXp376o45SaJZO+d26GBNmjRhVlKEaHF4/5gx9tDYB4Nr8l3R4yq7pmfPCp1zona75559rkCbpNrU/tq9u7Vo0YIZLEAK3DNsmHt9UHh05VVXuuv03FSIJJOnTCHEBQAAQNoiQIoIhRNLliwpUJUkCidannCCHXXUUYQAEaH5Jn169doR1IiqkUaOHp3S1jAtTOe9/ro9/9xzOyqjdDsu6HShndzmZDvkkEPcdQCSb9yD49wHAeHwyAuHSE/NnMkHAwAAAEhLBEgRpBkab/797/bE1KkFWqY0v0YtblQmVTwFfoNzcgq0iYlmnXTo2DFpYZ/Cqw+WLSsQGglBI1Bx1DZ6yUUXxw2PPB8iNTzsMLt3+HCepwAAAEg7BEgRF6/KRNTm1rx5c2t27LFUmlSguXPn2pCcnALVSGoduyPvukQ8Lr4ybemSpQXa04TQCKh4akNue8qpJdqdUa/n2tmxbt26dt311wfXAgAAAOmBACmNaPGxYsUKe3rmzAJtbmpbatuunf2xSRNr2LAhMzZSTBVjgwYOLPCYyPBRI639OflbeZeGrzJauHDhTo+z2tMaH9WY0AiICIW8+q80VaF6Led1GgAAAOmGAClNFVWZQqBUMZ6ZNcv69e4TXMqnSrGbBwwo9DHQ47hy5Ur7dM0aW7Ro0U4tcfr/Tz31VDumaVMeRyBictc9aZe2ut7e3B5cUSoNrOuUqTaoBe3IAAAASA8ESBnCVye9t3ixzZk9u0CgJJqf1LRpU6tbr57VqVOHGUpJ4ltUYquRfHuLvv7ZZ5+54G/Zsvd3+j7fmnhEo0bWoEEDqoyAyPrJ1j3Zy9pc93c74LRL7aqLTrGmh//eau9TzXYJvuMX223T26PtzxePsRUubNrTjr7+/+yRq/5o1Sq5bwAAAAAijwApQ/lAafWq1fbGvNcLzE8Szek5uH59QqUkUFXRzBkz7NaBg4JrCqdgT1ViBEZAmsldY0/95Sqb2/oeu/fPjYoIgnJt27pnrP85/e35jUqPKlvNC+6zp4e0tVq7kB4BAAAgfRAgZQnN6Vm3bt2OVqmFCxbsVKUkCjRq165jtWrtb4cdfrhVrVqV1qkiKCxav369ff311/bvL7909+3Hq1fvFNh5e/z2t3Zp98vs9NNPZ/g5kMZy182wfpP2tUEDTrDqReRAud8vsvs6X2pj3t/sLlc+sq9NndLDmuxR2V0GAAAA0gUBUhZTqLRx40b7cPny/Dk8n366U0uV5yuWVC1TrVo1V7WkcKl27doZXzWjaq4tW7bY2rVr7b+bN7v76rvvvis0hNMMquYtWrj7qvree9u7/3zXJj36aPDVfNpB7ZqePak4AtLST7bu2Zn2yQnn24nViwiCtq2xZ/p2s37PfpZ/ucZ5NnzWnda+zu75lwEAAIA0QoCEnSgwUUWNqpU2bPjC1q9fV2hY4vmAyZ1v2tSdiqqYvCiFTT4UEp3qdxX/+0rsQOtYmldUvXp19/v+plo1O+iggwr9HbWzWp9evXYadj5y9Ghr3LhxcA2AjJG7yRaPvtIuGvWOubFHlZtZz+nj7NqjqxuNawAAAEhHBEgolVWrVrlTVS2Jr8Ypqm2rMD6AieVb6MpCLWTxFBeAxeNvn789++63n9WsWdNq1KhRpnlRane7f8wYe2jsg8E1+frfcIN17daVaiQgY/xg62YNso69n7Jv3OUD7cxRE+3ec+rFGbANAAAApAcCJCScD5nClT3iwyavLKFOWcWGVb4VT3z1kJQ1HCqNuXPn2pCcnAK/uyq47si7jrlIQLrbbpvfn2B/Pfcue9eVHlWzw3s/ao/1amp7UHoEAACANEaAhMjxs5lKK50Gfut3HDF8+E5tcrfn3Gmdu3QJLgFIL7m2bcMcG3D2tTbjq/wd1/Y++16bMaK91WHHNQAAAKQ5AiSgAj0za5b1690nuJRP1VI3DxjA7ndAmsnd/J6Nu/QvNvyd/EpLdlwDAABAJvlVcAqgArQ/5xx7Y8F8Fxp52gnvxBYtXbgEIE1s+8xevKP/jvBIO64Ne6A74REAAAAyBhVIQERMeewxu3XgoOBSvgs7X2x9+/VL+lwmAOWQ+629/+A1dv6wBcGOa03siscfsv7H1mTHNQAAAGQMKpCAiNDsozmvvOwGanuakXRehw5u8DaAKPrRNsy9z3r78Mhq2yl33W29CY8AAACQYahAAiJG2/1PmjjJ7r377uCafFf0uMqu6dmT7f6ByNhum5f/za455w6bv1WXq1nDHg/Z365rbtVLlR5ts69m32R/6vGU/XxgEzvx2KOs4e9+Y1v/9Q+b/uQi+9aqWu2WZ1m7o/ezKt9/Zv+Y+7K9+9lv7cyxM2xku98RVAEAACAlCJCAiFq6dKn16dWrwHb/B9Y9yEaOHm2NGzcOrgFQMbTj2it2x0XX2OOfKj2qbHufPtSmjTnP6lUpbaTzrb1z99X26H79bWiXo6x6sGPbz6smWsdTbrdllU+3u+aNtvPq7Oquz/1+kd3XeaRVyXnYehxZzV0HAAAAJBstbEBEKSR6Yc4cV3nkKUzq2P4cG/fgOFepBKBi5G5eZhNvvDkIj8wqH97DxgztUHx49L9VtvC9jVbgk5ufPrMPdrnchnb9447wSFVJG1ctt/+Xd67yMcdZ4/2r5F+dp9IeDe2ktk2tXq3dg2sAAACA5CNAAiJM7WrXXX+9jZsw3lUfeWpvu7RbN1u1alVwDYCU2bbe5t59o931xsb8yzXa2+D7r7Jjqxe349r/7JOnn7d1e1Ur0Hb28+cbbd92x8S0vW22NcuW21arYnX/dJQdVCCY2tWqH3aM1d+LHd4AAACQOgRIQBpo06aNPTVzptuVzVv09jvW9pRT3e5tAFIk9zv7cMpQGzB5Rf5l7bg2dqB1rFfcbLJc27buJbvv+b2tyUG7Bdfl+1W91nZmw98ElwI/rbV/zl2dd6aetTyqjuU3r3m7Wu0TT7BDSt0qBwAAAJQdARKQJrSVf87gwa4aKUxb/1/do4d9/vnnwTUAkuNH2zDvQbvhjtn2jbtc0h3Xcm3bpvfs/wbeY2tPPc4OLsFf3p8/X27zP9lqVuVIO6bBb4NrAQAAgIpDgASkGVUjvbFgvp3Wrm1wjdlLs+fYiS1a2jOzZgXXAEis7bb5wyft9v4TbIXbr7+aNbwsx+44r779Mp0o1jbb/MVKe+eFsdbv3Evs7jf2t1OaHFCCP7zbbOOK9+y9vH+ncotmdkTNXYLrAQAAgIrDLmxAGlNg1K93n+BSPrW59e3Xz1UsAUiQzYtsVKdL7f7lm4MryuCQ6+zpF66yRrsW03qW+2+bd0tnu2zyWjv4uiftuasbx7SwAQAAAKlHgASkOQ3SvmXgQDcTydPA7ZvzrlO1EoA0s+VtG3ZyZ3t4QwO7fNrjdv2xewVfAAAAACoOLWxAmjvkkEPs0YkT7facO4Nr8rf7v/Ky7jZwwAC2+wfSSq79tPpde3XDdrN9jrNmDfYIrgcAAAAqFgESkAG03X/nLl1sxjOzCmz3/8SUx+2Mtm1t6dKlwTUAom2rffnRMvs071yV44+xw9mqHwAAABFBgARkkMaNG9sLc+bYFT2uCq7Jr0bq2P4cu2fYMKqRgKjL/do+eHOJbbc97Y/HNbAa7NQPAACAiCBAAjKMqpGuu/56mzz18QLVSA+NfdAu7dbNzUwCEFGbP7F/vvVV3pmDreUR+/NHGgAAAJHBe1MgQx1//PH21MyZblc2T4O2255yqk157DGqkYDIybWf1rxv87/ablbrODum/m+C6wEAAICKR4AEZDBt5Z8zeLCNmzA+uCbfrQMHWf9+/ezzzz8PrgFQ8b63D159xT7OO1f50LpW69f0rwEAACA6CJCALKDt/N9YMN9Oa9c2uMbspdlz7MQWLe2ZWbOCawBUiNzNtv79Bfby42PtvseWuau2L5trM5553d5Z/JF98UOuuw4AAACoSJVy8wTnAWQBBUb9evcJLuVTsHRnTo6rWAIAAAAAIBYVSECWaX/OOTbnlZet6bHNgmvyq5HO69DB5s6dG1wDAAAAAMAvqEACspSGaM+cMcPNQwrT0O0BAwe63dwAAAAAABACJCDLLV261Pr06mWffbo2uMbc9v8jR4+2xo0bB9cAAAAAALIZARIAV410/5gx9tDYB4Nr8l3R4yq7pmdPqpEAAAAAIMsRIAHYIV41kmYl3ZGTY4ccckhwDQAAAAAg2xAgASjgm2++sRHDh9sTUx4Prsl3e86d1qFjR6qRAAAAACALESABiEs7sg3JydmpGuneESPsgAMOCK4BAAAAAGQDtvEHEFebNm1s8pQpdlq7tsE1ZovefsdObNHSnpk1K7imaKpm+vzzz4NL0XTPsGF2zdVXB5cAAAAAAPEQIAEolCqNHhg71oaPGhlck69f7z52dY8exYZDGzdutP59+7oh3VGkKisNDn/xhdklDsUAAAAAIBsRIAEoVvtzzrE3Fsx3LWzeS7Pn2CWdO7sQpjBbtmxxVUszZ8wIrokOhV9XXtY9uJQfimmIOAAAAABgZwRIAEpE1UiPTpzohml7mo+kEGbggAGuXS3Wp2vWuNNbBw6yVatWufNRoIoohV+i32fy1PyB4dqBLuotdwAAAABQEQiQAJSYdmDr3KWLzXnlZTuw7kHBteZ2bDuvQ4ciK3huGTgwEq1sug39+/Vz4Vf/G25wv8/xxx/vQiRdN2Tw4Mi23AEAAABARSFAAlBqhxxyiL0wZ45d0eOq4Jr8aqSO7c9xQ6njBTBRaWW7f8wY136n8OjKq64MrrUdIZL7Wr9+wbUAAAAAAGEbfwDloqojtX6Ft/tXddJD48fbh8uXu9lCYapeUgBVEcY9OM7uvftuGzdhvNtlLp633nrLLrno4p0CJgAAAADIZlQgASiXxo0b21MzZ9qFnS8OrsmvRmp7yqk2+W+Tg2t+UVGtbAqGpk97wlUZFRYeiSqRZjwzy30vO7MBAAAAQD4qkAAkjHZkG5KTU6AaKR4NrtbsoVTyQ7733ntvd1qc0n4/AAAAAGQyAiQACaVdzG695Rab9+prwTXxVWQrGwAAAACgdAiQACSMtup/de6rbs5QcZoe28wenTjR7eyWDLlfv28vzV9mnyx8xh6dvsi+Da43q2x7t+xqPdo3shoHHmOnH1vbqrjrf7bNq+bbq0tW2fvPPGqT5v/LXWuV69tJ3Tvbue3b2+kNq1ul/GsBAAAAIKsQIAEoN80XeuH55912/qWRmkHVP9i6WYOsY++nLL8prbXd8fqDdnG93dylnW2zL2b1tZa9n7PKdTvYrffdbBccWcN2Cb4KAAAAANmIIdoAykwVRxd16uR2LStteCRuR7QHxwWXkmV3q9Oui3U7JL/OyOw7+/b7rcH5OH5YaS89vdAqH36FPTR1iF1MeAQAAAAAVvm2PMF5ACiVqlWrWsPDDrPDjzjc9q9Vyz5Ytiz4SsktXLDAatSsaUceeWRwTRJU3sv2+vldmzJvXd6F72zzoe3sgqNq7tyOtu1zm3f3dXbTylNs3IQ+1qpWYVVKAAAAAJBdaGEDkFCqSvpw+XJbuXKlzZk9u9gd2Txtr68t9JPl51UTreMpt5uLuBrfanOe7maHhGswFR4NvdZuXH+2PXzXxXZkdV+xBAAAAAAgQAKQVNqV7bPPPrOlS5baG/Net0VvvxN8ZWdJDZF+/sgmndvB7ly6Je9CCxv0ygTresju+V/bER6da48Ov8gOq1Y5/3oAAAAAgEOABCClvvnmG5s+bXref0/ErU5KXoj0P1sxvpudNVgBVlVrdNtMm9HtUPsV4REAAAAAFIsACUCF+N///mdLliyxxyZPtpdmzwmuzffGgvl2wAEHBJcSJdd+ev9BO+vse+zjvEuVWw2zuQ83t4/vJjwCAAAAgOIQIAGocGpze+7Z59yubHJg3YNs8pQpiQ+RflpqY88430as2mpW+Sg7/fSf7Z/bzic8AgAAAIBiECABiAxVJS1YsMAeGT/evvzyyySESN/aO3dfbBc/uMJdqnr2aHtxxFn2u1122o8NAAAAABAS3oMIACrUr3/9a2vTpo1NnTbNHho/3ua9/nrwlUT5rf3h2KZWNbi0Ze039t9fER4BAAAAQHEIkABE0iGHHGKdu3QJLiVCrm3b8Lrdd89M0z5sztK5tvDjH4ILAAAAAIDC0MIGIAsoPHrN7rrsLlt/wUDrsOFu6zFObWyh3djyv7EEttp3qxbaCzNfsL+v39V+//tq9v2/tliNw4+wurbG1tb7q/U6sWbwvQAAAACQGahAApDhwuHRCLv3zyfYccf5NrYttuzpt+zjn92FEvjRNrw+3LqcfoctbXiljbovx67vc6PdOayvnbTlWbvhtmW21++qBd8LAAAAAJmDAAlABosNjxpZtUq/st82aW3t/SCkUrSx5W5aaA9eP8FW/L6jdTm9nu3uxydV2ssaXfRX61S7vh20367BlQAAAACQOQiQAGQoHx7dZG8fd6Pd2vkIq+YDn98eYSd3ODC48KHNW7Ih77uLk2v/W/lPe/Wr7WZVq9ruMTu3VdrrUDv+jIZ2QDVeVgEAAABkHlY6ADJQODwaag/fdJLVKhD4VLfGJza3Ku78Jlv4wj9tfWmmwX3whi1cvWMUd75Ke1vjC1tZXV5VAQAAAGQgljoAMowPj/rZswffbGN3Co+ksu111Al2Wn6CZNvffM3eXv9T/oVCVbJfNzjGTt6nsv4He2D4M7bqh3DqtLv9rt5+QSgFAAAAAJmFAAlABsm1bZuW2JTbbrOJ/z7LBg860+rsFB7lq1TzcGvZfM/8C9vfthf+8XmxbWyVqh9nf7n+TNvbtts3Lw2x3rc8ZSs2bw++CgAAAACZiwAJQIbYbpvXzLGhXf5sd7603qzx0dZon12Cr8Wzu+253x7B+U325riZtuj74sKgX1u9826yEZf90SrbZvto+k3Wtd9U+5AQCQAAAECGq3xbnuA8AKShH2z920/bY+PusQHXP2hvfhm0oq392D793zb78Zv/WdWDatterhIp17auX2SzX3rF5k4dZyOmLrf/5X+32aZ37dW/r7J///c7+2bTLlar3j6/7LIWVqmaHdi8pTX673v2wnv/si0f/91e+bqBndG6vu3xq/jVTgAAAACQ7irl5gnOAwBKatvnNm9oT7vikfdsux1kHcdPtbtOqWVESAAAAAAyES1sAFCM3B9/sB9jo/ZdDrBW/QdZryOr5V1Ya88+9559TRwPAAAAIEMRIAFAkbbZ16/Ptre//zm4HPLrw+2sS1pa5byzW9f+274lQAIAAACQoQiQAKBIP9gXn3xg6zduDS6H7WJ77rOv7ZZ3rspB+9pe9K8BAAAAyFAESABQpB9s478W2nNvfGI7R0g/2JeffmY/2kF29ll/tJoESAAAAAAyFAESABTl5422dtk6WzTmfnv8/Y22LbjabKttev9JGz7m/9lRPW613q33Z4A2AAAAgIzFLmwAUJT/zLexD31jRzff1dYsecve+n/b7YDfV7PvP/nMftz3j9byjDPs1D/+Lv6W/wAAAACQIQiQAAAAAAAAUCRa2AAAAAAAAFAkAiQAAAAAAAAUiQAJAAAAAAAARSJAAgAAAAAAQJEIkAAAAAAAAFAkAiQAAAAAAAAUiQAJAAAAAAAARSJAAgAAAAAAQJEIkAAAAAAAAFAkAiQAAAAAAAAUiQAJAAAAAAAARSJAAgAAAAAAQJEIkAAAAAAAAFAkAiQAAAAAAAAUiQAJAAAAAAAARSJAAgAAAAAAQJEIkAAAAAAAAFAkAiQAAAAAAAAUiQAJAAAAAAAARSJAAgAAAAAAQJEIkAAAAAAAAFAkAiQAAAAAAAAUiQAJAAAAAAAARSJAAgAAAAAAQJEIkAAAAAAAAFAkAiQAAAAAAAAUiQAJAAAAAAAARSJAAgAAAAAAQJEIkAAAAAAAAFAkAiQAAAAAAAAUiQAJAAAAAAAARSJAAgAAAAAAQJEIkAAAAAAAAFAkAiQAAAAAAAAUiQAJAAAAAAAARSJAAgAAAAAAQJEIkAAAAAAAAFAkAiQAAAAAAAAUwez/A4L9B4akB3bQAAAAAElFTkSuQmCC;connectable=0;allowArrows=0;recursiveResize=0;expand=0;editable=0;movable=0;resizable=0;rotatable=0;deletable=0;locked=0;cloneable=0;" parent="1" vertex="1">
          <mxGeometry x="320" y="570" width="1168" height="879" as="geometry" />
        </mxCell>
        <mxCell id="-rrkDvZncyotK9qBmut7-2" value="\({\hat{Z}}_{1}\)" style="endArrow=classic;html=1;rounded=0;strokeWidth=3;fontSize=23;" parent="1" edge="1">
          <mxGeometry width="50" height="50" relative="1" as="geometry">
            <mxPoint x="532" y="899" as="sourcePoint" />
            <mxPoint x="390" y="986" as="targetPoint" />
          </mxGeometry>
        </mxCell>
        <mxCell id="-rrkDvZncyotK9qBmut7-3" value="\({\hat{X}}_{1}\)" style="endArrow=classic;html=1;rounded=0;strokeWidth=3;fontSize=23;" parent="1" edge="1">
          <mxGeometry width="50" height="50" relative="1" as="geometry">
            <mxPoint x="530" y="900" as="sourcePoint" />
            <mxPoint x="670" y="986" as="targetPoint" />
          </mxGeometry>
        </mxCell>
        <mxCell id="eYIRmggqe5oqOnxXwCbh-1" value="\({joint}_{1}\)" style="text;html=1;strokeColor=none;fillColor=none;align=center;verticalAlign=middle;whiteSpace=wrap;rounded=0;fontSize=23;" vertex="1" parent="1">
          <mxGeometry x="350" y="1210" width="60" height="30" as="geometry" />
        </mxCell>
        <mxCell id="eYIRmggqe5oqOnxXwCbh-2" value="\({joint}_{2}\)" style="text;html=1;strokeColor=none;fillColor=none;align=center;verticalAlign=middle;whiteSpace=wrap;rounded=0;fontSize=23;" vertex="1" parent="1">
          <mxGeometry x="365" y="870" width="60" height="30" as="geometry" />
        </mxCell>
        <mxCell id="eYIRmggqe5oqOnxXwCbh-3" value="\({joint}_{3}\)" style="text;html=1;strokeColor=none;fillColor=none;align=center;verticalAlign=middle;whiteSpace=wrap;rounded=0;fontSize=23;" vertex="1" parent="1">
          <mxGeometry x="720" y="1220" width="60" height="30" as="geometry" />
        </mxCell>
        <mxCell id="eYIRmggqe5oqOnxXwCbh-4" value="\({\hat{Z}}_{2}\)" style="endArrow=classic;html=1;rounded=0;strokeWidth=3;fontSize=23;" edge="1" parent="1">
          <mxGeometry width="50" height="50" relative="1" as="geometry">
            <mxPoint x="812" y="1082" as="sourcePoint" />
            <mxPoint x="740" y="1139" as="targetPoint" />
          </mxGeometry>
        </mxCell>
        <mxCell id="eYIRmggqe5oqOnxXwCbh-5" value="\({\hat{X}}_{2}\)" style="endArrow=classic;html=1;rounded=0;strokeWidth=3;fontSize=23;" edge="1" parent="1">
          <mxGeometry width="50" height="50" relative="1" as="geometry">
            <mxPoint x="810" y="1083" as="sourcePoint" />
            <mxPoint x="900" y="1140" as="targetPoint" />
          </mxGeometry>
        </mxCell>
      </root>
    </mxGraphModel>
  </diagram>
</mxfile>
